<?xml version="1.0" encoding="UTF-8"?>
<svg xmlns="http://www.w3.org/2000/svg" viewBox="0 0 600 1453" role="img" aria-labelledby="title-le-anterior">
  <title id="title-le-anterior">Lower-extremity venous system — anterior view</title>
  <desc>Pure-vector filled-vessel diagram of the anterior lower-extremity venous tree on a traced leg silhouette. Vessels are smoothed per anatomical chain from hand-calibrated centerlines; each carries a canonical IAC/SVU id and fills by competency.</desc>
  <defs>
    <clipPath id="leg-clip"><path d="M 80.261 25.250 C 80.541 28.138, 82.231 40.175, 84.016 52 C 86.472 68.274, 87.290 77.146, 87.380 88.500 L 87.500 103.500 82.138 116 C 66.671 152.060, 35.931 231.820, 26.394 260.639 C 17.409 287.786, 9.453 338.763, 3.315 408.500 C 0.724 437.945, 0.706 529.275, 3.287 549.500 C 15.404 644.443, 38.115 755.244, 56.462 808.925 C 59.994 819.259, 59.777 823, 55.078 832.717 C 40.618 862.617, 38.897 893.053, 49.772 926.500 C 54.443 940.865, 54.424 945.230, 49.650 954.707 C 37.933 977.961, 29.149 1008.425, 24.336 1042.500 C 21.493 1062.630, 21.773 1118.589, 24.845 1144 C 31.081 1195.595, 38.983 1241.002, 59.043 1340.500 C 70.973 1399.676, 78 1436.272, 78 1439.225 C 78 1439.651, 79.013 1440.018, 80.250 1440.041 C 81.952 1440.072, 83.067 1441.291, 84.826 1445.041 L 87.152 1450 128.576 1450 L 170 1450 170 1438.187 C 170 1417.388, 175.465 1368.153, 185.005 1303 C 196.921 1221.623, 197.902 1217.120, 214.566 1167.208 C 235.295 1105.121, 236.559 1098.835, 235.721 1062 C 234.864 1024.335, 228.035 979.517, 214.847 925 C 208.331 898.063, 209.528 886.679, 232.983 752.500 C 242.078 700.466, 248.444 667.332, 254.532 640.325 C 260.488 613.910, 263.116 598.926, 265.551 577.500 C 267.077 564.075, 267.717 561.617, 274.274 544 C 277.241 536.029, 277.167 522.813, 274.104 513.500 C 272.034 507.206, 271.814 504.759, 271.925 489.247 C 272.065 469.589, 271.282 471.855, 283.656 455.311 L 289.781 447.122 303.141 459.521 C 312.615 468.315, 316.862 472.968, 317.745 475.523 C 319.845 481.602, 319.661 506.275, 317.458 514 C 314.201 525.421, 314.919 537.148, 319.755 551.500 C 322.998 561.123, 324.227 566.967, 325.963 581 C 328.456 601.165, 331.392 616.929, 337.511 643 C 345.422 676.711, 357.225 739.716, 373.114 833.055 C 383.823 895.966, 383.918 898.920, 376.268 931 C 361.382 993.418, 355.313 1037.574, 356.293 1076.346 C 357.025 1105.299, 358.490 1111.433, 377.713 1166 C 391.237 1204.391, 394.482 1216.470, 399.876 1248.500 C 412.709 1324.704, 422.570 1400.820, 423.682 1432.250 L 424.310 1450 466.500 1450 C 513.413 1450, 510.564 1450.417, 513.085 1443.185 C 513.891 1440.874, 514.815 1440, 516.451 1440 C 518.545 1440, 518.832 1439.226, 520.446 1429.250 C 522.048 1419.346, 525.317 1403.238, 543.634 1315 C 568.590 1194.780, 578.179 1126.095, 576.653 1078.500 C 575.160 1031.929, 566.927 995.139, 549.902 958.957 C 542.938 944.158, 542.737 942.064, 547.061 929.438 C 558.977 894.643, 557.472 861.507, 542.713 833.695 C 537.110 823.138, 537.084 820.809, 542.388 804.486 C 564.645 735.980, 591.195 604.416, 596.972 534 C 602.472 466.971, 592.915 342.526, 577.403 279.166 C 572.331 258.447, 546.694 191.365, 519.996 128.956 C 515.163 117.657, 510.714 106.632, 510.109 104.456 C 507.704 95.793, 509.280 70.139, 513.946 42 C 514.994 35.675, 516.153 28.137, 516.520 25.250 L 517.188 20 298.470 20 L 79.752 20 80.261 25.250" /></clipPath>
  </defs>
  <g id="silhouette" fill="#f7fafc" stroke="transparent" stroke-width="2.5" stroke-linejoin="round" stroke-linecap="round">
    <path d="M 80.261 25.250 C 80.541 28.138, 82.231 40.175, 84.016 52 C 86.472 68.274, 87.290 77.146, 87.380 88.500 L 87.500 103.500 82.138 116 C 66.671 152.060, 35.931 231.820, 26.394 260.639 C 17.409 287.786, 9.453 338.763, 3.315 408.500 C 0.724 437.945, 0.706 529.275, 3.287 549.500 C 15.404 644.443, 38.115 755.244, 56.462 808.925 C 59.994 819.259, 59.777 823, 55.078 832.717 C 40.618 862.617, 38.897 893.053, 49.772 926.500 C 54.443 940.865, 54.424 945.230, 49.650 954.707 C 37.933 977.961, 29.149 1008.425, 24.336 1042.500 C 21.493 1062.630, 21.773 1118.589, 24.845 1144 C 31.081 1195.595, 38.983 1241.002, 59.043 1340.500 C 70.973 1399.676, 78 1436.272, 78 1439.225 C 78 1439.651, 79.013 1440.018, 80.250 1440.041 C 81.952 1440.072, 83.067 1441.291, 84.826 1445.041 L 87.152 1450 128.576 1450 L 170 1450 170 1438.187 C 170 1417.388, 175.465 1368.153, 185.005 1303 C 196.921 1221.623, 197.902 1217.120, 214.566 1167.208 C 235.295 1105.121, 236.559 1098.835, 235.721 1062 C 234.864 1024.335, 228.035 979.517, 214.847 925 C 208.331 898.063, 209.528 886.679, 232.983 752.500 C 242.078 700.466, 248.444 667.332, 254.532 640.325 C 260.488 613.910, 263.116 598.926, 265.551 577.500 C 267.077 564.075, 267.717 561.617, 274.274 544 C 277.241 536.029, 277.167 522.813, 274.104 513.500 C 272.034 507.206, 271.814 504.759, 271.925 489.247 C 272.065 469.589, 271.282 471.855, 283.656 455.311 L 289.781 447.122 303.141 459.521 C 312.615 468.315, 316.862 472.968, 317.745 475.523 C 319.845 481.602, 319.661 506.275, 317.458 514 C 314.201 525.421, 314.919 537.148, 319.755 551.500 C 322.998 561.123, 324.227 566.967, 325.963 581 C 328.456 601.165, 331.392 616.929, 337.511 643 C 345.422 676.711, 357.225 739.716, 373.114 833.055 C 383.823 895.966, 383.918 898.920, 376.268 931 C 361.382 993.418, 355.313 1037.574, 356.293 1076.346 C 357.025 1105.299, 358.490 1111.433, 377.713 1166 C 391.237 1204.391, 394.482 1216.470, 399.876 1248.500 C 412.709 1324.704, 422.570 1400.820, 423.682 1432.250 L 424.310 1450 466.500 1450 C 513.413 1450, 510.564 1450.417, 513.085 1443.185 C 513.891 1440.874, 514.815 1440, 516.451 1440 C 518.545 1440, 518.832 1439.226, 520.446 1429.250 C 522.048 1419.346, 525.317 1403.238, 543.634 1315 C 568.590 1194.780, 578.179 1126.095, 576.653 1078.500 C 575.160 1031.929, 566.927 995.139, 549.902 958.957 C 542.938 944.158, 542.737 942.064, 547.061 929.438 C 558.977 894.643, 557.472 861.507, 542.713 833.695 C 537.110 823.138, 537.084 820.809, 542.388 804.486 C 564.645 735.980, 591.195 604.416, 596.972 534 C 602.472 466.971, 592.915 342.526, 577.403 279.166 C 572.331 258.447, 546.694 191.365, 519.996 128.956 C 515.163 117.657, 510.714 106.632, 510.109 104.456 C 507.704 95.793, 509.280 70.139, 513.946 42 C 514.994 35.675, 516.153 28.137, 516.520 25.250 L 517.188 20 298.470 20 L 79.752 20 80.261 25.250" />
  </g>
  <g id="pelvis-hint" fill="none" stroke="transparent" stroke-width="2" stroke-linecap="round" stroke-linejoin="round"></g>
  <g id="side-labels" font-family="system-ui, -apple-system, Segoe UI, Roboto, sans-serif" font-size="34" font-weight="600" fill="#4a5568" text-anchor="middle">
    <text x="150" y="180">R</text>
    <text x="450" y="180">L</text>
  </g>
  <g id="segments" clip-path="url(#leg-clip)" fill="transparent" stroke="transparent" stroke-linejoin="round" stroke-linecap="round" pointer-events="all">
    <path d="M 252.2,292.2 L 254.5,290.6 L 257.0,288.8 L 259.8,286.7 L 262.9,284.4 L 266.2,281.9 L 269.7,279.3 L 273.3,276.6 L 277.0,274.1 L 280.7,271.6 L 284.4,269.4 L 288.0,267.5 L 291.5,265.9 L 294.7,264.8 L 297.5,264.2 L 300.0,264.0 L 302.5,264.2 L 305.3,264.8 L 308.5,265.9 L 312.0,267.5 L 315.6,269.4 L 319.3,271.6 L 323.0,274.1 L 326.7,276.6 L 330.3,279.3 L 333.8,281.9 L 337.1,284.4 L 340.2,286.7 L 343.0,288.8 L 345.5,290.6 L 347.8,292.2 L 350.4,293.3 L 353.4,293.4 L 356.1,292.3 L 358.2,290.2 L 359.3,287.6 L 359.4,284.6 L 358.3,281.9 L 356.2,279.8 L 354.1,278.4 L 351.8,276.7 L 349.2,274.8 L 346.2,272.5 L 342.9,269.9 L 339.3,267.2 L 335.4,264.4 L 331.4,261.6 L 327.2,258.9 L 322.9,256.3 L 318.6,254.0 L 314.1,252.0 L 309.5,250.4 L 304.8,249.3 L 300.0,249.0 L 295.2,249.3 L 290.5,250.4 L 285.9,252.0 L 281.4,254.0 L 277.1,256.3 L 272.8,258.9 L 268.6,261.6 L 264.6,264.4 L 260.7,267.2 L 257.1,269.9 L 253.8,272.5 L 250.8,274.8 L 248.2,276.7 L 245.9,278.4 L 243.8,279.8 L 241.7,281.9 L 240.6,284.6 L 240.7,287.6 L 241.8,290.2 L 243.9,292.3 L 246.6,293.4 L 249.6,293.3 L 252.2,292.2 Z" fill="#94a3b8" stroke="#475569" stroke-width="2" />
    <path id="spj-right" d="M 153.8,943.6 L 159.8,959.6 L 160.7,961.1 L 162.1,962.1 L 163.8,962.5 L 165.6,962.2 L 167.1,961.3 L 168.1,959.9 L 168.5,958.2 L 168.2,956.4 L 162.2,940.4 L 161.3,938.9 L 159.9,937.9 L 158.2,937.5 L 156.4,937.8 L 154.9,938.7 L 153.9,940.1 L 153.5,941.8 L 153.8,943.6 Z" data-label="Saphenopopliteal junction (right)"><title>Saphenopopliteal junction (right)</title></path>
    <path id="ssv-right" d="M 153.9,943.3 L 153.2,944.9 L 152.5,946.4 L 151.7,947.8 L 150.9,949.1 L 149.9,950.6 L 148.8,952.2 L 147.6,953.9 L 146.4,955.9 L 145.0,958.1 L 143.6,960.6 L 142.2,963.4 L 140.7,966.7 L 139.3,970.3 L 137.8,974.4 L 136.4,979.0 L 135.0,984.2 L 133.7,990.1 L 132.3,996.6 L 131.1,1003.8 L 129.9,1011.5 L 128.8,1019.2 L 128.0,1025.8 L 127.4,1030.9 L 127.0,1034.5 L 126.8,1037.6 L 126.5,1040.5 L 126.2,1043.4 L 126.0,1046.5 L 125.7,1049.6 L 125.4,1052.9 L 125.2,1056.2 L 124.9,1059.6 L 124.7,1063.2 L 124.4,1066.8 L 124.1,1070.4 L 123.9,1074.2 L 123.6,1078.0 L 123.3,1081.9 L 123.1,1085.9 L 122.8,1089.9 L 122.5,1094.0 L 122.3,1098.2 L 122.0,1102.4 L 121.7,1106.7 L 121.5,1111.1 L 121.2,1115.5 L 121.0,1119.9 L 120.7,1124.4 L 120.4,1128.9 L 120.2,1133.5 L 119.9,1138.1 L 119.7,1142.7 L 119.4,1147.4 L 119.1,1152.1 L 118.9,1156.9 L 118.6,1161.7 L 118.4,1166.4 L 118.1,1171.3 L 117.9,1176.1 L 117.6,1180.9 L 117.4,1185.8 L 117.1,1190.7 L 116.9,1195.5 L 116.6,1200.4 L 116.4,1205.3 L 116.1,1210.2 L 115.9,1215.1 L 115.6,1220.0 L 115.4,1224.8 L 115.2,1229.7 L 114.9,1234.5 L 114.7,1239.4 L 114.5,1244.2 L 114.2,1249.0 L 114.0,1253.7 L 113.8,1258.5 L 113.6,1263.2 L 113.3,1267.9 L 113.1,1272.5 L 112.9,1277.1 L 112.7,1281.7 L 112.5,1286.2 L 112.3,1290.7 L 112.1,1295.1 L 111.8,1299.5 L 111.6,1303.9 L 111.4,1308.2 L 111.3,1312.4 L 111.1,1316.5 L 110.9,1320.6 L 110.7,1324.7 L 110.5,1328.6 L 110.3,1332.5 L 110.1,1336.4 L 110.0,1340.1 L 109.8,1343.8 L 109.6,1347.4 L 109.4,1350.9 L 109.3,1354.3 L 109.1,1357.6 L 109.0,1360.8 L 108.8,1364.0 L 108.7,1367.0 L 108.5,1370.0 L 108.4,1372.8 L 108.2,1375.5 L 108.1,1378.2 L 108.0,1380.7 L 107.9,1383.1 L 107.7,1385.4 L 107.6,1387.6 L 107.5,1389.8 L 107.8,1391.5 L 108.7,1393.0 L 110.1,1394.1 L 111.8,1394.5 L 113.5,1394.2 L 115.0,1393.3 L 116.1,1391.9 L 116.5,1390.2 L 116.6,1388.1 L 116.7,1385.9 L 116.8,1383.6 L 117.0,1381.2 L 117.1,1378.6 L 117.2,1376.0 L 117.4,1373.3 L 117.5,1370.4 L 117.7,1367.5 L 117.8,1364.4 L 118.0,1361.3 L 118.1,1358.0 L 118.3,1354.7 L 118.4,1351.3 L 118.6,1347.8 L 118.8,1344.2 L 118.9,1340.5 L 119.1,1336.8 L 119.3,1333.0 L 119.5,1329.1 L 119.7,1325.1 L 119.9,1321.1 L 120.0,1317.0 L 120.2,1312.8 L 120.4,1308.6 L 120.6,1304.3 L 120.8,1300.0 L 121.0,1295.6 L 121.3,1291.1 L 121.5,1286.6 L 121.7,1282.1 L 121.9,1277.5 L 122.1,1272.9 L 122.3,1268.3 L 122.5,1263.6 L 122.8,1258.9 L 123.0,1254.2 L 123.2,1249.4 L 123.5,1244.6 L 123.7,1239.8 L 123.9,1235.0 L 124.2,1230.1 L 124.4,1225.3 L 124.6,1220.4 L 124.9,1215.5 L 125.1,1210.6 L 125.4,1205.8 L 125.6,1200.9 L 125.8,1196.0 L 126.1,1191.1 L 126.3,1186.3 L 126.6,1181.4 L 126.8,1176.6 L 127.1,1171.7 L 127.4,1166.9 L 127.6,1162.1 L 127.9,1157.4 L 128.1,1152.6 L 128.4,1147.9 L 128.6,1143.2 L 128.9,1138.6 L 129.2,1134.0 L 129.4,1129.4 L 129.7,1124.9 L 129.9,1120.4 L 130.2,1116.0 L 130.5,1111.6 L 130.7,1107.3 L 131.0,1103.0 L 131.3,1098.8 L 131.5,1094.6 L 131.8,1090.5 L 132.1,1086.5 L 132.3,1082.5 L 132.6,1078.6 L 132.8,1074.8 L 133.1,1071.1 L 133.4,1067.4 L 133.6,1063.8 L 133.9,1060.3 L 134.2,1056.9 L 134.4,1053.6 L 134.7,1050.4 L 134.9,1047.2 L 135.2,1044.2 L 135.5,1041.3 L 135.7,1038.4 L 136.0,1035.4 L 136.4,1031.8 L 136.9,1026.9 L 137.7,1020.3 L 138.8,1012.8 L 139.9,1005.2 L 141.2,998.2 L 142.5,992.0 L 143.8,986.4 L 145.1,981.5 L 146.4,977.2 L 147.7,973.4 L 149.0,970.2 L 150.3,967.3 L 151.5,964.8 L 152.8,962.6 L 154.0,960.7 L 155.1,958.9 L 156.3,957.3 L 157.4,955.6 L 158.5,954.0 L 159.5,952.2 L 160.5,950.4 L 161.4,948.5 L 162.1,946.7 L 162.5,945.0 L 162.2,943.3 L 161.2,941.8 L 159.7,940.9 L 158.0,940.5 L 156.3,940.8 L 154.8,941.8 L 153.9,943.3 Z" data-label="Small saphenous vein (right)"><title>Small saphenous vein (right)</title></path>
    <path id="pfv-right" d="M 180.1,386.5 L 179.2,388.8 L 178.1,391.8 L 176.7,395.4 L 175.4,398.9 L 174.2,401.7 L 173.1,404.0 L 172.0,406.4 L 170.8,408.9 L 169.5,411.6 L 168.1,414.5 L 166.7,417.5 L 165.1,420.8 L 163.6,424.4 L 162.0,428.1 L 160.4,432.1 L 158.8,436.4 L 157.2,441.0 L 155.7,446.0 L 154.1,451.2 L 152.6,456.6 L 151.3,462.0 L 150.1,466.9 L 149.2,471.1 L 148.4,474.8 L 147.7,478.2 L 147.1,481.8 L 146.4,485.4 L 145.7,489.2 L 145.1,493.1 L 144.4,497.2 L 143.7,501.4 L 143.0,505.7 L 142.3,510.0 L 141.6,514.5 L 140.9,519.1 L 140.2,523.7 L 139.5,528.4 L 138.8,533.1 L 138.1,537.8 L 137.4,542.6 L 136.7,547.4 L 136.0,552.2 L 135.3,557.0 L 134.6,561.8 L 133.9,566.6 L 133.3,571.3 L 132.6,576.0 L 132.0,580.7 L 131.3,585.2 L 130.7,589.7 L 130.1,594.1 L 129.5,598.4 L 128.9,602.6 L 128.4,606.7 L 127.8,610.6 L 127.3,614.5 L 126.8,618.1 L 126.3,621.6 L 125.9,625.0 L 125.4,628.1 L 125.0,631.1 L 124.6,633.8 L 124.3,636.4 L 123.9,638.8 L 123.6,641.1 L 123.7,643.6 L 124.8,645.9 L 126.7,647.6 L 129.1,648.4 L 131.6,648.3 L 133.9,647.2 L 135.6,645.3 L 136.4,642.9 L 136.8,640.7 L 137.1,638.3 L 137.5,635.7 L 137.9,632.9 L 138.3,629.9 L 138.7,626.7 L 139.2,623.4 L 139.7,619.9 L 140.2,616.2 L 140.7,612.4 L 141.3,608.5 L 141.8,604.4 L 142.4,600.2 L 143.0,595.9 L 143.6,591.5 L 144.2,587.0 L 144.8,582.4 L 145.5,577.8 L 146.1,573.1 L 146.8,568.4 L 147.5,563.7 L 148.2,558.9 L 148.8,554.1 L 149.5,549.3 L 150.2,544.5 L 150.9,539.7 L 151.6,535.0 L 152.3,530.3 L 153.0,525.6 L 153.7,521.0 L 154.4,516.5 L 155.1,512.1 L 155.8,507.7 L 156.5,503.5 L 157.2,499.3 L 157.9,495.3 L 158.5,491.4 L 159.2,487.7 L 159.9,484.1 L 160.5,480.7 L 161.2,477.4 L 161.9,473.8 L 162.8,469.8 L 163.9,465.1 L 165.2,459.9 L 166.6,454.7 L 168.1,449.8 L 169.6,445.2 L 171.1,440.8 L 172.6,436.8 L 174.1,433.0 L 175.6,429.5 L 177.0,426.2 L 178.4,423.0 L 179.8,420.1 L 181.2,417.3 L 182.5,414.6 L 183.7,412.0 L 184.9,409.5 L 186.1,406.8 L 187.4,403.7 L 188.8,400.1 L 190.3,396.4 L 191.4,393.3 L 192.3,391.0 Z" data-label="Profunda (deep femoral) vein (right)"><title>Profunda (deep femoral) vein (right)</title></path>
    <path id="per-right" d="M 165.1,974.7 L 163.6,975.9 L 161.3,977.8 L 158.0,980.4 L 154.7,983.0 L 151.9,985.1 L 149.4,986.8 L 146.7,988.5 L 143.9,990.4 L 140.9,992.3 L 137.6,994.3 L 134.3,996.4 L 130.8,998.6 L 127.1,1000.9 L 123.5,1003.3 L 119.7,1005.7 L 115.9,1008.3 L 112.2,1010.9 L 108.4,1013.6 L 104.7,1016.4 L 101.0,1019.3 L 97.5,1022.2 L 94.0,1025.2 L 90.7,1028.3 L 87.6,1031.5 L 84.6,1034.7 L 81.9,1038.0 L 79.4,1041.4 L 77.2,1044.8 L 75.2,1048.2 L 73.5,1051.5 L 72.1,1054.8 L 70.8,1058.0 L 69.7,1061.1 L 68.7,1064.3 L 67.9,1067.4 L 67.2,1070.6 L 66.5,1073.8 L 66.0,1077.0 L 65.6,1080.3 L 65.3,1083.7 L 65.1,1087.1 L 64.9,1090.5 L 64.8,1094.1 L 64.8,1097.8 L 64.8,1101.6 L 64.9,1105.5 L 65.0,1109.5 L 65.1,1113.7 L 65.2,1118.1 L 65.4,1122.6 L 65.6,1127.4 L 65.8,1132.3 L 66.0,1137.4 L 66.1,1142.8 L 66.3,1148.2 L 66.4,1153.6 L 66.5,1158.4 L 66.5,1162.6 L 66.6,1166.2 L 66.7,1169.5 L 66.8,1172.9 L 66.9,1176.4 L 67.0,1180.0 L 67.1,1183.7 L 67.2,1187.6 L 67.3,1191.5 L 67.5,1195.5 L 67.7,1199.6 L 67.8,1203.7 L 68.0,1208.0 L 68.2,1212.3 L 68.4,1216.7 L 68.6,1221.2 L 68.8,1225.7 L 69.0,1230.2 L 69.2,1234.8 L 69.5,1239.5 L 69.7,1244.2 L 69.9,1248.9 L 70.2,1253.6 L 70.4,1258.4 L 70.7,1263.1 L 71.0,1267.9 L 71.2,1272.7 L 71.5,1277.5 L 71.7,1282.3 L 72.0,1287.1 L 72.3,1291.8 L 72.5,1296.6 L 72.8,1301.3 L 73.1,1305.9 L 73.3,1310.6 L 73.6,1315.2 L 73.9,1319.8 L 74.1,1324.3 L 74.4,1328.7 L 74.7,1333.1 L 74.9,1337.4 L 75.2,1341.7 L 75.4,1345.8 L 75.6,1349.9 L 75.9,1353.9 L 76.1,1357.9 L 76.3,1361.7 L 76.5,1365.4 L 76.8,1369.0 L 77.0,1372.5 L 77.2,1375.8 L 77.3,1379.1 L 77.5,1382.2 L 77.7,1385.2 L 77.9,1388.0 L 78.0,1390.7 L 78.1,1393.3 L 78.3,1395.7 L 78.4,1398.0 L 78.5,1400.2 L 78.8,1401.5 L 79.7,1402.6 L 80.8,1403.3 L 82.2,1403.5 L 83.5,1403.2 L 84.6,1402.3 L 85.3,1401.2 L 85.5,1399.8 L 85.4,1397.6 L 85.3,1395.3 L 85.1,1392.9 L 85.0,1390.4 L 84.8,1387.7 L 84.7,1384.8 L 84.5,1381.8 L 84.3,1378.7 L 84.1,1375.4 L 83.9,1372.1 L 83.7,1368.6 L 83.5,1365.0 L 83.3,1361.3 L 83.1,1357.4 L 82.9,1353.5 L 82.6,1349.5 L 82.4,1345.4 L 82.1,1341.3 L 81.9,1337.0 L 81.6,1332.7 L 81.4,1328.3 L 81.1,1323.9 L 80.9,1319.3 L 80.6,1314.8 L 80.3,1310.2 L 80.1,1305.5 L 79.8,1300.9 L 79.5,1296.2 L 79.3,1291.4 L 79.0,1286.7 L 78.7,1281.9 L 78.5,1277.1 L 78.2,1272.3 L 77.9,1267.5 L 77.7,1262.8 L 77.4,1258.0 L 77.2,1253.2 L 76.9,1248.5 L 76.7,1243.8 L 76.5,1239.1 L 76.2,1234.5 L 76.0,1229.9 L 75.8,1225.3 L 75.6,1220.8 L 75.4,1216.4 L 75.2,1212.0 L 75.0,1207.7 L 74.8,1203.5 L 74.6,1199.3 L 74.5,1195.2 L 74.3,1191.2 L 74.2,1187.3 L 74.1,1183.5 L 74.0,1179.8 L 73.8,1176.2 L 73.8,1172.8 L 73.7,1169.4 L 73.6,1166.0 L 73.5,1162.5 L 73.5,1158.3 L 73.4,1153.4 L 73.3,1148.1 L 73.1,1142.6 L 72.9,1137.2 L 72.8,1132.0 L 72.6,1127.1 L 72.4,1122.4 L 72.2,1117.8 L 72.1,1113.5 L 72.0,1109.3 L 71.9,1105.3 L 71.8,1101.5 L 71.8,1097.8 L 71.8,1094.2 L 71.9,1090.8 L 72.1,1087.5 L 72.3,1084.2 L 72.6,1081.1 L 73.0,1078.0 L 73.4,1075.0 L 74.0,1072.0 L 74.7,1069.1 L 75.5,1066.2 L 76.4,1063.3 L 77.4,1060.4 L 78.5,1057.5 L 79.9,1054.5 L 81.4,1051.5 L 83.1,1048.5 L 85.1,1045.4 L 87.4,1042.3 L 89.9,1039.3 L 92.7,1036.3 L 95.6,1033.3 L 98.7,1030.4 L 102.0,1027.5 L 105.4,1024.7 L 108.9,1022.0 L 112.5,1019.3 L 116.2,1016.6 L 119.9,1014.1 L 123.6,1011.6 L 127.3,1009.1 L 130.9,1006.8 L 134.5,1004.5 L 138.0,1002.3 L 141.3,1000.2 L 144.6,998.2 L 147.7,996.3 L 150.6,994.4 L 153.3,992.6 L 156.0,990.7 L 159.0,988.5 L 162.3,985.9 L 165.6,983.3 L 168.0,981.3 L 169.5,980.2 Z" data-label="Peroneal vein (right)"><title>Peroneal vein (right)</title></path>
    <path id="gastroc-right" d="M 156.9,922.9 L 156.9,923.3 L 156.8,925.9 L 156.7,930.5 L 156.5,935.4 L 156.3,939.4 L 156.2,942.5 L 156.1,945.5 L 156.0,948.7 L 155.9,952.0 L 155.8,955.6 L 155.7,959.3 L 155.5,963.2 L 155.4,967.2 L 155.3,971.4 L 155.1,975.7 L 155.0,980.1 L 154.8,984.6 L 154.6,989.3 L 154.5,993.9 L 154.3,998.7 L 154.1,1003.5 L 154.0,1008.4 L 153.8,1013.3 L 153.6,1018.2 L 153.5,1023.1 L 153.3,1028.0 L 153.1,1033.0 L 153.0,1037.8 L 152.8,1042.7 L 152.6,1047.5 L 152.5,1052.2 L 152.3,1056.8 L 152.2,1061.4 L 152.0,1065.9 L 151.9,1070.2 L 151.7,1074.5 L 151.6,1078.6 L 151.4,1082.5 L 151.3,1086.3 L 151.2,1090.0 L 151.1,1093.4 L 151.0,1096.7 L 150.9,1099.7 L 150.8,1102.5 L 150.7,1105.2 L 150.6,1107.6 L 150.5,1109.9 L 150.7,1111.2 L 151.4,1112.4 L 152.6,1113.2 L 153.9,1113.5 L 155.2,1113.3 L 156.4,1112.6 L 157.2,1111.4 L 157.5,1110.1 L 157.6,1107.8 L 157.7,1105.4 L 157.7,1102.8 L 157.8,1100.0 L 158.0,1096.9 L 158.1,1093.7 L 158.2,1090.2 L 158.3,1086.6 L 158.4,1082.8 L 158.6,1078.8 L 158.7,1074.7 L 158.9,1070.5 L 159.0,1066.1 L 159.2,1061.7 L 159.3,1057.1 L 159.5,1052.4 L 159.6,1047.7 L 159.8,1042.9 L 160.0,1038.1 L 160.1,1033.2 L 160.3,1028.3 L 160.5,1023.4 L 160.6,1018.4 L 160.8,1013.5 L 161.0,1008.6 L 161.1,1003.8 L 161.3,998.9 L 161.5,994.2 L 161.6,989.5 L 161.8,984.9 L 161.9,980.4 L 162.1,975.9 L 162.2,971.6 L 162.4,967.5 L 162.5,963.4 L 162.7,959.5 L 162.8,955.8 L 162.9,952.3 L 163.0,948.9 L 163.1,945.8 L 163.2,942.8 L 163.3,939.6 L 163.5,935.7 L 163.6,930.8 L 163.8,926.1 L 163.9,923.6 L 163.9,923.1 Z" data-label="Gastrocnemius vein (right)"><title>Gastrocnemius vein (right)</title></path>
    <path id="spj-left" d="M 437.8,940.4 L 431.8,956.4 L 431.5,958.2 L 431.9,959.9 L 432.9,961.3 L 434.4,962.2 L 436.2,962.5 L 437.9,962.1 L 439.3,961.1 L 440.2,959.6 L 446.2,943.6 L 446.5,941.8 L 446.1,940.1 L 445.1,938.7 L 443.6,937.8 L 441.8,937.5 L 440.1,937.9 L 438.7,938.9 L 437.8,940.4 Z" data-label="Saphenopopliteal junction (left)"><title>Saphenopopliteal junction (left)</title></path>
    <path id="ssv-left" d="M 437.9,946.7 L 438.6,948.5 L 439.5,950.4 L 440.5,952.2 L 441.5,954.0 L 442.6,955.6 L 443.7,957.3 L 444.9,958.9 L 446.0,960.7 L 447.2,962.6 L 448.5,964.8 L 449.7,967.3 L 451.0,970.2 L 452.3,973.4 L 453.6,977.2 L 454.9,981.5 L 456.2,986.4 L 457.5,992.0 L 458.8,998.2 L 460.1,1005.2 L 461.2,1012.8 L 462.3,1020.3 L 463.1,1026.9 L 463.6,1031.8 L 464.0,1035.4 L 464.3,1038.4 L 464.5,1041.3 L 464.8,1044.2 L 465.1,1047.2 L 465.3,1050.4 L 465.6,1053.6 L 465.8,1056.9 L 466.1,1060.3 L 466.4,1063.8 L 466.6,1067.4 L 466.9,1071.1 L 467.2,1074.8 L 467.4,1078.6 L 467.7,1082.5 L 467.9,1086.5 L 468.2,1090.5 L 468.5,1094.6 L 468.7,1098.8 L 469.0,1103.0 L 469.3,1107.3 L 469.5,1111.6 L 469.8,1116.0 L 470.1,1120.4 L 470.3,1124.9 L 470.6,1129.4 L 470.8,1134.0 L 471.1,1138.6 L 471.4,1143.2 L 471.6,1147.9 L 471.9,1152.6 L 472.1,1157.4 L 472.4,1162.1 L 472.6,1166.9 L 472.9,1171.7 L 473.2,1176.6 L 473.4,1181.4 L 473.7,1186.3 L 473.9,1191.1 L 474.2,1196.0 L 474.4,1200.9 L 474.6,1205.8 L 474.9,1210.6 L 475.1,1215.5 L 475.4,1220.4 L 475.6,1225.3 L 475.8,1230.1 L 476.1,1235.0 L 476.3,1239.8 L 476.5,1244.6 L 476.8,1249.4 L 477.0,1254.2 L 477.2,1258.9 L 477.5,1263.6 L 477.7,1268.3 L 477.9,1272.9 L 478.1,1277.5 L 478.3,1282.1 L 478.5,1286.6 L 478.7,1291.1 L 479.0,1295.6 L 479.2,1300.0 L 479.4,1304.3 L 479.6,1308.6 L 479.8,1312.8 L 480.0,1317.0 L 480.1,1321.1 L 480.3,1325.1 L 480.5,1329.1 L 480.7,1333.0 L 480.9,1336.8 L 481.1,1340.5 L 481.2,1344.2 L 481.4,1347.8 L 481.6,1351.3 L 481.7,1354.7 L 481.9,1358.0 L 482.0,1361.3 L 482.2,1364.4 L 482.3,1367.5 L 482.5,1370.4 L 482.6,1373.3 L 482.8,1376.0 L 482.9,1378.6 L 483.0,1381.2 L 483.2,1383.6 L 483.3,1385.9 L 483.4,1388.1 L 483.5,1390.2 L 483.9,1391.9 L 485.0,1393.3 L 486.5,1394.2 L 488.2,1394.5 L 489.9,1394.1 L 491.3,1393.0 L 492.2,1391.5 L 492.5,1389.8 L 492.4,1387.6 L 492.3,1385.4 L 492.1,1383.1 L 492.0,1380.7 L 491.9,1378.2 L 491.8,1375.5 L 491.6,1372.8 L 491.5,1370.0 L 491.3,1367.0 L 491.2,1364.0 L 491.0,1360.8 L 490.9,1357.6 L 490.7,1354.3 L 490.6,1350.9 L 490.4,1347.4 L 490.2,1343.8 L 490.0,1340.1 L 489.9,1336.4 L 489.7,1332.5 L 489.5,1328.6 L 489.3,1324.7 L 489.1,1320.6 L 488.9,1316.5 L 488.7,1312.4 L 488.6,1308.2 L 488.4,1303.9 L 488.2,1299.5 L 487.9,1295.1 L 487.7,1290.7 L 487.5,1286.2 L 487.3,1281.7 L 487.1,1277.1 L 486.9,1272.5 L 486.7,1267.9 L 486.4,1263.2 L 486.2,1258.5 L 486.0,1253.7 L 485.8,1249.0 L 485.5,1244.2 L 485.3,1239.4 L 485.1,1234.5 L 484.8,1229.7 L 484.6,1224.8 L 484.4,1220.0 L 484.1,1215.1 L 483.9,1210.2 L 483.6,1205.3 L 483.4,1200.4 L 483.1,1195.5 L 482.9,1190.7 L 482.6,1185.8 L 482.4,1180.9 L 482.1,1176.1 L 481.9,1171.3 L 481.6,1166.4 L 481.4,1161.7 L 481.1,1156.9 L 480.9,1152.1 L 480.6,1147.4 L 480.3,1142.7 L 480.1,1138.1 L 479.8,1133.5 L 479.6,1128.9 L 479.3,1124.4 L 479.0,1119.9 L 478.8,1115.5 L 478.5,1111.1 L 478.3,1106.7 L 478.0,1102.4 L 477.7,1098.2 L 477.5,1094.0 L 477.2,1089.9 L 476.9,1085.9 L 476.7,1081.9 L 476.4,1078.0 L 476.1,1074.2 L 475.9,1070.4 L 475.6,1066.8 L 475.3,1063.2 L 475.1,1059.6 L 474.8,1056.2 L 474.6,1052.9 L 474.3,1049.6 L 474.0,1046.5 L 473.8,1043.4 L 473.5,1040.5 L 473.2,1037.6 L 473.0,1034.5 L 472.6,1030.9 L 472.0,1025.8 L 471.2,1019.2 L 470.1,1011.5 L 468.9,1003.8 L 467.7,996.6 L 466.3,990.1 L 465.0,984.2 L 463.6,979.0 L 462.2,974.4 L 460.7,970.3 L 459.3,966.7 L 457.8,963.4 L 456.4,960.6 L 455.0,958.1 L 453.6,955.9 L 452.4,953.9 L 451.2,952.2 L 450.1,950.6 L 449.1,949.1 L 448.3,947.8 L 447.5,946.4 L 446.8,944.9 L 446.1,943.3 L 445.2,941.8 L 443.7,940.8 L 442.0,940.5 L 440.3,940.9 L 438.8,941.8 L 437.8,943.3 L 437.5,945.0 L 437.9,946.7 Z" data-label="Small saphenous vein (left)"><title>Small saphenous vein (left)</title></path>
    <path id="pfv-left" d="M 407.7,391.0 L 408.6,393.3 L 409.7,396.4 L 411.2,400.1 L 412.6,403.7 L 413.9,406.8 L 415.1,409.5 L 416.3,412.0 L 417.5,414.6 L 418.8,417.3 L 420.2,420.1 L 421.6,423.0 L 423.0,426.2 L 424.4,429.5 L 425.9,433.0 L 427.4,436.8 L 428.9,440.8 L 430.4,445.2 L 431.9,449.8 L 433.4,454.7 L 434.8,459.9 L 436.1,465.1 L 437.2,469.8 L 438.1,473.8 L 438.8,477.4 L 439.5,480.7 L 440.1,484.1 L 440.8,487.7 L 441.5,491.4 L 442.1,495.3 L 442.8,499.3 L 443.5,503.5 L 444.2,507.7 L 444.9,512.1 L 445.6,516.5 L 446.3,521.0 L 447.0,525.6 L 447.7,530.3 L 448.4,535.0 L 449.1,539.7 L 449.8,544.5 L 450.5,549.3 L 451.2,554.1 L 451.8,558.9 L 452.5,563.7 L 453.2,568.4 L 453.9,573.1 L 454.5,577.8 L 455.2,582.4 L 455.8,587.0 L 456.4,591.5 L 457.0,595.9 L 457.6,600.2 L 458.2,604.4 L 458.7,608.5 L 459.3,612.4 L 459.8,616.2 L 460.3,619.9 L 460.8,623.4 L 461.3,626.7 L 461.7,629.9 L 462.1,632.9 L 462.5,635.7 L 462.9,638.3 L 463.2,640.7 L 463.6,642.9 L 464.4,645.3 L 466.1,647.2 L 468.4,648.3 L 470.9,648.4 L 473.3,647.6 L 475.2,645.9 L 476.3,643.6 L 476.4,641.1 L 476.1,638.8 L 475.7,636.4 L 475.4,633.8 L 475.0,631.1 L 474.6,628.1 L 474.1,625.0 L 473.7,621.6 L 473.2,618.1 L 472.7,614.5 L 472.2,610.6 L 471.6,606.7 L 471.1,602.6 L 470.5,598.4 L 469.9,594.1 L 469.3,589.7 L 468.7,585.2 L 468.0,580.7 L 467.4,576.0 L 466.7,571.3 L 466.1,566.6 L 465.4,561.8 L 464.7,557.0 L 464.0,552.2 L 463.3,547.4 L 462.6,542.6 L 461.9,537.8 L 461.2,533.1 L 460.5,528.4 L 459.8,523.7 L 459.1,519.1 L 458.4,514.5 L 457.7,510.0 L 457.0,505.7 L 456.3,501.4 L 455.6,497.2 L 454.9,493.1 L 454.3,489.2 L 453.6,485.4 L 452.9,481.8 L 452.3,478.2 L 451.6,474.8 L 450.8,471.1 L 449.9,466.9 L 448.7,462.0 L 447.4,456.6 L 445.9,451.2 L 444.3,446.0 L 442.8,441.0 L 441.2,436.4 L 439.6,432.1 L 438.0,428.1 L 436.4,424.4 L 434.9,420.8 L 433.3,417.5 L 431.9,414.5 L 430.5,411.6 L 429.2,408.9 L 428.0,406.4 L 426.9,404.0 L 425.8,401.7 L 424.6,398.9 L 423.3,395.4 L 421.9,391.8 L 420.8,388.8 L 419.9,386.5 Z" data-label="Profunda (deep femoral) vein (left)"><title>Profunda (deep femoral) vein (left)</title></path>
    <path id="per-left" d="M 430.5,980.2 L 432.0,981.3 L 434.4,983.3 L 437.7,985.9 L 441.0,988.5 L 444.0,990.7 L 446.7,992.6 L 449.4,994.4 L 452.3,996.3 L 455.4,998.2 L 458.7,1000.2 L 462.0,1002.3 L 465.5,1004.5 L 469.1,1006.8 L 472.7,1009.1 L 476.4,1011.6 L 480.1,1014.1 L 483.8,1016.6 L 487.5,1019.3 L 491.1,1022.0 L 494.6,1024.7 L 498.0,1027.5 L 501.3,1030.4 L 504.4,1033.3 L 507.3,1036.3 L 510.1,1039.3 L 512.6,1042.3 L 514.9,1045.4 L 516.9,1048.5 L 518.6,1051.5 L 520.1,1054.5 L 521.5,1057.5 L 522.6,1060.4 L 523.6,1063.3 L 524.5,1066.2 L 525.3,1069.1 L 526.0,1072.0 L 526.6,1075.0 L 527.0,1078.0 L 527.4,1081.1 L 527.7,1084.2 L 527.9,1087.5 L 528.1,1090.8 L 528.2,1094.2 L 528.2,1097.8 L 528.2,1101.5 L 528.1,1105.3 L 528.0,1109.3 L 527.9,1113.5 L 527.8,1117.8 L 527.6,1122.4 L 527.4,1127.1 L 527.2,1132.0 L 527.1,1137.2 L 526.9,1142.6 L 526.7,1148.1 L 526.6,1153.4 L 526.5,1158.3 L 526.5,1162.5 L 526.4,1166.0 L 526.3,1169.4 L 526.2,1172.8 L 526.2,1176.2 L 526.0,1179.8 L 525.9,1183.5 L 525.8,1187.3 L 525.7,1191.2 L 525.5,1195.2 L 525.4,1199.3 L 525.2,1203.5 L 525.0,1207.7 L 524.8,1212.0 L 524.6,1216.4 L 524.4,1220.8 L 524.2,1225.3 L 524.0,1229.9 L 523.8,1234.5 L 523.5,1239.1 L 523.3,1243.8 L 523.1,1248.5 L 522.8,1253.2 L 522.6,1258.0 L 522.3,1262.8 L 522.1,1267.5 L 521.8,1272.3 L 521.5,1277.1 L 521.3,1281.9 L 521.0,1286.7 L 520.7,1291.4 L 520.5,1296.2 L 520.2,1300.9 L 519.9,1305.5 L 519.7,1310.2 L 519.4,1314.8 L 519.1,1319.3 L 518.9,1323.9 L 518.6,1328.3 L 518.4,1332.7 L 518.1,1337.0 L 517.9,1341.3 L 517.6,1345.4 L 517.4,1349.5 L 517.1,1353.5 L 516.9,1357.4 L 516.7,1361.3 L 516.5,1365.0 L 516.3,1368.6 L 516.1,1372.1 L 515.9,1375.4 L 515.7,1378.7 L 515.5,1381.8 L 515.3,1384.8 L 515.2,1387.7 L 515.0,1390.4 L 514.9,1392.9 L 514.7,1395.3 L 514.6,1397.6 L 514.5,1399.8 L 514.7,1401.2 L 515.4,1402.3 L 516.5,1403.2 L 517.8,1403.5 L 519.2,1403.3 L 520.3,1402.6 L 521.2,1401.5 L 521.5,1400.2 L 521.6,1398.0 L 521.7,1395.7 L 521.9,1393.3 L 522.0,1390.7 L 522.1,1388.0 L 522.3,1385.2 L 522.5,1382.2 L 522.7,1379.1 L 522.8,1375.8 L 523.0,1372.5 L 523.2,1369.0 L 523.5,1365.4 L 523.7,1361.7 L 523.9,1357.9 L 524.1,1353.9 L 524.4,1349.9 L 524.6,1345.8 L 524.8,1341.7 L 525.1,1337.4 L 525.3,1333.1 L 525.6,1328.7 L 525.9,1324.3 L 526.1,1319.8 L 526.4,1315.2 L 526.7,1310.6 L 526.9,1305.9 L 527.2,1301.3 L 527.5,1296.6 L 527.7,1291.8 L 528.0,1287.1 L 528.3,1282.3 L 528.5,1277.5 L 528.8,1272.7 L 529.0,1267.9 L 529.3,1263.1 L 529.6,1258.4 L 529.8,1253.6 L 530.1,1248.9 L 530.3,1244.2 L 530.5,1239.5 L 530.8,1234.8 L 531.0,1230.2 L 531.2,1225.7 L 531.4,1221.2 L 531.6,1216.7 L 531.8,1212.3 L 532.0,1208.0 L 532.2,1203.7 L 532.3,1199.6 L 532.5,1195.5 L 532.7,1191.5 L 532.8,1187.6 L 532.9,1183.7 L 533.0,1180.0 L 533.1,1176.4 L 533.2,1172.9 L 533.3,1169.5 L 533.4,1166.2 L 533.5,1162.6 L 533.5,1158.4 L 533.6,1153.6 L 533.7,1148.2 L 533.9,1142.8 L 534.0,1137.4 L 534.2,1132.3 L 534.4,1127.4 L 534.6,1122.6 L 534.8,1118.1 L 534.9,1113.7 L 535.0,1109.5 L 535.1,1105.5 L 535.2,1101.6 L 535.2,1097.8 L 535.2,1094.1 L 535.1,1090.5 L 534.9,1087.1 L 534.7,1083.7 L 534.4,1080.3 L 534.0,1077.0 L 533.5,1073.8 L 532.8,1070.6 L 532.1,1067.4 L 531.3,1064.3 L 530.3,1061.1 L 529.2,1058.0 L 527.9,1054.8 L 526.5,1051.5 L 524.8,1048.2 L 522.8,1044.8 L 520.6,1041.4 L 518.1,1038.0 L 515.4,1034.7 L 512.4,1031.5 L 509.3,1028.3 L 506.0,1025.2 L 502.5,1022.2 L 499.0,1019.3 L 495.3,1016.4 L 491.6,1013.6 L 487.8,1010.9 L 484.1,1008.3 L 480.3,1005.7 L 476.5,1003.3 L 472.9,1000.9 L 469.2,998.6 L 465.7,996.4 L 462.4,994.3 L 459.1,992.3 L 456.1,990.4 L 453.3,988.5 L 450.6,986.8 L 448.1,985.1 L 445.3,983.0 L 442.0,980.4 L 438.7,977.8 L 436.4,975.9 L 434.9,974.7 Z" data-label="Peroneal vein (left)"><title>Peroneal vein (left)</title></path>
    <path id="gastroc-left" d="M 436.1,923.1 L 436.1,923.6 L 436.2,926.1 L 436.4,930.8 L 436.5,935.7 L 436.7,939.6 L 436.8,942.8 L 436.9,945.8 L 437.0,948.9 L 437.1,952.3 L 437.2,955.8 L 437.3,959.5 L 437.5,963.4 L 437.6,967.5 L 437.8,971.6 L 437.9,975.9 L 438.1,980.4 L 438.2,984.9 L 438.4,989.5 L 438.5,994.2 L 438.7,998.9 L 438.9,1003.8 L 439.0,1008.6 L 439.2,1013.5 L 439.4,1018.4 L 439.5,1023.4 L 439.7,1028.3 L 439.9,1033.2 L 440.0,1038.1 L 440.2,1042.9 L 440.4,1047.7 L 440.5,1052.4 L 440.7,1057.1 L 440.8,1061.7 L 441.0,1066.1 L 441.1,1070.5 L 441.3,1074.7 L 441.4,1078.8 L 441.6,1082.8 L 441.7,1086.6 L 441.8,1090.2 L 441.9,1093.7 L 442.0,1096.9 L 442.2,1100.0 L 442.3,1102.8 L 442.3,1105.4 L 442.4,1107.8 L 442.5,1110.1 L 442.8,1111.4 L 443.6,1112.6 L 444.8,1113.3 L 446.1,1113.5 L 447.4,1113.2 L 448.6,1112.4 L 449.3,1111.2 L 449.5,1109.9 L 449.4,1107.6 L 449.3,1105.2 L 449.2,1102.5 L 449.1,1099.7 L 449.0,1096.7 L 448.9,1093.4 L 448.8,1090.0 L 448.7,1086.3 L 448.6,1082.5 L 448.4,1078.6 L 448.3,1074.5 L 448.1,1070.2 L 448.0,1065.9 L 447.8,1061.4 L 447.7,1056.8 L 447.5,1052.2 L 447.4,1047.5 L 447.2,1042.7 L 447.0,1037.8 L 446.9,1033.0 L 446.7,1028.0 L 446.5,1023.1 L 446.4,1018.2 L 446.2,1013.3 L 446.0,1008.4 L 445.9,1003.5 L 445.7,998.7 L 445.5,993.9 L 445.4,989.3 L 445.2,984.6 L 445.0,980.1 L 444.9,975.7 L 444.7,971.4 L 444.6,967.2 L 444.5,963.2 L 444.3,959.3 L 444.2,955.6 L 444.1,952.0 L 444.0,948.7 L 443.9,945.5 L 443.8,942.5 L 443.7,939.4 L 443.5,935.4 L 443.3,930.5 L 443.2,925.9 L 443.1,923.3 L 443.1,922.9 Z" data-label="Gastrocnemius vein (left)"><title>Gastrocnemius vein (left)</title></path>
    <path id="sfj-right" d="M 199.7,403.2 L 202.9,402.2 L 205.6,401.5 L 207.7,401.4 L 209.4,402.2 L 211.5,404.7 L 213.3,408.6 L 223.5,404.6 L 220.7,398.8 L 216.2,393.6 L 210.2,390.7 L 204.4,390.6 L 199.9,391.6 L 196.3,392.8 L 194.4,393.8 L 193.1,395.5 L 192.5,397.6 L 192.8,399.7 L 193.8,401.6 L 195.5,402.9 L 197.6,403.5 L 199.7,403.2 Z" data-label="Saphenofemoral junction (right)"><title>Saphenofemoral junction (right)</title></path>
    <path id="gsv-prox-thigh-right" d="M 213.3,408.6 L 214.4,412.4 L 215.0,415.3 L 215.3,417.8 L 215.5,420.4 L 215.7,423.3 L 215.8,426.2 L 216.0,429.3 L 216.1,432.6 L 216.2,436.0 L 216.3,439.5 L 216.4,443.1 L 216.5,446.8 L 216.6,450.7 L 216.6,454.6 L 216.7,458.6 L 216.7,462.7 L 216.7,466.9 L 216.7,471.2 L 216.7,475.5 L 216.7,479.9 L 216.7,484.3 L 216.6,488.8 L 216.6,493.3 L 216.6,497.8 L 216.5,502.3 L 216.5,506.9 L 216.4,511.5 L 216.4,516.1 L 216.3,520.6 L 216.3,525.2 L 216.2,529.7 L 216.1,534.3 L 216.1,538.8 L 216.0,543.2 L 216.0,547.6 L 215.9,552.0 L 215.9,556.3 L 215.8,560.6 L 215.8,564.8 L 215.8,568.9 L 215.8,572.9 L 226.3,573.0 L 226.3,569.0 L 226.3,564.9 L 226.4,560.7 L 226.4,556.4 L 226.5,552.1 L 226.5,547.8 L 226.6,543.4 L 226.7,538.9 L 226.7,534.4 L 226.8,529.9 L 226.9,525.3 L 227.0,520.8 L 227.0,516.2 L 227.1,511.6 L 227.2,507.0 L 227.2,502.5 L 227.3,497.9 L 227.3,493.4 L 227.4,488.8 L 227.4,484.4 L 227.4,479.9 L 227.5,475.5 L 227.5,471.2 L 227.5,466.9 L 227.5,462.7 L 227.5,458.6 L 227.5,454.5 L 227.4,450.5 L 227.4,446.7 L 227.3,442.9 L 227.2,439.2 L 227.1,435.6 L 227.0,432.2 L 226.9,428.9 L 226.7,425.7 L 226.6,422.6 L 226.4,419.7 L 226.2,416.8 L 225.8,413.6 L 225.1,409.7 L 223.5,404.6 Z" data-label="Great saphenous vein (proximal thigh) (right)"><title>Great saphenous vein (proximal thigh) (right)</title></path>
    <path id="gsv-mid-thigh-right" d="M 215.8,572.9 L 215.7,576.9 L 215.7,580.9 L 215.7,584.9 L 215.7,588.9 L 215.7,592.8 L 215.7,596.8 L 215.7,600.8 L 215.7,604.8 L 215.7,608.7 L 215.6,612.7 L 215.6,616.7 L 215.6,620.6 L 215.6,624.6 L 215.6,628.6 L 215.6,632.5 L 215.5,636.5 L 215.5,640.5 L 215.5,644.4 L 215.4,648.4 L 215.4,652.4 L 215.3,656.4 L 215.3,660.3 L 215.3,664.3 L 215.2,668.3 L 215.1,672.2 L 215.1,676.2 L 215.0,680.2 L 214.9,684.1 L 214.8,688.1 L 214.7,692.1 L 214.6,696.0 L 214.5,700.0 L 214.4,704.0 L 214.3,707.9 L 214.2,711.9 L 214.0,715.9 L 213.9,719.9 L 213.8,723.8 L 213.6,727.8 L 213.4,731.8 L 213.2,735.8 L 222.7,736.3 L 222.9,732.2 L 223.1,728.2 L 223.3,724.2 L 223.5,720.3 L 223.7,716.3 L 223.8,712.3 L 224.0,708.3 L 224.1,704.3 L 224.3,700.3 L 224.4,696.3 L 224.5,692.3 L 224.6,688.3 L 224.7,684.4 L 224.8,680.4 L 224.9,676.4 L 225.0,672.4 L 225.1,668.4 L 225.2,664.5 L 225.3,660.5 L 225.3,656.5 L 225.4,652.5 L 225.5,648.5 L 225.5,644.6 L 225.6,640.6 L 225.6,636.6 L 225.7,632.6 L 225.7,628.7 L 225.8,624.7 L 225.8,620.7 L 225.9,616.7 L 225.9,612.8 L 225.9,608.8 L 226.0,604.8 L 226.0,600.8 L 226.0,596.9 L 226.1,592.9 L 226.1,588.9 L 226.1,585.0 L 226.2,581.0 L 226.2,577.0 L 226.3,573.0 Z" data-label="Great saphenous vein (mid thigh) (right)"><title>Great saphenous vein (mid thigh) (right)</title></path>
    <path id="gsv-dist-thigh-right" d="M 213.2,735.8 L 213.1,739.8 L 212.8,743.9 L 212.6,748.0 L 212.4,752.2 L 212.1,756.4 L 211.9,760.6 L 211.6,764.9 L 211.3,769.3 L 211.0,773.6 L 210.7,778.0 L 210.4,782.4 L 210.1,786.8 L 209.8,791.2 L 209.4,795.6 L 209.1,800.1 L 208.7,804.5 L 208.4,808.9 L 208.0,813.3 L 207.7,817.6 L 207.3,822.0 L 207.0,826.3 L 206.6,830.6 L 206.2,834.8 L 205.9,838.9 L 205.3,843.0 L 204.8,847.2 L 204.4,851.3 L 204.1,855.3 L 203.7,859.1 L 203.2,862.9 L 202.6,866.6 L 202.0,870.4 L 201.6,874.2 L 201.3,877.8 L 201.1,881.2 L 200.8,884.5 L 200.6,887.8 L 200.3,890.9 L 200.1,894.2 L 200.0,897.7 L 200.0,901.8 L 208.5,901.8 L 208.5,897.9 L 208.7,894.6 L 208.9,891.5 L 209.1,888.4 L 209.4,885.2 L 209.7,881.9 L 210.0,878.5 L 210.3,875.0 L 210.7,871.5 L 211.2,868.0 L 211.9,864.2 L 212.4,860.2 L 212.8,856.1 L 213.2,852.2 L 213.6,848.2 L 214.2,844.2 L 214.7,839.9 L 215.1,835.6 L 215.5,831.4 L 215.9,827.1 L 216.3,822.8 L 216.7,818.4 L 217.1,814.0 L 217.4,809.6 L 217.8,805.2 L 218.2,800.8 L 218.6,796.4 L 218.9,791.9 L 219.3,787.5 L 219.6,783.1 L 220.0,778.7 L 220.3,774.3 L 220.6,769.9 L 220.9,765.6 L 221.2,761.3 L 221.5,757.0 L 221.8,752.7 L 222.0,748.6 L 222.3,744.4 L 222.5,740.3 L 222.7,736.3 Z" data-label="Great saphenous vein (distal thigh) (right)"><title>Great saphenous vein (distal thigh) (right)</title></path>
    <path id="gsv-knee-right" d="M 200.0,901.8 L 200.0,906.3 L 199.8,910.9 L 199.5,915.0 L 199.2,918.5 L 198.9,921.3 L 198.7,923.7 L 198.4,925.8 L 198.2,927.9 L 198.0,930.2 L 197.8,932.9 L 197.5,936.2 L 197.2,940.2 L 196.9,945.1 L 196.5,950.3 L 196.2,955.4 L 204.2,955.9 L 204.5,950.9 L 204.9,945.6 L 205.3,940.8 L 205.6,936.8 L 205.9,933.6 L 206.2,931.0 L 206.4,928.8 L 206.7,926.7 L 206.9,924.6 L 207.2,922.2 L 207.5,919.3 L 207.8,915.7 L 208.2,911.4 L 208.4,906.5 L 208.5,901.8 Z" data-label="Great saphenous vein (at the knee) (right)"><title>Great saphenous vein (at the knee) (right)</title></path>
    <path id="gsv-calf-right" d="M 196.2,955.4 L 195.9,959.6 L 195.7,963.0 L 195.5,966.0 L 195.3,969.0 L 195.1,972.0 L 195.0,975.0 L 194.8,978.2 L 194.6,981.4 L 194.4,984.7 L 194.2,988.1 L 194.1,991.6 L 193.9,995.1 L 193.7,998.7 L 193.5,1002.3 L 193.3,1006.0 L 193.1,1009.8 L 192.9,1013.6 L 192.7,1017.5 L 192.5,1021.4 L 192.3,1025.4 L 192.1,1029.4 L 191.9,1033.5 L 191.7,1037.7 L 191.4,1041.8 L 191.2,1046.0 L 191.0,1050.3 L 190.7,1054.6 L 190.5,1058.9 L 190.2,1063.3 L 190.0,1067.7 L 189.7,1072.1 L 189.4,1076.5 L 189.2,1081.0 L 188.9,1085.5 L 188.6,1090.0 L 188.3,1094.5 L 188.0,1099.1 L 187.7,1103.6 L 187.3,1108.2 L 187.0,1112.8 L 186.7,1117.4 L 186.3,1122.0 L 186.0,1126.6 L 185.6,1131.2 L 185.2,1135.8 L 184.8,1140.4 L 184.4,1144.8 L 184.1,1149.1 L 183.7,1153.1 L 183.3,1156.9 L 183.0,1160.6 L 182.6,1164.4 L 182.2,1168.3 L 181.8,1172.2 L 181.4,1176.3 L 181.0,1180.4 L 180.6,1184.5 L 180.2,1188.7 L 179.7,1193.0 L 179.3,1197.3 L 178.8,1201.7 L 178.3,1206.1 L 177.9,1210.5 L 177.4,1215.0 L 176.9,1219.5 L 176.4,1224.1 L 175.9,1228.7 L 175.4,1233.2 L 174.8,1237.9 L 174.3,1242.5 L 173.8,1247.1 L 173.3,1251.8 L 172.7,1256.4 L 172.2,1261.1 L 171.7,1265.7 L 171.1,1270.4 L 170.6,1275.0 L 170.1,1279.6 L 169.5,1284.2 L 169.0,1288.8 L 168.5,1293.3 L 168.0,1297.9 L 167.4,1302.4 L 166.9,1306.8 L 166.4,1311.2 L 165.9,1315.6 L 165.4,1319.9 L 164.9,1324.1 L 164.4,1328.4 L 163.9,1332.5 L 163.4,1336.6 L 162.9,1340.6 L 162.5,1344.6 L 162.0,1348.4 L 161.6,1352.2 L 161.1,1355.9 L 160.7,1359.6 L 160.3,1363.1 L 159.9,1366.6 L 159.5,1369.9 L 159.1,1373.2 L 158.7,1376.3 L 158.4,1379.4 L 158.0,1382.3 L 157.7,1385.1 L 157.4,1387.8 L 157.1,1390.4 L 156.8,1392.8 L 156.5,1395.2 L 156.3,1397.4 L 156.0,1399.5 L 156.2,1401.1 L 156.9,1402.5 L 158.1,1403.5 L 159.5,1404.0 L 161.1,1403.8 L 162.5,1403.1 L 163.5,1401.9 L 164.0,1400.5 L 164.2,1398.3 L 164.5,1396.1 L 164.7,1393.8 L 165.0,1391.3 L 165.3,1388.7 L 165.6,1386.0 L 166.0,1383.2 L 166.3,1380.3 L 166.7,1377.3 L 167.0,1374.1 L 167.4,1370.9 L 167.8,1367.5 L 168.2,1364.1 L 168.6,1360.5 L 169.1,1356.9 L 169.5,1353.2 L 169.9,1349.4 L 170.4,1345.5 L 170.9,1341.5 L 171.3,1337.5 L 171.8,1333.4 L 172.3,1329.3 L 172.8,1325.1 L 173.3,1320.8 L 173.8,1316.5 L 174.3,1312.1 L 174.9,1307.7 L 175.4,1303.3 L 175.9,1298.8 L 176.4,1294.3 L 177.0,1289.7 L 177.5,1285.1 L 178.0,1280.5 L 178.6,1275.9 L 179.1,1271.3 L 179.6,1266.7 L 180.2,1262.0 L 180.7,1257.3 L 181.2,1252.7 L 181.7,1248.0 L 182.3,1243.4 L 182.8,1238.8 L 183.3,1234.1 L 183.8,1229.5 L 184.3,1225.0 L 184.8,1220.4 L 185.3,1215.9 L 185.8,1211.4 L 186.3,1206.9 L 186.8,1202.5 L 187.2,1198.1 L 187.7,1193.8 L 188.1,1189.5 L 188.6,1185.3 L 189.0,1181.2 L 189.4,1177.1 L 189.8,1173.0 L 190.2,1169.1 L 190.6,1165.2 L 191.0,1161.4 L 191.3,1157.6 L 191.7,1153.8 L 192.0,1149.8 L 192.4,1145.5 L 192.8,1141.1 L 193.2,1136.5 L 193.6,1131.9 L 193.9,1127.2 L 194.3,1122.6 L 194.6,1118.0 L 195.0,1113.4 L 195.3,1108.8 L 195.6,1104.2 L 196.0,1099.6 L 196.3,1095.1 L 196.6,1090.5 L 196.9,1086.0 L 197.2,1081.5 L 197.4,1077.0 L 197.7,1072.6 L 198.0,1068.1 L 198.2,1063.7 L 198.5,1059.4 L 198.7,1055.0 L 199.0,1050.7 L 199.2,1046.5 L 199.4,1042.3 L 199.7,1038.1 L 199.9,1033.9 L 200.1,1029.9 L 200.3,1025.8 L 200.5,1021.8 L 200.7,1017.9 L 200.9,1014.0 L 201.1,1010.2 L 201.3,1006.4 L 201.5,1002.7 L 201.7,999.1 L 201.9,995.5 L 202.0,992.0 L 202.2,988.5 L 202.4,985.2 L 202.6,981.9 L 202.8,978.6 L 202.9,975.5 L 203.1,972.4 L 203.3,969.4 L 203.5,966.5 L 203.7,963.5 L 203.9,960.1 L 204.2,955.9 Z" data-label="Great saphenous vein (calf) (right)"><title>Great saphenous vein (calf) (right)</title></path>
    <path id="cfv-right" d="M 239.9,281.1 L 238.7,283.0 L 237.5,285.0 L 236.2,287.2 L 234.7,289.5 L 233.1,292.0 L 231.3,294.7 L 229.5,297.5 L 227.5,300.5 L 225.4,303.6 L 223.2,306.8 L 221.0,310.2 L 218.7,313.7 L 216.3,317.3 L 213.9,321.0 L 211.5,324.7 L 209.0,328.6 L 206.6,332.5 L 204.1,336.5 L 201.6,340.6 L 199.2,344.7 L 196.8,348.8 L 194.4,353.0 L 192.0,357.2 L 189.8,361.4 L 187.6,365.7 L 185.5,369.9 L 183.4,374.2 L 181.5,378.5 L 179.7,382.7 L 178.0,386.9 L 176.4,391.1 L 175.0,395.3 L 173.8,399.4 L 190.5,404.4 L 191.7,400.8 L 193.0,397.1 L 194.4,393.4 L 196.0,389.5 L 197.7,385.7 L 199.5,381.8 L 201.4,377.8 L 203.5,373.8 L 205.6,369.9 L 207.8,365.9 L 210.0,361.9 L 212.3,357.9 L 214.7,353.9 L 217.1,350.0 L 219.5,346.1 L 222.0,342.2 L 224.4,338.4 L 226.9,334.7 L 229.3,331.0 L 231.7,327.4 L 234.0,323.9 L 236.4,320.5 L 238.6,317.2 L 240.8,314.0 L 242.9,310.9 L 245.0,307.9 L 246.9,305.1 L 248.7,302.4 L 250.5,299.8 L 252.1,297.4 L 253.5,295.1 L 254.9,292.9 L 256.1,290.9 L 257.4,287.4 L 257.2,283.7 L 255.7,280.4 L 252.9,277.9 L 249.4,276.6 L 245.7,276.8 L 242.4,278.3 L 239.9,281.1 Z" data-label="Common femoral vein (right)"><title>Common femoral vein (right)</title></path>
    <path id="fv-prox-right" d="M 173.8,399.4 L 172.7,403.4 L 171.7,407.3 L 170.9,411.3 L 170.1,415.2 L 169.4,419.1 L 168.8,423.1 L 168.3,427.1 L 167.8,431.1 L 167.4,435.1 L 167.1,439.1 L 166.8,443.2 L 166.6,447.2 L 166.5,451.3 L 166.3,455.3 L 166.2,459.4 L 166.2,463.5 L 166.2,467.5 L 166.2,471.6 L 166.2,475.7 L 166.2,479.7 L 166.3,483.8 L 166.4,487.9 L 166.4,491.9 L 166.5,496.0 L 166.6,500.0 L 166.7,504.0 L 166.7,508.1 L 166.8,512.1 L 166.8,516.0 L 166.8,520.0 L 166.8,524.0 L 166.8,527.9 L 166.7,531.8 L 166.6,535.7 L 166.5,539.7 L 181.5,540.3 L 181.7,536.3 L 181.8,532.3 L 182.0,528.3 L 182.1,524.2 L 182.2,520.1 L 182.2,516.1 L 182.3,512.0 L 182.3,508.0 L 182.3,503.9 L 182.3,499.8 L 182.3,495.8 L 182.3,491.8 L 182.3,487.7 L 182.3,483.7 L 182.3,479.7 L 182.3,475.7 L 182.4,471.7 L 182.4,467.7 L 182.5,463.8 L 182.7,459.8 L 182.8,455.9 L 183.0,452.0 L 183.2,448.2 L 183.5,444.3 L 183.8,440.5 L 184.2,436.8 L 184.7,433.0 L 185.1,429.3 L 185.7,425.7 L 186.3,422.0 L 187.0,418.4 L 187.8,414.9 L 188.6,411.4 L 189.5,407.9 L 190.5,404.4 Z" data-label="Femoral vein (proximal) (right)"><title>Femoral vein (proximal) (right)</title></path>
    <path id="fv-mid-right" d="M 166.5,539.7 L 166.3,543.6 L 166.2,547.5 L 166.0,551.5 L 165.8,555.4 L 165.7,559.4 L 165.5,563.4 L 165.3,567.3 L 165.2,571.3 L 165.0,575.2 L 164.9,579.2 L 164.7,583.2 L 164.6,587.1 L 164.4,591.1 L 164.3,595.1 L 164.1,599.0 L 164.0,603.0 L 163.8,607.0 L 163.7,610.9 L 163.5,614.9 L 163.4,618.8 L 163.3,622.8 L 163.1,626.7 L 163.0,630.7 L 162.9,634.6 L 162.7,638.6 L 162.6,642.5 L 162.5,646.5 L 162.3,650.4 L 162.2,654.3 L 162.1,658.2 L 162.0,662.1 L 161.9,666.1 L 161.7,670.0 L 161.6,673.9 L 161.5,677.8 L 174.5,678.3 L 174.7,674.4 L 174.8,670.5 L 175.0,666.6 L 175.2,662.7 L 175.4,658.7 L 175.6,654.8 L 175.7,650.9 L 175.9,647.0 L 176.1,643.1 L 176.3,639.1 L 176.5,635.2 L 176.7,631.3 L 176.9,627.3 L 177.1,623.4 L 177.3,619.4 L 177.4,615.5 L 177.6,611.5 L 177.8,607.6 L 178.0,603.6 L 178.2,599.7 L 178.5,595.7 L 178.7,591.8 L 178.9,587.8 L 179.1,583.8 L 179.3,579.9 L 179.5,575.9 L 179.7,572.0 L 179.9,568.0 L 180.2,564.1 L 180.4,560.1 L 180.6,556.2 L 180.8,552.2 L 181.0,548.3 L 181.3,544.3 L 181.5,540.3 Z" data-label="Femoral vein (mid) (right)"><title>Femoral vein (mid) (right)</title></path>
    <path id="fv-dist-right" d="M 161.5,677.8 L 161.4,681.8 L 161.2,685.8 L 161.1,689.9 L 160.9,693.9 L 160.8,698.0 L 160.7,702.0 L 160.6,706.1 L 160.4,710.2 L 160.3,714.3 L 160.2,718.4 L 160.1,722.4 L 159.9,726.5 L 159.8,730.6 L 159.7,734.7 L 159.6,738.7 L 159.5,742.8 L 159.4,746.8 L 159.3,750.8 L 159.2,754.8 L 159.1,758.8 L 158.9,762.8 L 158.8,766.7 L 158.7,770.7 L 158.6,774.6 L 158.5,778.4 L 158.4,782.3 L 158.3,786.1 L 158.2,789.9 L 158.1,793.6 L 158.0,797.3 L 157.8,801.0 L 157.7,804.6 L 157.6,808.4 L 157.5,812.2 L 170.5,812.7 L 170.6,808.8 L 170.7,805.1 L 170.8,801.4 L 171.0,797.7 L 171.1,794.0 L 171.2,790.2 L 171.3,786.5 L 171.4,782.6 L 171.5,778.8 L 171.6,774.9 L 171.7,771.0 L 171.8,767.1 L 171.9,763.1 L 172.0,759.2 L 172.2,755.2 L 172.3,751.2 L 172.4,747.2 L 172.5,743.1 L 172.6,739.1 L 172.7,735.0 L 172.8,731.0 L 172.9,726.9 L 173.1,722.8 L 173.2,718.8 L 173.3,714.7 L 173.4,710.6 L 173.5,706.5 L 173.7,702.5 L 173.8,698.4 L 173.9,694.3 L 174.1,690.3 L 174.2,686.3 L 174.4,682.3 L 174.5,678.3 Z" data-label="Femoral vein (distal) (right)"><title>Femoral vein (distal) (right)</title></path>
    <path id="pop-ak-right" d="M 157.5,812.2 L 157.3,816.4 L 157.2,820.6 L 157.0,825.0 L 156.9,829.3 L 156.7,833.6 L 156.5,837.9 L 156.4,842.2 L 156.2,846.4 L 156.0,850.6 L 155.8,854.7 L 155.7,858.8 L 155.5,862.9 L 155.3,866.9 L 155.2,870.9 L 155.0,874.8 L 154.8,878.7 L 154.7,882.5 L 154.5,886.3 L 154.4,890.0 L 154.2,893.7 L 154.1,897.3 L 153.9,900.8 L 153.8,904.3 L 153.6,907.8 L 153.5,911.2 L 153.4,914.8 L 153.2,918.6 L 166.7,919.1 L 166.8,915.3 L 167.0,911.7 L 167.1,908.3 L 167.2,904.8 L 167.3,901.4 L 167.4,897.8 L 167.6,894.2 L 167.7,890.5 L 167.8,886.8 L 168.0,883.0 L 168.1,879.2 L 168.3,875.3 L 168.4,871.4 L 168.6,867.4 L 168.7,863.4 L 168.9,859.3 L 169.0,855.2 L 169.2,851.1 L 169.3,846.9 L 169.5,842.7 L 169.6,838.4 L 169.8,834.1 L 169.9,829.8 L 170.1,825.4 L 170.2,821.1 L 170.3,816.8 L 170.5,812.7 Z" data-label="Popliteal vein (above knee) (right)"><title>Popliteal vein (above knee) (right)</title></path>
    <path id="pop-bk-right" d="M 153.2,918.6 L 153.1,922.7 L 153.0,927.1 L 152.9,931.5 L 152.7,935.7 L 152.6,939.7 L 152.4,943.7 L 152.2,947.5 L 152.1,951.2 L 152.0,954.9 L 151.9,958.5 L 151.9,962.2 L 151.9,965.9 L 152.0,969.6 L 152.1,973.4 L 152.4,977.3 L 152.7,981.3 L 153.1,985.3 L 163.1,984.4 L 162.9,980.6 L 162.8,976.9 L 162.8,973.2 L 162.8,969.6 L 162.9,966.0 L 163.1,962.5 L 163.3,959.0 L 163.6,955.5 L 163.9,951.9 L 164.3,948.3 L 164.6,944.5 L 165.0,940.6 L 165.4,936.5 L 165.7,932.2 L 166.1,927.8 L 166.4,923.4 L 166.7,919.1 Z" data-label="Popliteal vein (below knee) (right)"><title>Popliteal vein (below knee) (right)</title></path>
    <path id="ptv-right" d="M 153.1,985.3 L 153.5,989.3 L 154.0,993.2 L 154.7,997.1 L 155.4,1000.9 L 156.1,1004.8 L 157.0,1008.6 L 157.8,1012.5 L 158.7,1016.4 L 159.7,1020.3 L 160.6,1024.2 L 161.5,1028.1 L 162.4,1032.0 L 163.3,1036.0 L 164.1,1040.0 L 164.9,1044.0 L 165.6,1048.0 L 166.2,1052.1 L 166.8,1056.1 L 167.2,1060.0 L 167.6,1063.6 L 167.9,1067.0 L 168.2,1070.1 L 168.5,1073.1 L 168.8,1076.0 L 169.1,1078.8 L 169.4,1081.5 L 169.6,1084.3 L 169.8,1087.0 L 170.0,1089.9 L 170.1,1092.8 L 170.2,1095.9 L 170.2,1099.2 L 170.2,1102.7 L 170.2,1106.5 L 170.1,1110.5 L 169.9,1114.9 L 169.7,1119.7 L 169.4,1124.8 L 169.1,1130.4 L 168.7,1136.3 L 168.2,1142.2 L 167.8,1147.4 L 167.4,1151.7 L 167.1,1155.2 L 166.8,1158.4 L 166.5,1161.6 L 166.2,1164.9 L 165.9,1168.3 L 165.5,1171.8 L 165.2,1175.4 L 164.8,1179.1 L 164.4,1183.0 L 163.9,1186.9 L 163.5,1190.9 L 163.1,1195.0 L 162.6,1199.2 L 162.1,1203.5 L 161.6,1207.8 L 161.1,1212.2 L 160.6,1216.6 L 160.1,1221.1 L 159.6,1225.7 L 159.0,1230.3 L 158.5,1234.9 L 157.9,1239.6 L 157.4,1244.3 L 156.8,1249.1 L 156.3,1253.8 L 155.7,1258.6 L 155.1,1263.4 L 154.5,1268.2 L 154.0,1272.9 L 153.4,1277.7 L 152.8,1282.5 L 152.2,1287.3 L 151.6,1292.0 L 151.1,1296.7 L 150.5,1301.4 L 149.9,1306.1 L 149.3,1310.7 L 148.8,1315.3 L 148.2,1319.8 L 147.7,1324.3 L 147.1,1328.7 L 146.6,1333.1 L 146.1,1337.4 L 145.5,1341.6 L 145.0,1345.7 L 144.5,1349.8 L 144.0,1353.7 L 143.6,1357.6 L 143.1,1361.4 L 142.7,1365.1 L 142.2,1368.6 L 141.8,1372.1 L 141.4,1375.4 L 141.0,1378.6 L 140.6,1381.7 L 140.3,1384.7 L 139.9,1387.5 L 139.6,1390.2 L 139.3,1392.7 L 139.0,1395.1 L 138.8,1397.4 L 138.5,1399.6 L 138.6,1400.9 L 139.2,1402.2 L 140.3,1403.0 L 141.6,1403.5 L 142.9,1403.4 L 144.2,1402.8 L 145.0,1401.7 L 145.5,1400.4 L 145.8,1398.2 L 146.0,1396.0 L 146.3,1393.6 L 146.7,1391.1 L 147.0,1388.4 L 147.4,1385.6 L 147.8,1382.6 L 148.2,1379.5 L 148.6,1376.3 L 149.0,1373.0 L 149.5,1369.6 L 149.9,1366.0 L 150.4,1362.3 L 150.9,1358.5 L 151.4,1354.7 L 151.9,1350.7 L 152.5,1346.7 L 153.0,1342.5 L 153.5,1338.3 L 154.1,1334.0 L 154.7,1329.7 L 155.2,1325.3 L 155.8,1320.8 L 156.4,1316.3 L 157.0,1311.7 L 157.6,1307.1 L 158.2,1302.4 L 158.8,1297.7 L 159.4,1293.0 L 160.0,1288.3 L 160.6,1283.5 L 161.2,1278.7 L 161.8,1273.9 L 162.4,1269.1 L 163.0,1264.3 L 163.6,1259.6 L 164.2,1254.8 L 164.8,1250.0 L 165.4,1245.3 L 166.0,1240.6 L 166.6,1235.9 L 167.2,1231.3 L 167.7,1226.7 L 168.3,1222.1 L 168.8,1217.6 L 169.4,1213.1 L 169.9,1208.7 L 170.4,1204.4 L 170.9,1200.2 L 171.4,1196.0 L 171.9,1191.9 L 172.4,1187.8 L 172.8,1183.9 L 173.3,1180.1 L 173.7,1176.3 L 174.1,1172.7 L 174.5,1169.2 L 174.8,1165.7 L 175.2,1162.4 L 175.5,1159.3 L 175.8,1156.0 L 176.2,1152.5 L 176.6,1148.2 L 177.0,1142.9 L 177.5,1137.0 L 177.9,1131.0 L 178.3,1125.4 L 178.7,1120.1 L 178.9,1115.3 L 179.1,1110.8 L 179.2,1106.7 L 179.3,1102.8 L 179.3,1099.2 L 179.3,1095.7 L 179.2,1092.5 L 179.1,1089.4 L 179.0,1086.5 L 178.8,1083.6 L 178.6,1080.8 L 178.4,1077.9 L 178.1,1075.1 L 177.8,1072.2 L 177.6,1069.2 L 177.3,1066.1 L 177.0,1062.7 L 176.6,1059.0 L 176.2,1055.0 L 175.7,1050.8 L 175.0,1046.5 L 174.3,1042.3 L 173.6,1038.1 L 172.7,1034.0 L 171.9,1029.9 L 171.0,1025.9 L 170.1,1021.9 L 169.2,1018.0 L 168.3,1014.2 L 167.4,1010.3 L 166.6,1006.6 L 165.8,1002.8 L 165.1,999.1 L 164.4,995.4 L 163.9,991.8 L 163.4,988.1 L 163.1,984.4 Z" data-label="Posterior tibial vein (right)"><title>Posterior tibial vein (right)</title></path>
    <path id="sfj-left" d="M 403.7,392.8 L 400.1,391.6 L 395.6,390.6 L 389.8,390.7 L 383.8,393.6 L 379.3,398.8 L 376.5,404.6 L 386.7,408.6 L 388.5,404.7 L 390.6,402.2 L 392.3,401.4 L 394.4,401.5 L 397.1,402.2 L 400.3,403.2 L 402.4,403.5 L 404.5,402.9 L 406.2,401.6 L 407.2,399.7 L 407.5,397.6 L 406.9,395.5 L 405.6,393.8 L 403.7,392.8 Z" data-label="Saphenofemoral junction (left)"><title>Saphenofemoral junction (left)</title></path>
    <path id="gsv-prox-thigh-left" d="M 376.5,404.6 L 374.9,409.7 L 374.2,413.6 L 373.8,416.8 L 373.6,419.7 L 373.4,422.6 L 373.3,425.7 L 373.1,428.9 L 373.0,432.2 L 372.9,435.6 L 372.8,439.2 L 372.7,442.9 L 372.6,446.7 L 372.6,450.5 L 372.5,454.5 L 372.5,458.6 L 372.5,462.7 L 372.5,466.9 L 372.5,471.2 L 372.5,475.5 L 372.6,479.9 L 372.6,484.4 L 372.6,488.8 L 372.7,493.4 L 372.7,497.9 L 372.8,502.5 L 372.8,507.0 L 372.9,511.6 L 373.0,516.2 L 373.0,520.8 L 373.1,525.3 L 373.2,529.9 L 373.3,534.4 L 373.3,538.9 L 373.4,543.4 L 373.5,547.8 L 373.5,552.1 L 373.6,556.4 L 373.6,560.7 L 373.7,564.9 L 373.7,569.0 L 373.7,573.0 L 384.2,572.9 L 384.2,568.9 L 384.2,564.8 L 384.2,560.6 L 384.1,556.3 L 384.1,552.0 L 384.0,547.6 L 384.0,543.2 L 383.9,538.8 L 383.9,534.3 L 383.8,529.7 L 383.7,525.2 L 383.7,520.6 L 383.6,516.1 L 383.6,511.5 L 383.5,506.9 L 383.5,502.3 L 383.4,497.8 L 383.4,493.3 L 383.4,488.8 L 383.3,484.3 L 383.3,479.9 L 383.3,475.5 L 383.3,471.2 L 383.3,466.9 L 383.3,462.7 L 383.3,458.6 L 383.4,454.6 L 383.4,450.7 L 383.5,446.8 L 383.6,443.1 L 383.7,439.5 L 383.8,436.0 L 383.9,432.6 L 384.0,429.3 L 384.2,426.2 L 384.3,423.3 L 384.5,420.4 L 384.7,417.8 L 385.0,415.3 L 385.6,412.4 L 386.7,408.6 Z" data-label="Great saphenous vein (proximal thigh) (left)"><title>Great saphenous vein (proximal thigh) (left)</title></path>
    <path id="gsv-mid-thigh-left" d="M 373.7,573.0 L 373.8,577.0 L 373.8,581.0 L 373.9,585.0 L 373.9,588.9 L 373.9,592.9 L 374.0,596.9 L 374.0,600.8 L 374.0,604.8 L 374.1,608.8 L 374.1,612.8 L 374.1,616.7 L 374.2,620.7 L 374.2,624.7 L 374.3,628.7 L 374.3,632.6 L 374.4,636.6 L 374.4,640.6 L 374.5,644.6 L 374.5,648.5 L 374.6,652.5 L 374.7,656.5 L 374.7,660.5 L 374.8,664.5 L 374.9,668.4 L 375.0,672.4 L 375.1,676.4 L 375.2,680.4 L 375.3,684.4 L 375.4,688.3 L 375.5,692.3 L 375.6,696.3 L 375.7,700.3 L 375.9,704.3 L 376.0,708.3 L 376.2,712.3 L 376.3,716.3 L 376.5,720.3 L 376.7,724.2 L 376.9,728.2 L 377.1,732.2 L 377.3,736.3 L 386.8,735.8 L 386.6,731.8 L 386.4,727.8 L 386.2,723.8 L 386.1,719.9 L 386.0,715.9 L 385.8,711.9 L 385.7,707.9 L 385.6,704.0 L 385.5,700.0 L 385.4,696.0 L 385.3,692.1 L 385.2,688.1 L 385.1,684.1 L 385.0,680.2 L 384.9,676.2 L 384.9,672.2 L 384.8,668.3 L 384.7,664.3 L 384.7,660.3 L 384.7,656.4 L 384.6,652.4 L 384.6,648.4 L 384.5,644.4 L 384.5,640.5 L 384.5,636.5 L 384.4,632.5 L 384.4,628.6 L 384.4,624.6 L 384.4,620.6 L 384.4,616.7 L 384.4,612.7 L 384.3,608.7 L 384.3,604.8 L 384.3,600.8 L 384.3,596.8 L 384.3,592.8 L 384.3,588.9 L 384.3,584.9 L 384.3,580.9 L 384.3,576.9 L 384.2,572.9 Z" data-label="Great saphenous vein (mid thigh) (left)"><title>Great saphenous vein (mid thigh) (left)</title></path>
    <path id="gsv-dist-thigh-left" d="M 377.3,736.3 L 377.5,740.3 L 377.7,744.4 L 378.0,748.6 L 378.2,752.7 L 378.5,757.0 L 378.8,761.3 L 379.1,765.6 L 379.4,769.9 L 379.7,774.3 L 380.0,778.7 L 380.4,783.1 L 380.7,787.5 L 381.1,791.9 L 381.4,796.4 L 381.8,800.8 L 382.2,805.2 L 382.6,809.6 L 382.9,814.0 L 383.3,818.4 L 383.7,822.8 L 384.1,827.1 L 384.5,831.4 L 384.9,835.6 L 385.2,839.8 L 385.6,844.0 L 386.0,848.1 L 386.4,852.1 L 386.7,856.1 L 387.1,860.1 L 387.4,863.9 L 387.8,867.7 L 388.1,871.4 L 388.5,875.0 L 388.8,878.5 L 389.1,881.9 L 389.4,885.2 L 389.7,888.5 L 390.0,891.6 L 390.3,894.7 L 390.6,898.2 L 390.9,902.2 L 399.4,901.5 L 399.1,897.4 L 398.8,894.0 L 398.5,890.9 L 398.3,887.7 L 398.0,884.5 L 397.7,881.2 L 397.4,877.7 L 397.1,874.2 L 396.8,870.6 L 396.5,866.9 L 396.2,863.1 L 395.9,859.3 L 395.5,855.3 L 395.2,851.4 L 394.8,847.3 L 394.5,843.2 L 394.1,839.0 L 393.8,834.8 L 393.4,830.6 L 393.0,826.3 L 392.7,822.0 L 392.3,817.6 L 392.0,813.3 L 391.6,808.9 L 391.3,804.5 L 390.9,800.1 L 390.6,795.6 L 390.2,791.2 L 389.9,786.8 L 389.6,782.4 L 389.3,778.0 L 389.0,773.6 L 388.7,769.3 L 388.4,764.9 L 388.1,760.6 L 387.9,756.4 L 387.6,752.2 L 387.4,748.0 L 387.2,743.9 L 386.9,739.8 L 386.8,735.8 Z" data-label="Great saphenous vein (distal thigh) (left)"><title>Great saphenous vein (distal thigh) (left)</title></path>
    <path id="gsv-knee-left" d="M 390.9,902.2 L 391.3,906.8 L 391.8,911.5 L 392.2,915.8 L 392.5,919.3 L 392.8,922.2 L 393.1,924.6 L 393.3,926.7 L 393.6,928.8 L 393.8,931.0 L 394.1,933.6 L 394.4,936.8 L 394.7,940.8 L 395.1,945.6 L 395.5,950.9 L 395.8,955.9 L 403.8,955.4 L 403.5,950.3 L 403.1,945.1 L 402.8,940.2 L 402.5,936.2 L 402.2,932.9 L 402.0,930.2 L 401.8,927.9 L 401.6,925.8 L 401.3,923.7 L 401.1,921.3 L 400.8,918.5 L 400.5,915.0 L 400.2,910.7 L 399.8,906.0 L 399.4,901.5 Z" data-label="Great saphenous vein (at the knee) (left)"><title>Great saphenous vein (at the knee) (left)</title></path>
    <path id="gsv-calf-left" d="M 395.8,955.9 L 396.1,960.1 L 396.3,963.5 L 396.5,966.5 L 396.7,969.4 L 396.9,972.4 L 397.1,975.5 L 397.2,978.6 L 397.4,981.9 L 397.6,985.2 L 397.8,988.5 L 398.0,992.0 L 398.1,995.5 L 398.3,999.1 L 398.5,1002.7 L 398.7,1006.4 L 398.9,1010.2 L 399.1,1014.0 L 399.3,1017.9 L 399.5,1021.8 L 399.7,1025.8 L 399.9,1029.9 L 400.1,1033.9 L 400.3,1038.1 L 400.6,1042.3 L 400.8,1046.5 L 401.0,1050.7 L 401.3,1055.0 L 401.5,1059.4 L 401.8,1063.7 L 402.0,1068.1 L 402.3,1072.6 L 402.6,1077.0 L 402.8,1081.5 L 403.1,1086.0 L 403.4,1090.5 L 403.7,1095.1 L 404.0,1099.6 L 404.4,1104.2 L 404.7,1108.8 L 405.0,1113.4 L 405.4,1118.0 L 405.7,1122.6 L 406.1,1127.2 L 406.4,1131.9 L 406.8,1136.5 L 407.2,1141.1 L 407.6,1145.5 L 408.0,1149.8 L 408.3,1153.8 L 408.7,1157.6 L 409.0,1161.4 L 409.4,1165.2 L 409.8,1169.1 L 410.2,1173.0 L 410.6,1177.1 L 411.0,1181.2 L 411.4,1185.3 L 411.9,1189.5 L 412.3,1193.8 L 412.8,1198.1 L 413.2,1202.5 L 413.7,1206.9 L 414.2,1211.4 L 414.7,1215.9 L 415.2,1220.4 L 415.7,1225.0 L 416.2,1229.5 L 416.7,1234.1 L 417.2,1238.8 L 417.7,1243.4 L 418.3,1248.0 L 418.8,1252.7 L 419.3,1257.3 L 419.8,1262.0 L 420.4,1266.7 L 420.9,1271.3 L 421.4,1275.9 L 422.0,1280.5 L 422.5,1285.1 L 423.0,1289.7 L 423.6,1294.3 L 424.1,1298.8 L 424.6,1303.3 L 425.1,1307.7 L 425.7,1312.1 L 426.2,1316.5 L 426.7,1320.8 L 427.2,1325.1 L 427.7,1329.3 L 428.2,1333.4 L 428.7,1337.5 L 429.1,1341.5 L 429.6,1345.5 L 430.1,1349.4 L 430.5,1353.2 L 430.9,1356.9 L 431.4,1360.5 L 431.8,1364.1 L 432.2,1367.5 L 432.6,1370.9 L 433.0,1374.1 L 433.3,1377.3 L 433.7,1380.3 L 434.0,1383.2 L 434.4,1386.0 L 434.7,1388.7 L 435.0,1391.3 L 435.3,1393.8 L 435.5,1396.1 L 435.8,1398.3 L 436.0,1400.5 L 436.5,1401.9 L 437.5,1403.1 L 438.9,1403.8 L 440.5,1404.0 L 441.9,1403.5 L 443.1,1402.5 L 443.8,1401.1 L 444.0,1399.5 L 443.7,1397.4 L 443.5,1395.2 L 443.2,1392.8 L 442.9,1390.4 L 442.6,1387.8 L 442.3,1385.1 L 442.0,1382.3 L 441.6,1379.4 L 441.3,1376.3 L 440.9,1373.2 L 440.5,1369.9 L 440.1,1366.6 L 439.7,1363.1 L 439.3,1359.6 L 438.9,1355.9 L 438.4,1352.2 L 438.0,1348.4 L 437.5,1344.6 L 437.1,1340.6 L 436.6,1336.6 L 436.1,1332.5 L 435.6,1328.4 L 435.1,1324.1 L 434.6,1319.9 L 434.1,1315.6 L 433.6,1311.2 L 433.1,1306.8 L 432.6,1302.4 L 432.0,1297.9 L 431.5,1293.3 L 431.0,1288.8 L 430.5,1284.2 L 429.9,1279.6 L 429.4,1275.0 L 428.9,1270.4 L 428.3,1265.7 L 427.8,1261.1 L 427.3,1256.4 L 426.7,1251.8 L 426.2,1247.1 L 425.7,1242.5 L 425.2,1237.9 L 424.6,1233.2 L 424.1,1228.7 L 423.6,1224.1 L 423.1,1219.5 L 422.6,1215.0 L 422.1,1210.5 L 421.7,1206.1 L 421.2,1201.7 L 420.7,1197.3 L 420.3,1193.0 L 419.8,1188.7 L 419.4,1184.5 L 419.0,1180.4 L 418.6,1176.3 L 418.2,1172.2 L 417.8,1168.3 L 417.4,1164.4 L 417.0,1160.6 L 416.7,1156.9 L 416.3,1153.1 L 415.9,1149.1 L 415.6,1144.8 L 415.2,1140.4 L 414.8,1135.8 L 414.4,1131.2 L 414.0,1126.6 L 413.7,1122.0 L 413.3,1117.4 L 413.0,1112.8 L 412.7,1108.2 L 412.3,1103.6 L 412.0,1099.1 L 411.7,1094.5 L 411.4,1090.0 L 411.1,1085.5 L 410.8,1081.0 L 410.6,1076.5 L 410.3,1072.1 L 410.0,1067.7 L 409.8,1063.3 L 409.5,1058.9 L 409.3,1054.6 L 409.0,1050.3 L 408.8,1046.0 L 408.6,1041.8 L 408.3,1037.7 L 408.1,1033.5 L 407.9,1029.4 L 407.7,1025.4 L 407.5,1021.4 L 407.3,1017.5 L 407.1,1013.6 L 406.9,1009.8 L 406.7,1006.0 L 406.5,1002.3 L 406.3,998.7 L 406.1,995.1 L 405.9,991.6 L 405.8,988.1 L 405.6,984.7 L 405.4,981.4 L 405.2,978.2 L 405.0,975.0 L 404.9,972.0 L 404.7,969.0 L 404.5,966.0 L 404.3,963.0 L 404.1,959.6 L 403.8,955.4 Z" data-label="Great saphenous vein (calf) (left)"><title>Great saphenous vein (calf) (left)</title></path>
    <path id="cfv-left" d="M 343.9,290.9 L 345.1,292.9 L 346.5,295.1 L 347.9,297.4 L 349.5,299.8 L 351.3,302.4 L 353.1,305.1 L 355.0,307.9 L 357.1,310.9 L 359.2,314.0 L 361.4,317.2 L 363.6,320.5 L 366.0,323.9 L 368.3,327.4 L 370.7,331.0 L 373.1,334.7 L 375.6,338.4 L 378.0,342.2 L 380.5,346.1 L 382.9,350.0 L 385.3,353.9 L 387.7,357.9 L 390.0,361.9 L 392.2,365.9 L 394.4,369.9 L 396.5,373.8 L 398.6,377.8 L 400.5,381.8 L 402.3,385.7 L 404.0,389.5 L 405.6,393.4 L 407.0,397.1 L 408.3,400.8 L 409.5,404.4 L 426.2,399.4 L 425.0,395.3 L 423.6,391.1 L 422.0,386.9 L 420.3,382.7 L 418.5,378.5 L 416.6,374.2 L 414.5,369.9 L 412.4,365.7 L 410.2,361.4 L 408.0,357.2 L 405.6,353.0 L 403.2,348.8 L 400.8,344.7 L 398.4,340.6 L 395.9,336.5 L 393.4,332.5 L 391.0,328.6 L 388.5,324.7 L 386.1,321.0 L 383.7,317.3 L 381.3,313.7 L 379.0,310.2 L 376.8,306.8 L 374.6,303.6 L 372.5,300.5 L 370.5,297.5 L 368.7,294.7 L 366.9,292.0 L 365.3,289.5 L 363.8,287.2 L 362.5,285.0 L 361.3,283.0 L 360.1,281.1 L 357.6,278.3 L 354.3,276.8 L 350.6,276.6 L 347.1,277.9 L 344.3,280.4 L 342.8,283.7 L 342.6,287.4 L 343.9,290.9 Z" data-label="Common femoral vein (left)"><title>Common femoral vein (left)</title></path>
    <path id="fv-prox-left" d="M 409.5,404.4 L 410.5,407.9 L 411.4,411.4 L 412.2,414.9 L 413.0,418.4 L 413.7,422.0 L 414.3,425.7 L 414.9,429.3 L 415.3,433.0 L 415.8,436.8 L 416.2,440.5 L 416.5,444.3 L 416.8,448.2 L 417.0,452.0 L 417.2,455.9 L 417.3,459.8 L 417.5,463.8 L 417.6,467.7 L 417.6,471.7 L 417.7,475.7 L 417.7,479.7 L 417.7,483.7 L 417.7,487.7 L 417.7,491.8 L 417.7,495.8 L 417.7,499.8 L 417.7,503.9 L 417.7,508.0 L 417.7,512.0 L 417.8,516.1 L 417.8,520.1 L 417.9,524.2 L 418.0,528.3 L 418.2,532.3 L 418.3,536.3 L 418.5,540.3 L 433.5,539.7 L 433.4,535.7 L 433.3,531.8 L 433.2,527.9 L 433.2,524.0 L 433.2,520.0 L 433.2,516.0 L 433.2,512.1 L 433.3,508.1 L 433.3,504.0 L 433.4,500.0 L 433.5,496.0 L 433.6,491.9 L 433.6,487.9 L 433.7,483.8 L 433.8,479.7 L 433.8,475.7 L 433.8,471.6 L 433.8,467.5 L 433.8,463.5 L 433.8,459.4 L 433.7,455.3 L 433.5,451.3 L 433.4,447.2 L 433.2,443.2 L 432.9,439.1 L 432.6,435.1 L 432.2,431.1 L 431.7,427.1 L 431.2,423.1 L 430.6,419.1 L 429.9,415.2 L 429.1,411.3 L 428.3,407.3 L 427.3,403.4 L 426.2,399.4 Z" data-label="Femoral vein (proximal) (left)"><title>Femoral vein (proximal) (left)</title></path>
    <path id="fv-mid-left" d="M 418.5,540.3 L 418.7,544.3 L 419.0,548.3 L 419.2,552.2 L 419.4,556.2 L 419.6,560.1 L 419.8,564.1 L 420.1,568.0 L 420.3,572.0 L 420.5,575.9 L 420.7,579.9 L 420.9,583.8 L 421.1,587.8 L 421.3,591.8 L 421.5,595.7 L 421.8,599.7 L 422.0,603.6 L 422.2,607.6 L 422.4,611.5 L 422.6,615.5 L 422.7,619.4 L 422.9,623.4 L 423.1,627.3 L 423.3,631.3 L 423.5,635.2 L 423.7,639.1 L 423.9,643.1 L 424.1,647.0 L 424.3,650.9 L 424.4,654.8 L 424.6,658.7 L 424.8,662.7 L 425.0,666.6 L 425.2,670.5 L 425.3,674.4 L 425.5,678.3 L 438.5,677.8 L 438.4,673.9 L 438.3,670.0 L 438.1,666.1 L 438.0,662.1 L 437.9,658.2 L 437.8,654.3 L 437.7,650.4 L 437.5,646.5 L 437.4,642.5 L 437.3,638.6 L 437.1,634.6 L 437.0,630.7 L 436.9,626.7 L 436.7,622.8 L 436.6,618.8 L 436.5,614.9 L 436.3,610.9 L 436.2,607.0 L 436.0,603.0 L 435.9,599.0 L 435.7,595.1 L 435.6,591.1 L 435.4,587.1 L 435.3,583.2 L 435.1,579.2 L 435.0,575.2 L 434.8,571.3 L 434.7,567.3 L 434.5,563.4 L 434.3,559.4 L 434.2,555.4 L 434.0,551.5 L 433.8,547.5 L 433.7,543.6 L 433.5,539.7 Z" data-label="Femoral vein (mid) (left)"><title>Femoral vein (mid) (left)</title></path>
    <path id="fv-dist-left" d="M 425.5,678.3 L 425.6,682.3 L 425.8,686.3 L 425.9,690.3 L 426.1,694.3 L 426.2,698.4 L 426.3,702.5 L 426.5,706.5 L 426.6,710.6 L 426.7,714.7 L 426.8,718.8 L 426.9,722.8 L 427.1,726.9 L 427.2,731.0 L 427.3,735.0 L 427.4,739.1 L 427.5,743.1 L 427.6,747.2 L 427.7,751.2 L 427.8,755.2 L 428.0,759.2 L 428.1,763.1 L 428.2,767.1 L 428.3,771.0 L 428.4,774.9 L 428.5,778.8 L 428.6,782.6 L 428.7,786.5 L 428.8,790.2 L 428.9,794.0 L 429.0,797.7 L 429.2,801.4 L 429.3,805.1 L 429.4,808.8 L 429.5,812.7 L 442.5,812.2 L 442.4,808.4 L 442.3,804.6 L 442.2,801.0 L 442.0,797.3 L 441.9,793.6 L 441.8,789.9 L 441.7,786.1 L 441.6,782.3 L 441.5,778.4 L 441.4,774.6 L 441.3,770.7 L 441.2,766.7 L 441.1,762.8 L 440.9,758.8 L 440.8,754.8 L 440.7,750.8 L 440.6,746.8 L 440.5,742.8 L 440.4,738.7 L 440.3,734.7 L 440.2,730.6 L 440.1,726.5 L 439.9,722.4 L 439.8,718.4 L 439.7,714.3 L 439.6,710.2 L 439.4,706.1 L 439.3,702.0 L 439.2,698.0 L 439.1,693.9 L 438.9,689.9 L 438.8,685.8 L 438.6,681.8 L 438.5,677.8 Z" data-label="Femoral vein (distal) (left)"><title>Femoral vein (distal) (left)</title></path>
    <path id="pop-ak-left" d="M 429.5,812.7 L 429.7,816.8 L 429.8,821.1 L 429.9,825.4 L 430.1,829.8 L 430.2,834.1 L 430.4,838.4 L 430.5,842.7 L 430.7,846.9 L 430.8,851.1 L 431.0,855.2 L 431.1,859.3 L 431.3,863.4 L 431.4,867.4 L 431.6,871.4 L 431.7,875.3 L 431.9,879.2 L 432.0,883.0 L 432.2,886.8 L 432.3,890.5 L 432.4,894.2 L 432.6,897.8 L 432.7,901.4 L 432.8,904.8 L 432.9,908.3 L 433.0,911.7 L 433.2,915.3 L 433.3,919.1 L 446.8,918.6 L 446.6,914.8 L 446.5,911.2 L 446.4,907.8 L 446.2,904.3 L 446.1,900.8 L 445.9,897.3 L 445.8,893.7 L 445.6,890.0 L 445.5,886.3 L 445.3,882.5 L 445.2,878.7 L 445.0,874.8 L 444.8,870.9 L 444.7,866.9 L 444.5,862.9 L 444.3,858.8 L 444.2,854.7 L 444.0,850.6 L 443.8,846.4 L 443.6,842.2 L 443.5,837.9 L 443.3,833.6 L 443.1,829.3 L 443.0,825.0 L 442.8,820.6 L 442.7,816.4 L 442.5,812.2 Z" data-label="Popliteal vein (above knee) (left)"><title>Popliteal vein (above knee) (left)</title></path>
    <path id="pop-bk-left" d="M 433.3,919.1 L 433.6,923.4 L 433.9,927.8 L 434.3,932.2 L 434.6,936.5 L 435.0,940.6 L 435.4,944.5 L 435.7,948.3 L 436.1,951.9 L 436.4,955.5 L 436.7,959.0 L 436.9,962.5 L 437.1,966.0 L 437.2,969.6 L 437.2,973.2 L 437.2,976.9 L 437.1,980.6 L 436.9,984.4 L 446.9,985.3 L 447.3,981.3 L 447.6,977.3 L 447.9,973.4 L 448.0,969.6 L 448.1,965.9 L 448.1,962.2 L 448.1,958.5 L 448.0,954.9 L 447.9,951.2 L 447.8,947.5 L 447.6,943.7 L 447.4,939.7 L 447.3,935.7 L 447.1,931.5 L 447.0,927.1 L 446.9,922.7 L 446.8,918.6 Z" data-label="Popliteal vein (below knee) (left)"><title>Popliteal vein (below knee) (left)</title></path>
    <path id="ptv-left" d="M 436.9,984.4 L 436.6,988.1 L 436.1,991.8 L 435.6,995.4 L 434.9,999.1 L 434.2,1002.8 L 433.4,1006.6 L 432.6,1010.3 L 431.7,1014.2 L 430.8,1018.0 L 429.9,1021.9 L 429.0,1025.9 L 428.1,1029.9 L 427.3,1034.0 L 426.4,1038.1 L 425.7,1042.3 L 425.0,1046.5 L 424.3,1050.8 L 423.8,1055.0 L 423.4,1059.0 L 423.0,1062.7 L 422.7,1066.1 L 422.4,1069.2 L 422.2,1072.2 L 421.9,1075.1 L 421.6,1077.9 L 421.4,1080.8 L 421.2,1083.6 L 421.0,1086.5 L 420.9,1089.4 L 420.8,1092.5 L 420.7,1095.7 L 420.7,1099.2 L 420.7,1102.8 L 420.8,1106.7 L 420.9,1110.8 L 421.1,1115.3 L 421.3,1120.1 L 421.7,1125.4 L 422.1,1131.0 L 422.5,1137.0 L 423.0,1142.9 L 423.4,1148.2 L 423.8,1152.5 L 424.2,1156.0 L 424.5,1159.3 L 424.8,1162.4 L 425.2,1165.7 L 425.5,1169.2 L 425.9,1172.7 L 426.3,1176.3 L 426.7,1180.1 L 427.2,1183.9 L 427.6,1187.8 L 428.1,1191.9 L 428.6,1196.0 L 429.1,1200.2 L 429.6,1204.4 L 430.1,1208.7 L 430.6,1213.1 L 431.2,1217.6 L 431.7,1222.1 L 432.3,1226.7 L 432.8,1231.3 L 433.4,1235.9 L 434.0,1240.6 L 434.6,1245.3 L 435.2,1250.0 L 435.8,1254.8 L 436.4,1259.6 L 437.0,1264.3 L 437.6,1269.1 L 438.2,1273.9 L 438.8,1278.7 L 439.4,1283.5 L 440.0,1288.3 L 440.6,1293.0 L 441.2,1297.7 L 441.8,1302.4 L 442.4,1307.1 L 443.0,1311.7 L 443.6,1316.3 L 444.2,1320.8 L 444.8,1325.3 L 445.3,1329.7 L 445.9,1334.0 L 446.5,1338.3 L 447.0,1342.5 L 447.5,1346.7 L 448.1,1350.7 L 448.6,1354.7 L 449.1,1358.5 L 449.6,1362.3 L 450.1,1366.0 L 450.5,1369.6 L 451.0,1373.0 L 451.4,1376.3 L 451.8,1379.5 L 452.2,1382.6 L 452.6,1385.6 L 453.0,1388.4 L 453.3,1391.1 L 453.7,1393.6 L 454.0,1396.0 L 454.2,1398.2 L 454.5,1400.4 L 455.0,1401.7 L 455.8,1402.8 L 457.1,1403.4 L 458.4,1403.5 L 459.7,1403.0 L 460.8,1402.2 L 461.4,1400.9 L 461.5,1399.6 L 461.2,1397.4 L 461.0,1395.1 L 460.7,1392.7 L 460.4,1390.2 L 460.1,1387.5 L 459.7,1384.7 L 459.4,1381.7 L 459.0,1378.6 L 458.6,1375.4 L 458.2,1372.1 L 457.8,1368.6 L 457.3,1365.1 L 456.9,1361.4 L 456.4,1357.6 L 456.0,1353.7 L 455.5,1349.8 L 455.0,1345.7 L 454.5,1341.6 L 453.9,1337.4 L 453.4,1333.1 L 452.9,1328.7 L 452.3,1324.3 L 451.8,1319.8 L 451.2,1315.3 L 450.7,1310.7 L 450.1,1306.1 L 449.5,1301.4 L 448.9,1296.7 L 448.4,1292.0 L 447.8,1287.3 L 447.2,1282.5 L 446.6,1277.7 L 446.0,1272.9 L 445.5,1268.2 L 444.9,1263.4 L 444.3,1258.6 L 443.7,1253.8 L 443.2,1249.1 L 442.6,1244.3 L 442.1,1239.6 L 441.5,1234.9 L 441.0,1230.3 L 440.4,1225.7 L 439.9,1221.1 L 439.4,1216.6 L 438.9,1212.2 L 438.4,1207.8 L 437.9,1203.5 L 437.4,1199.2 L 436.9,1195.0 L 436.5,1190.9 L 436.1,1186.9 L 435.6,1183.0 L 435.2,1179.1 L 434.8,1175.4 L 434.5,1171.8 L 434.1,1168.3 L 433.8,1164.9 L 433.5,1161.6 L 433.2,1158.4 L 432.9,1155.2 L 432.6,1151.7 L 432.2,1147.4 L 431.8,1142.2 L 431.3,1136.3 L 430.9,1130.4 L 430.6,1124.8 L 430.3,1119.7 L 430.1,1114.9 L 429.9,1110.5 L 429.8,1106.5 L 429.8,1102.7 L 429.8,1099.2 L 429.8,1095.9 L 429.9,1092.8 L 430.0,1089.9 L 430.2,1087.0 L 430.4,1084.3 L 430.6,1081.5 L 430.9,1078.8 L 431.2,1076.0 L 431.5,1073.1 L 431.8,1070.1 L 432.1,1067.0 L 432.4,1063.6 L 432.8,1060.0 L 433.2,1056.1 L 433.8,1052.1 L 434.4,1048.0 L 435.1,1044.0 L 435.9,1040.0 L 436.7,1036.0 L 437.6,1032.0 L 438.5,1028.1 L 439.4,1024.2 L 440.3,1020.3 L 441.3,1016.4 L 442.2,1012.5 L 443.0,1008.6 L 443.9,1004.8 L 444.6,1000.9 L 445.3,997.1 L 446.0,993.2 L 446.5,989.3 L 446.9,985.3 Z" data-label="Posterior tibial vein (left)"><title>Posterior tibial vein (left)</title></path>
  </g>
  <g id="junction-dots" fill="#1a365d" stroke="none">
    <circle cx="190" cy="392" r="5" />
    <circle cx="410" cy="392" r="5" />
  </g>
</svg>
