<?xml version="1.0" encoding="UTF-8"?>
<svg xmlns="http://www.w3.org/2000/svg" viewBox="0 0 600 1453" role="img" aria-labelledby="title-le-anterior">
  <title id="title-le-anterior">Lower-extremity venous system — anterior view</title>
  <desc>Reference-image backdrop with invisible click-overlay paths. Each segment carries a canonical id (cfv-left, gsv-prox-thigh-right, etc.) matching the IAC/SVU venous duplex protocol. Path coordinates are calibrated to the line-art veins in le-reference.png; deep-vein columns taper medially as the thigh narrows toward the knee.</desc>
  <image id="backdrop" href="/anatomy/le-reference.png" x="0" y="0" width="600" height="1453" preserveAspectRatio="xMidYMid meet" />
  <!-- Empty placeholder groups so colorizeSvg's regex transforms find them. -->
  <g id="silhouette" stroke="transparent"></g>
  <g id="pelvis-hint" stroke="transparent"></g>
  <g id="side-labels" fill="transparent"></g>
  <!-- Click-overlay paths. fill=transparent + stroke=transparent makes them invisible until colored. -->
  <g id="segments" fill="transparent" stroke="transparent" stroke-width="22" stroke-linecap="round" stroke-linejoin="round" pointer-events="all">
    <!-- ===== RIGHT LEG (anatomical right = visual left half of image) ===== -->
    <path id="cfv-right" d="M 238,224 L 224,245 L 190,281 L 169,308 L 162,324 L 157,328" data-label="Common femoral vein (right)"><title>Common femoral vein (right)</title></path>
    <path id="sfj-right" d="M 174,324 L 174,336 L 185,366 L 191,391 L 194,395" data-label="Saphenofemoral junction (right)"><title>Saphenofemoral junction (right)</title></path>
    <path id="pfv-right" d="M 148,332 L 130,347 L 116,372 L 107,416 L 93,456 L 81,513 L 50,628" data-label="Profunda (deep femoral) vein (right)"><title>Profunda (deep femoral) vein (right)</title></path>
    <path id="fv-prox-right" d="M 156,346 L 153,358 L 140,385 L 139,400 L 140,451" data-label="Femoral vein (proximal) (right)"><title>Femoral vein (proximal) (right)</title></path>
    <path id="fv-mid-right" d="M 140,451 L 145,494 L 149,595 L 150,602 L 153,600 L 153,586 L 147,559 L 144,509 L 146,501 L 147,650 L 149,657 L 150,649 L 150,610 L 152,603 L 153,646 L 157,698 L 157,673" data-label="Femoral vein (mid) (right)"><title>Femoral vein (mid) (right)</title></path>
    <path id="fv-dist-right" d="M 153,646 L 160,706 L 160,732 L 157,698 L 157,673 L 163,772 L 162,797 L 156,807 L 152,811 L 151,809 L 153,803 L 156,709 L 150,684" data-label="Femoral vein (distal) (right)"><title>Femoral vein (distal) (right)</title></path>
    <path id="gsv-prox-thigh-right" d="M 200,414 L 200,436" data-label="Great saphenous vein (proximal thigh) (right)"><title>Great saphenous vein (proximal thigh) (right)</title></path>
    <path id="gsv-mid-thigh-right" d="M 200,436 L 213,495 L 219,539 L 219,628" data-label="Great saphenous vein (mid thigh) (right)"><title>Great saphenous vein (mid thigh) (right)</title></path>
    <path id="gsv-dist-thigh-right" d="M 219,628 L 204,721 L 204,796 L 204,809 L 204,866" data-label="Great saphenous vein (distal thigh) (right)"><title>Great saphenous vein (distal thigh) (right)</title></path>
    <path id="gsv-knee-right" d="M 204,866 L 188,925" data-label="Great saphenous vein (at the knee) (right)"><title>Great saphenous vein (at the knee) (right)</title></path>
    <path id="gsv-calf-right" d="M 188,925 L 184,948 L 185,1009 L 195,1049 L 198,1078 L 196,1086 L 196,1109 L 187,1144 L 173,1228 L 172,1297 L 162,1366 L 158,1422 L 153,1426" data-label="Great saphenous vein (calf) (right)"><title>Great saphenous vein (calf) (right)</title></path>
    <path id="pop-ak-right" d="M 151,820 L 149,838" data-label="Popliteal vein (above knee) (right)"><title>Popliteal vein (above knee) (right)</title></path>
    <path id="pop-bk-right" d="M 149,838 L 132,896 L 131,914" data-label="Popliteal vein (below knee) (right)"><title>Popliteal vein (below knee) (right)</title></path>
    <path id="ptv-right" d="M 146,897 L 138,949 L 134,1067 L 134,1082 L 139,1110 L 139,1158 L 130,1226 L 132,1204 L 132,1249 L 126,1289 L 116,1326 L 125,1280 L 125,1335 L 123,1344" data-label="Posterior tibial vein (right)"><title>Posterior tibial vein (right)</title></path>
    <path id="per-right" d="M 146,897 L 138,949 L 134,1067 L 134,1082 L 139,1110 L 139,1158 L 130,1226 L 132,1204 L 132,1249 L 126,1289 L 116,1326 L 125,1280 L 125,1335 L 123,1344" data-label="Peroneal vein (right)"><title>Peroneal vein (right)</title></path>
    <!-- ===== LEFT LEG (anatomical left = visual right half of image) ===== -->
    <path id="cfv-left" d="M 348,216 L 373,255 L 427,321" data-label="Common femoral vein (left)"><title>Common femoral vein (left)</title></path>
    <path id="sfj-left" d="M 425,326 L 422,342 L 408,368 L 397,400 L 393,398" data-label="Saphenofemoral junction (left)"><title>Saphenofemoral junction (left)</title></path>
    <path id="pfv-left" d="M 438,323 L 456,337 L 467,353 L 483,387 L 503,442 L 533,536 L 542,616" data-label="Profunda (deep femoral) vein (left)"><title>Profunda (deep femoral) vein (left)</title></path>
    <path id="fv-prox-left" d="M 441,342 L 452,374 L 456,397 L 456,437" data-label="Femoral vein (proximal) (left)"><title>Femoral vein (proximal) (left)</title></path>
    <path id="fv-mid-left" d="M 456,437 L 443,601 L 443,644" data-label="Femoral vein (mid) (left)"><title>Femoral vein (mid) (left)</title></path>
    <path id="fv-dist-left" d="M 443,644 L 436,710 L 435,751 L 441,788" data-label="Femoral vein (distal) (left)"><title>Femoral vein (distal) (left)</title></path>
    <path id="gsv-prox-thigh-left" d="M 397,410 L 397,425 L 384,458" data-label="Great saphenous vein (proximal thigh) (left)"><title>Great saphenous vein (proximal thigh) (left)</title></path>
    <path id="gsv-mid-thigh-left" d="M 384,458 L 379,489 L 379,564 L 375,612" data-label="Great saphenous vein (mid thigh) (left)"><title>Great saphenous vein (mid thigh) (left)</title></path>
    <path id="gsv-dist-thigh-left" d="M 375,612 L 375,686 L 380,739 L 384,750 L 388,765 L 390,814 L 396,858 L 403,889" data-label="Great saphenous vein (distal thigh) (left)"><title>Great saphenous vein (distal thigh) (left)</title></path>
    <path id="gsv-knee-left" d="M 387,895 Q 390,920 393,940" data-label="Great saphenous vein (at the knee) (left)"><title>Great saphenous vein (at the knee) (left)</title></path>
    <path id="gsv-calf-left" d="M 403,889 L 408,956 L 408,1021 L 402,1046 L 401,1071 L 399,1079 L 399,1139 L 423,1209 L 426,1228 L 425,1330 L 430,1369 L 430,1405 L 434,1423 L 440,1427" data-label="Great saphenous vein (calf) (left)"><title>Great saphenous vein (calf) (left)</title></path>
    <path id="pop-ak-left" d="M 442,795 L 443,839" data-label="Popliteal vein (above knee) (left)"><title>Popliteal vein (above knee) (left)</title></path>
    <path id="pop-bk-left" d="M 443,839 L 460,902" data-label="Popliteal vein (below knee) (left)"><title>Popliteal vein (below knee) (left)</title></path>
    <path id="ptv-left" d="M 459,895 L 459,1166 L 468,1261 L 468,1331 L 471,1346 L 474,1349" data-label="Posterior tibial vein (left)"><title>Posterior tibial vein (left)</title></path>
    <path id="per-left" d="M 459,895 L 459,1166 L 468,1261 L 468,1331 L 471,1346 L 474,1349" data-label="Peroneal vein (left)"><title>Peroneal vein (left)</title></path>
    <!-- ===== Posterior-only segments merged into the single combined view ===== -->
    <path id="spj-right" d="M 222,895 Q 213,895 205,895" data-label="Saphenopopliteal junction (right)"><title>Saphenopopliteal junction (right)</title></path>
    <path id="ssv-right" d="M 126,911 L 125,926 L 111,963 L 104,999 L 104,1046 L 91,1117 L 82,1237" data-label="Small saphenous vein (right)"><title>Small saphenous vein (right)</title></path>
    <path id="gastroc-right" d="M 188,990 Q 175,1060 180,1140" data-label="Gastrocnemius vein (right)"><title>Gastrocnemius vein (right)</title></path>
    <path id="spj-left" d="M 378,895 Q 387,895 395,895" data-label="Saphenopopliteal junction (left)"><title>Saphenopopliteal junction (left)</title></path>
    <path id="ssv-left" d="M 467,904 L 467,908 L 479,933 L 488,967 L 501,1110 L 502,1168 L 510,1204 L 512,1225" data-label="Small saphenous vein (left)"><title>Small saphenous vein (left)</title></path>
    <path id="gastroc-left" d="M 412,990 Q 425,1060 420,1140" data-label="Gastrocnemius vein (left)"><title>Gastrocnemius vein (left)</title></path>
  </g>
</svg>
