<?xml version="1.0" encoding="UTF-8"?>
<svg xmlns="http://www.w3.org/2000/svg" viewBox="0 0 600 1453" role="img" aria-labelledby="title-le-anterior">
  <title id="title-le-anterior">Lower-extremity venous system — anterior view</title>
  <desc>Pure-vector filled-vessel diagram of the anterior lower-extremity venous tree on a traced leg silhouette. Vessels are smoothed per anatomical chain from hand-calibrated centerlines; each carries a canonical IAC/SVU id and fills by competency.</desc>
  <defs>
    <clipPath id="leg-clip"><path d="M 80.261 25.250 C 80.541 28.138, 82.231 40.175, 84.016 52 C 86.472 68.274, 87.290 77.146, 87.380 88.500 L 87.500 103.500 82.138 116 C 66.671 152.060, 35.931 231.820, 26.394 260.639 C 17.409 287.786, 9.453 338.763, 3.315 408.500 C 0.724 437.945, 0.706 529.275, 3.287 549.500 C 15.404 644.443, 38.115 755.244, 56.462 808.925 C 59.994 819.259, 59.777 823, 55.078 832.717 C 40.618 862.617, 38.897 893.053, 49.772 926.500 C 54.443 940.865, 54.424 945.230, 49.650 954.707 C 37.933 977.961, 29.149 1008.425, 24.336 1042.500 C 21.493 1062.630, 21.773 1118.589, 24.845 1144 C 31.081 1195.595, 38.983 1241.002, 59.043 1340.500 C 70.973 1399.676, 78 1436.272, 78 1439.225 C 78 1439.651, 79.013 1440.018, 80.250 1440.041 C 81.952 1440.072, 83.067 1441.291, 84.826 1445.041 L 87.152 1450 128.576 1450 L 170 1450 170 1438.187 C 170 1417.388, 175.465 1368.153, 185.005 1303 C 196.921 1221.623, 197.902 1217.120, 214.566 1167.208 C 235.295 1105.121, 236.559 1098.835, 235.721 1062 C 234.864 1024.335, 228.035 979.517, 214.847 925 C 208.331 898.063, 209.528 886.679, 232.983 752.500 C 242.078 700.466, 248.444 667.332, 254.532 640.325 C 260.488 613.910, 263.116 598.926, 265.551 577.500 C 267.077 564.075, 267.717 561.617, 274.274 544 C 277.241 536.029, 277.167 522.813, 274.104 513.500 C 272.034 507.206, 271.814 504.759, 271.925 489.247 C 272.065 469.589, 271.282 471.855, 283.656 455.311 L 289.781 447.122 303.141 459.521 C 312.615 468.315, 316.862 472.968, 317.745 475.523 C 319.845 481.602, 319.661 506.275, 317.458 514 C 314.201 525.421, 314.919 537.148, 319.755 551.500 C 322.998 561.123, 324.227 566.967, 325.963 581 C 328.456 601.165, 331.392 616.929, 337.511 643 C 345.422 676.711, 357.225 739.716, 373.114 833.055 C 383.823 895.966, 383.918 898.920, 376.268 931 C 361.382 993.418, 355.313 1037.574, 356.293 1076.346 C 357.025 1105.299, 358.490 1111.433, 377.713 1166 C 391.237 1204.391, 394.482 1216.470, 399.876 1248.500 C 412.709 1324.704, 422.570 1400.820, 423.682 1432.250 L 424.310 1450 466.500 1450 C 513.413 1450, 510.564 1450.417, 513.085 1443.185 C 513.891 1440.874, 514.815 1440, 516.451 1440 C 518.545 1440, 518.832 1439.226, 520.446 1429.250 C 522.048 1419.346, 525.317 1403.238, 543.634 1315 C 568.590 1194.780, 578.179 1126.095, 576.653 1078.500 C 575.160 1031.929, 566.927 995.139, 549.902 958.957 C 542.938 944.158, 542.737 942.064, 547.061 929.438 C 558.977 894.643, 557.472 861.507, 542.713 833.695 C 537.110 823.138, 537.084 820.809, 542.388 804.486 C 564.645 735.980, 591.195 604.416, 596.972 534 C 602.472 466.971, 592.915 342.526, 577.403 279.166 C 572.331 258.447, 546.694 191.365, 519.996 128.956 C 515.163 117.657, 510.714 106.632, 510.109 104.456 C 507.704 95.793, 509.280 70.139, 513.946 42 C 514.994 35.675, 516.153 28.137, 516.520 25.250 L 517.188 20 298.470 20 L 79.752 20 80.261 25.250" /></clipPath>
  </defs>
  <g id="silhouette" fill="#f7fafc" stroke="transparent" stroke-width="2.5" stroke-linejoin="round" stroke-linecap="round">
    <path d="M 80.261 25.250 C 80.541 28.138, 82.231 40.175, 84.016 52 C 86.472 68.274, 87.290 77.146, 87.380 88.500 L 87.500 103.500 82.138 116 C 66.671 152.060, 35.931 231.820, 26.394 260.639 C 17.409 287.786, 9.453 338.763, 3.315 408.500 C 0.724 437.945, 0.706 529.275, 3.287 549.500 C 15.404 644.443, 38.115 755.244, 56.462 808.925 C 59.994 819.259, 59.777 823, 55.078 832.717 C 40.618 862.617, 38.897 893.053, 49.772 926.500 C 54.443 940.865, 54.424 945.230, 49.650 954.707 C 37.933 977.961, 29.149 1008.425, 24.336 1042.500 C 21.493 1062.630, 21.773 1118.589, 24.845 1144 C 31.081 1195.595, 38.983 1241.002, 59.043 1340.500 C 70.973 1399.676, 78 1436.272, 78 1439.225 C 78 1439.651, 79.013 1440.018, 80.250 1440.041 C 81.952 1440.072, 83.067 1441.291, 84.826 1445.041 L 87.152 1450 128.576 1450 L 170 1450 170 1438.187 C 170 1417.388, 175.465 1368.153, 185.005 1303 C 196.921 1221.623, 197.902 1217.120, 214.566 1167.208 C 235.295 1105.121, 236.559 1098.835, 235.721 1062 C 234.864 1024.335, 228.035 979.517, 214.847 925 C 208.331 898.063, 209.528 886.679, 232.983 752.500 C 242.078 700.466, 248.444 667.332, 254.532 640.325 C 260.488 613.910, 263.116 598.926, 265.551 577.500 C 267.077 564.075, 267.717 561.617, 274.274 544 C 277.241 536.029, 277.167 522.813, 274.104 513.500 C 272.034 507.206, 271.814 504.759, 271.925 489.247 C 272.065 469.589, 271.282 471.855, 283.656 455.311 L 289.781 447.122 303.141 459.521 C 312.615 468.315, 316.862 472.968, 317.745 475.523 C 319.845 481.602, 319.661 506.275, 317.458 514 C 314.201 525.421, 314.919 537.148, 319.755 551.500 C 322.998 561.123, 324.227 566.967, 325.963 581 C 328.456 601.165, 331.392 616.929, 337.511 643 C 345.422 676.711, 357.225 739.716, 373.114 833.055 C 383.823 895.966, 383.918 898.920, 376.268 931 C 361.382 993.418, 355.313 1037.574, 356.293 1076.346 C 357.025 1105.299, 358.490 1111.433, 377.713 1166 C 391.237 1204.391, 394.482 1216.470, 399.876 1248.500 C 412.709 1324.704, 422.570 1400.820, 423.682 1432.250 L 424.310 1450 466.500 1450 C 513.413 1450, 510.564 1450.417, 513.085 1443.185 C 513.891 1440.874, 514.815 1440, 516.451 1440 C 518.545 1440, 518.832 1439.226, 520.446 1429.250 C 522.048 1419.346, 525.317 1403.238, 543.634 1315 C 568.590 1194.780, 578.179 1126.095, 576.653 1078.500 C 575.160 1031.929, 566.927 995.139, 549.902 958.957 C 542.938 944.158, 542.737 942.064, 547.061 929.438 C 558.977 894.643, 557.472 861.507, 542.713 833.695 C 537.110 823.138, 537.084 820.809, 542.388 804.486 C 564.645 735.980, 591.195 604.416, 596.972 534 C 602.472 466.971, 592.915 342.526, 577.403 279.166 C 572.331 258.447, 546.694 191.365, 519.996 128.956 C 515.163 117.657, 510.714 106.632, 510.109 104.456 C 507.704 95.793, 509.280 70.139, 513.946 42 C 514.994 35.675, 516.153 28.137, 516.520 25.250 L 517.188 20 298.470 20 L 79.752 20 80.261 25.250" />
  </g>
  <g id="pelvis-hint" fill="none" stroke="transparent" stroke-width="2" stroke-linecap="round" stroke-linejoin="round"></g>
  <g id="side-labels" font-family="system-ui, -apple-system, Segoe UI, Roboto, sans-serif" font-size="34" font-weight="600" fill="#4a5568" text-anchor="middle">
    <text x="150" y="180">R</text>
    <text x="450" y="180">L</text>
  </g>
  <g id="segments" clip-path="url(#leg-clip)" fill="transparent" stroke="transparent" stroke-linejoin="round" stroke-linecap="round" pointer-events="all">
    <path d="M 252.2,292.2 L 254.5,290.6 L 257.0,288.8 L 259.8,286.7 L 262.9,284.4 L 266.2,281.9 L 269.7,279.3 L 273.3,276.6 L 277.0,274.1 L 280.7,271.6 L 284.4,269.4 L 288.0,267.5 L 291.5,265.9 L 294.7,264.8 L 297.5,264.2 L 300.0,264.0 L 302.5,264.2 L 305.3,264.8 L 308.5,265.9 L 312.0,267.5 L 315.6,269.4 L 319.3,271.6 L 323.0,274.1 L 326.7,276.6 L 330.3,279.3 L 333.8,281.9 L 337.1,284.4 L 340.2,286.7 L 343.0,288.8 L 345.5,290.6 L 347.8,292.2 L 350.4,293.3 L 353.4,293.4 L 356.1,292.3 L 358.2,290.2 L 359.3,287.6 L 359.4,284.6 L 358.3,281.9 L 356.2,279.8 L 354.1,278.4 L 351.8,276.7 L 349.2,274.8 L 346.2,272.5 L 342.9,269.9 L 339.3,267.2 L 335.4,264.4 L 331.4,261.6 L 327.2,258.9 L 322.9,256.3 L 318.6,254.0 L 314.1,252.0 L 309.5,250.4 L 304.8,249.3 L 300.0,249.0 L 295.2,249.3 L 290.5,250.4 L 285.9,252.0 L 281.4,254.0 L 277.1,256.3 L 272.8,258.9 L 268.6,261.6 L 264.6,264.4 L 260.7,267.2 L 257.1,269.9 L 253.8,272.5 L 250.8,274.8 L 248.2,276.7 L 245.9,278.4 L 243.8,279.8 L 241.7,281.9 L 240.6,284.6 L 240.7,287.6 L 241.8,290.2 L 243.9,292.3 L 246.6,293.4 L 249.6,293.3 L 252.2,292.2 Z" fill="#94a3b8" stroke="#475569" stroke-width="2" />
    <path id="spj-right" d="M 155.8,907.6 L 161.8,923.6 L 162.7,925.1 L 164.1,926.1 L 165.8,926.5 L 167.6,926.2 L 169.1,925.3 L 170.1,923.9 L 170.5,922.2 L 170.2,920.4 L 164.2,904.4 L 163.3,902.9 L 161.9,901.9 L 160.2,901.5 L 158.4,901.8 L 156.9,902.7 L 155.9,904.1 L 155.5,905.8 L 155.8,907.6 Z" data-label="Saphenopopliteal junction (right)"><title>Saphenopopliteal junction (right)</title></path>
    <path id="ssv-right" d="M 157.9,903.3 L 157.2,904.9 L 156.5,906.5 L 155.7,907.9 L 154.9,909.3 L 153.9,910.7 L 152.9,912.3 L 151.7,913.9 L 150.5,915.7 L 149.2,917.7 L 147.8,919.9 L 146.4,922.3 L 144.9,925.0 L 143.5,928.0 L 142.0,931.3 L 140.5,935.0 L 139.1,939.1 L 137.6,943.7 L 136.2,948.7 L 134.8,954.2 L 133.5,960.3 L 132.2,967.0 L 130.9,974.2 L 129.8,981.9 L 128.8,989.4 L 128.0,996.0 L 127.4,1000.9 L 127.0,1004.5 L 126.8,1007.5 L 126.5,1010.4 L 126.2,1013.3 L 126.0,1016.3 L 125.7,1019.4 L 125.5,1022.6 L 125.2,1025.9 L 125.0,1029.2 L 124.7,1032.7 L 124.5,1036.2 L 124.2,1039.8 L 124.0,1043.4 L 123.7,1047.1 L 123.5,1050.9 L 123.2,1054.8 L 122.9,1058.7 L 122.7,1062.7 L 122.4,1066.8 L 122.2,1070.9 L 122.0,1075.0 L 121.7,1079.3 L 121.5,1083.5 L 121.2,1087.9 L 121.0,1092.2 L 120.7,1096.6 L 120.5,1101.1 L 120.2,1105.6 L 120.0,1110.1 L 119.8,1114.7 L 119.5,1119.3 L 119.3,1123.9 L 119.0,1128.6 L 118.8,1133.3 L 118.6,1138.0 L 118.3,1142.8 L 118.1,1147.5 L 117.9,1152.3 L 117.6,1157.1 L 117.4,1161.9 L 117.2,1166.8 L 117.0,1171.6 L 116.7,1176.5 L 116.5,1181.3 L 116.3,1186.2 L 116.1,1191.0 L 115.8,1195.9 L 115.6,1200.7 L 115.4,1205.6 L 115.2,1210.4 L 115.0,1215.3 L 114.8,1220.1 L 114.6,1224.9 L 114.4,1229.7 L 114.2,1234.5 L 113.9,1239.2 L 113.7,1243.9 L 113.5,1248.6 L 113.3,1253.3 L 113.2,1258.0 L 113.0,1262.6 L 112.8,1267.2 L 112.6,1271.7 L 112.4,1276.2 L 112.2,1280.7 L 112.0,1285.1 L 111.8,1289.5 L 111.6,1293.9 L 111.5,1298.2 L 111.3,1302.4 L 111.1,1306.6 L 111.0,1310.7 L 110.8,1314.8 L 110.6,1318.8 L 110.5,1322.8 L 110.3,1326.6 L 110.1,1330.5 L 110.0,1334.2 L 109.8,1337.9 L 109.7,1341.5 L 109.5,1345.1 L 109.4,1348.5 L 109.2,1351.9 L 109.1,1355.2 L 108.9,1358.4 L 108.8,1361.5 L 108.7,1364.6 L 108.5,1367.5 L 108.4,1370.4 L 108.3,1373.2 L 108.2,1375.8 L 108.1,1378.4 L 107.9,1380.9 L 107.8,1383.2 L 107.7,1385.5 L 107.6,1387.7 L 107.5,1389.8 L 107.8,1391.5 L 108.7,1393.0 L 110.1,1394.1 L 111.8,1394.5 L 113.5,1394.2 L 115.0,1393.3 L 116.1,1391.9 L 116.5,1390.2 L 116.6,1388.1 L 116.7,1385.9 L 116.8,1383.6 L 116.9,1381.3 L 117.0,1378.8 L 117.2,1376.2 L 117.3,1373.6 L 117.4,1370.8 L 117.5,1367.9 L 117.7,1365.0 L 117.8,1361.9 L 117.9,1358.8 L 118.1,1355.6 L 118.2,1352.3 L 118.4,1348.9 L 118.5,1345.4 L 118.7,1341.9 L 118.8,1338.3 L 119.0,1334.6 L 119.1,1330.8 L 119.3,1327.0 L 119.4,1323.1 L 119.6,1319.2 L 119.8,1315.2 L 119.9,1311.1 L 120.1,1307.0 L 120.3,1302.8 L 120.5,1298.5 L 120.6,1294.2 L 120.8,1289.9 L 121.0,1285.5 L 121.2,1281.1 L 121.4,1276.6 L 121.6,1272.1 L 121.8,1267.6 L 121.9,1263.0 L 122.1,1258.4 L 122.3,1253.7 L 122.5,1249.0 L 122.7,1244.3 L 122.9,1239.6 L 123.1,1234.8 L 123.4,1230.1 L 123.6,1225.3 L 123.8,1220.5 L 124.0,1215.7 L 124.2,1210.8 L 124.4,1206.0 L 124.6,1201.1 L 124.8,1196.3 L 125.1,1191.4 L 125.3,1186.6 L 125.5,1181.7 L 125.7,1176.9 L 125.9,1172.0 L 126.2,1167.2 L 126.4,1162.4 L 126.6,1157.6 L 126.9,1152.8 L 127.1,1148.0 L 127.3,1143.2 L 127.6,1138.5 L 127.8,1133.8 L 128.0,1129.1 L 128.3,1124.4 L 128.5,1119.8 L 128.7,1115.2 L 129.0,1110.6 L 129.2,1106.1 L 129.5,1101.6 L 129.7,1097.1 L 130.0,1092.7 L 130.2,1088.4 L 130.4,1084.1 L 130.7,1079.8 L 130.9,1075.6 L 131.2,1071.4 L 131.4,1067.3 L 131.7,1063.3 L 131.9,1059.3 L 132.2,1055.4 L 132.4,1051.5 L 132.7,1047.7 L 132.9,1044.0 L 133.2,1040.4 L 133.4,1036.8 L 133.7,1033.3 L 133.9,1029.9 L 134.2,1026.6 L 134.4,1023.3 L 134.7,1020.1 L 135.0,1017.1 L 135.2,1014.1 L 135.5,1011.2 L 135.7,1008.4 L 136.0,1005.4 L 136.4,1001.9 L 136.9,997.0 L 137.7,990.6 L 138.7,983.2 L 139.8,975.6 L 141.0,968.6 L 142.3,962.1 L 143.6,956.3 L 144.9,951.0 L 146.2,946.2 L 147.6,942.0 L 148.9,938.2 L 150.3,934.8 L 151.6,931.8 L 152.9,929.1 L 154.2,926.7 L 155.5,924.6 L 156.7,922.6 L 157.9,920.8 L 159.1,919.0 L 160.3,917.4 L 161.4,915.7 L 162.5,914.0 L 163.6,912.3 L 164.5,910.4 L 165.4,908.5 L 166.1,906.7 L 166.5,905.0 L 166.2,903.3 L 165.2,901.8 L 163.7,900.9 L 162.0,900.5 L 160.3,900.8 L 158.8,901.8 L 157.9,903.3 Z" data-label="Small saphenous vein (right)"><title>Small saphenous vein (right)</title></path>
    <path id="pfv-right" d="M 188.4,386.4 L 187.5,388.7 L 186.3,391.7 L 184.8,395.3 L 183.4,398.7 L 182.1,401.5 L 181.0,403.9 L 179.8,406.2 L 178.5,408.7 L 177.1,411.4 L 175.6,414.3 L 174.0,417.4 L 172.4,420.7 L 170.7,424.2 L 169.0,428.0 L 167.3,432.0 L 165.6,436.3 L 163.9,440.9 L 162.2,445.8 L 160.5,451.0 L 158.9,456.5 L 157.4,461.9 L 156.2,466.7 L 155.2,470.9 L 154.4,474.5 L 153.7,477.9 L 153.0,481.3 L 152.3,484.9 L 151.6,488.6 L 150.8,492.4 L 150.1,496.4 L 149.4,500.4 L 148.7,504.6 L 147.9,508.9 L 147.2,513.2 L 146.5,517.6 L 145.7,522.1 L 145.0,526.7 L 144.2,531.3 L 143.5,535.9 L 142.7,540.6 L 142.0,545.3 L 141.3,550.0 L 140.6,554.7 L 139.8,559.4 L 139.1,564.0 L 138.4,568.7 L 137.7,573.3 L 137.0,577.9 L 136.4,582.4 L 135.7,586.8 L 135.1,591.2 L 134.4,595.4 L 133.8,599.6 L 133.2,603.7 L 132.6,607.6 L 132.1,611.5 L 131.5,615.2 L 131.0,618.7 L 130.5,622.1 L 130.0,625.3 L 129.5,628.4 L 129.1,631.3 L 128.7,634.0 L 128.3,636.4 L 127.9,638.8 L 127.6,641.0 L 127.7,643.5 L 128.7,645.8 L 130.6,647.5 L 133.0,648.4 L 135.5,648.3 L 137.8,647.3 L 139.5,645.4 L 140.4,643.0 L 140.8,640.8 L 141.1,638.4 L 141.5,635.9 L 141.9,633.2 L 142.4,630.3 L 142.8,627.3 L 143.3,624.0 L 143.8,620.6 L 144.4,617.1 L 144.9,613.4 L 145.5,609.5 L 146.1,605.6 L 146.7,601.5 L 147.3,597.3 L 147.9,593.1 L 148.6,588.7 L 149.2,584.3 L 149.9,579.8 L 150.6,575.2 L 151.3,570.6 L 152.0,566.0 L 152.7,561.3 L 153.4,556.7 L 154.1,552.0 L 154.9,547.3 L 155.6,542.6 L 156.3,538.0 L 157.1,533.3 L 157.8,528.8 L 158.5,524.2 L 159.3,519.8 L 160.0,515.4 L 160.7,511.0 L 161.5,506.8 L 162.2,502.7 L 162.9,498.7 L 163.6,494.8 L 164.3,491.0 L 165.0,487.4 L 165.7,483.9 L 166.4,480.5 L 167.1,477.3 L 167.8,473.9 L 168.8,469.9 L 170.0,465.2 L 171.4,460.0 L 172.9,454.9 L 174.5,449.9 L 176.1,445.3 L 177.7,441.0 L 179.3,436.9 L 180.9,433.2 L 182.5,429.6 L 184.1,426.3 L 185.6,423.2 L 187.1,420.2 L 188.6,417.4 L 190.0,414.8 L 191.3,412.2 L 192.6,409.7 L 193.9,407.0 L 195.3,403.9 L 196.8,400.3 L 198.3,396.6 L 199.6,393.6 L 200.5,391.3 Z" data-label="Profunda (deep femoral) vein (right)"><title>Profunda (deep femoral) vein (right)</title></path>
    <path id="per-right" d="M 164.9,888.5 L 164.0,889.5 L 162.2,891.8 L 159.5,895.1 L 156.6,898.5 L 154.2,901.2 L 152.2,903.4 L 150.1,905.6 L 147.9,907.8 L 145.6,910.2 L 143.1,912.7 L 140.4,915.3 L 137.7,918.0 L 134.8,920.8 L 131.9,923.7 L 128.9,926.7 L 125.9,929.8 L 122.8,932.9 L 119.6,936.2 L 116.5,939.5 L 113.3,942.9 L 110.2,946.3 L 107.1,949.8 L 104.0,953.4 L 101.0,957.0 L 98.0,960.6 L 95.1,964.3 L 92.3,968.0 L 89.6,971.8 L 87.1,975.6 L 84.6,979.4 L 82.3,983.2 L 80.2,987.1 L 78.3,991.0 L 76.5,994.8 L 75.0,998.5 L 73.6,1002.2 L 72.4,1005.7 L 71.3,1009.2 L 70.4,1012.6 L 69.5,1016.0 L 68.7,1019.4 L 68.0,1022.9 L 67.4,1026.3 L 66.8,1029.7 L 66.3,1033.2 L 65.9,1036.6 L 65.6,1040.1 L 65.3,1043.7 L 65.1,1047.2 L 64.9,1050.8 L 64.8,1054.5 L 64.7,1058.2 L 64.6,1061.9 L 64.6,1065.7 L 64.7,1069.6 L 64.7,1073.6 L 64.8,1077.6 L 64.9,1081.8 L 65.0,1086.0 L 65.2,1090.3 L 65.3,1094.7 L 65.5,1099.3 L 65.6,1103.9 L 65.8,1108.7 L 65.9,1113.6 L 66.1,1118.6 L 66.2,1123.8 L 66.3,1129.0 L 66.4,1134.1 L 66.5,1138.7 L 66.5,1142.8 L 66.6,1146.5 L 66.7,1149.9 L 66.7,1153.4 L 66.8,1157.0 L 66.9,1160.6 L 67.0,1164.4 L 67.1,1168.2 L 67.2,1172.2 L 67.4,1176.2 L 67.5,1180.3 L 67.7,1184.4 L 67.8,1188.7 L 68.0,1193.0 L 68.2,1197.3 L 68.3,1201.7 L 68.5,1206.2 L 68.7,1210.7 L 68.9,1215.3 L 69.1,1219.9 L 69.3,1224.5 L 69.5,1229.2 L 69.8,1233.8 L 70.0,1238.6 L 70.2,1243.3 L 70.4,1248.0 L 70.7,1252.8 L 70.9,1257.5 L 71.2,1262.3 L 71.4,1267.1 L 71.6,1271.8 L 71.9,1276.5 L 72.1,1281.3 L 72.4,1286.0 L 72.6,1290.7 L 72.9,1295.3 L 73.1,1300.0 L 73.4,1304.6 L 73.6,1309.1 L 73.9,1313.6 L 74.1,1318.1 L 74.3,1322.5 L 74.6,1326.8 L 74.8,1331.1 L 75.0,1335.4 L 75.3,1339.5 L 75.5,1343.6 L 75.7,1347.6 L 75.9,1351.6 L 76.1,1355.4 L 76.3,1359.2 L 76.5,1362.8 L 76.7,1366.4 L 76.9,1369.8 L 77.1,1373.2 L 77.3,1376.4 L 77.5,1379.6 L 77.6,1382.6 L 77.8,1385.5 L 77.9,1388.2 L 78.0,1390.9 L 78.2,1393.4 L 78.3,1395.7 L 78.4,1398.0 L 78.5,1400.2 L 78.8,1401.5 L 79.6,1402.6 L 80.8,1403.3 L 82.2,1403.5 L 83.5,1403.2 L 84.6,1402.4 L 85.3,1401.2 L 85.5,1399.8 L 85.4,1397.6 L 85.3,1395.4 L 85.2,1393.0 L 85.0,1390.5 L 84.9,1387.9 L 84.8,1385.1 L 84.6,1382.2 L 84.4,1379.2 L 84.3,1376.1 L 84.1,1372.8 L 83.9,1369.5 L 83.7,1366.0 L 83.5,1362.4 L 83.3,1358.8 L 83.1,1355.0 L 82.9,1351.2 L 82.7,1347.2 L 82.5,1343.2 L 82.3,1339.1 L 82.0,1335.0 L 81.8,1330.8 L 81.6,1326.5 L 81.3,1322.1 L 81.1,1317.7 L 80.8,1313.2 L 80.6,1308.7 L 80.4,1304.2 L 80.1,1299.6 L 79.9,1295.0 L 79.6,1290.3 L 79.4,1285.6 L 79.1,1280.9 L 78.9,1276.2 L 78.6,1271.4 L 78.4,1266.7 L 78.1,1261.9 L 77.9,1257.2 L 77.7,1252.4 L 77.4,1247.7 L 77.2,1242.9 L 77.0,1238.2 L 76.8,1233.5 L 76.5,1228.8 L 76.3,1224.2 L 76.1,1219.6 L 75.9,1215.0 L 75.7,1210.4 L 75.5,1205.9 L 75.3,1201.5 L 75.2,1197.0 L 75.0,1192.7 L 74.8,1188.4 L 74.7,1184.2 L 74.5,1180.0 L 74.4,1176.0 L 74.2,1171.9 L 74.1,1168.0 L 74.0,1164.2 L 73.9,1160.4 L 73.8,1156.8 L 73.7,1153.2 L 73.7,1149.8 L 73.6,1146.3 L 73.5,1142.7 L 73.5,1138.6 L 73.4,1134.0 L 73.3,1128.9 L 73.2,1123.6 L 73.1,1118.4 L 72.9,1113.4 L 72.8,1108.5 L 72.6,1103.7 L 72.5,1099.0 L 72.3,1094.5 L 72.2,1090.1 L 72.0,1085.8 L 71.9,1081.6 L 71.8,1077.5 L 71.7,1073.5 L 71.7,1069.5 L 71.6,1065.7 L 71.6,1062.0 L 71.7,1058.3 L 71.8,1054.7 L 71.9,1051.1 L 72.1,1047.6 L 72.3,1044.2 L 72.6,1040.8 L 72.9,1037.4 L 73.3,1034.1 L 73.7,1030.7 L 74.3,1027.5 L 74.9,1024.2 L 75.5,1020.9 L 76.3,1017.7 L 77.1,1014.4 L 78.0,1011.1 L 79.1,1007.8 L 80.2,1004.5 L 81.5,1001.1 L 82.9,997.6 L 84.6,994.0 L 86.4,990.4 L 88.4,986.7 L 90.6,983.1 L 92.9,979.4 L 95.4,975.8 L 98.0,972.2 L 100.7,968.5 L 103.5,965.0 L 106.4,961.4 L 109.3,957.9 L 112.3,954.4 L 115.4,951.0 L 118.5,947.6 L 121.6,944.3 L 124.7,941.0 L 127.8,937.8 L 130.8,934.7 L 133.9,931.7 L 136.9,928.7 L 139.8,925.8 L 142.6,923.0 L 145.3,920.3 L 148.0,917.7 L 150.5,915.1 L 152.9,912.7 L 155.2,910.4 L 157.3,908.2 L 159.4,905.9 L 161.9,903.0 L 164.8,899.6 L 167.6,896.2 L 169.4,894.0 L 170.3,892.9 Z" data-label="Peroneal vein (right)"><title>Peroneal vein (right)</title></path>
    <path id="gastroc-right" d="M 161.7,890.1 L 154.7,889.9 L 154.7,892.3 L 154.6,897.1 L 154.5,902.2 L 154.4,906.2 L 154.4,909.4 L 154.3,912.2 L 154.2,915.3 L 154.2,918.5 L 154.1,921.9 L 154.0,925.4 L 154.0,929.1 L 153.9,932.9 L 153.8,936.9 L 153.7,941.0 L 153.6,945.2 L 153.5,949.6 L 153.4,954.0 L 153.4,958.5 L 153.3,963.1 L 153.2,967.8 L 153.1,972.5 L 153.0,977.3 L 152.9,982.1 L 152.8,987.0 L 152.7,991.9 L 152.6,996.8 L 152.5,1001.7 L 152.4,1006.6 L 152.3,1011.5 L 152.2,1016.4 L 152.1,1021.2 L 152.0,1026.0 L 151.9,1030.8 L 151.8,1035.5 L 151.7,1040.1 L 151.6,1044.7 L 151.5,1049.1 L 151.4,1053.5 L 151.4,1057.8 L 151.3,1061.9 L 151.2,1066.0 L 151.1,1069.9 L 151.0,1073.7 L 151.0,1077.3 L 150.9,1080.7 L 150.8,1084.0 L 150.8,1087.1 L 150.7,1090.0 L 150.6,1092.8 L 150.6,1095.3 L 150.5,1097.7 L 150.5,1099.9 L 150.7,1101.3 L 151.5,1102.4 L 152.6,1103.2 L 153.9,1103.5 L 155.3,1103.3 L 156.4,1102.5 L 157.2,1101.4 L 157.5,1100.1 L 157.5,1097.8 L 157.6,1095.5 L 157.6,1092.9 L 157.7,1090.2 L 157.8,1087.3 L 157.8,1084.2 L 157.9,1080.9 L 158.0,1077.4 L 158.0,1073.8 L 158.1,1070.0 L 158.2,1066.1 L 158.3,1062.1 L 158.4,1057.9 L 158.4,1053.6 L 158.5,1049.3 L 158.6,1044.8 L 158.7,1040.2 L 158.8,1035.6 L 158.9,1030.9 L 159.0,1026.2 L 159.1,1021.3 L 159.2,1016.5 L 159.3,1011.6 L 159.4,1006.7 L 159.5,1001.8 L 159.6,996.9 L 159.7,992.0 L 159.8,987.1 L 159.9,982.3 L 160.0,977.4 L 160.1,972.6 L 160.2,967.9 L 160.3,963.2 L 160.4,958.6 L 160.4,954.1 L 160.5,949.7 L 160.6,945.4 L 160.7,941.1 L 160.8,937.0 L 160.9,933.1 L 161.0,929.2 L 161.0,925.5 L 161.1,922.0 L 161.2,918.6 L 161.2,915.4 L 161.3,912.4 L 161.3,909.5 L 161.4,906.4 L 161.5,902.3 L 161.6,897.2 L 161.7,892.5 L 161.7,890.1 L 154.7,889.9 Z" data-label="Gastrocnemius vein (right)"><title>Gastrocnemius vein (right)</title></path>
    <path id="spj-left" d="M 435.8,904.4 L 429.8,920.4 L 429.5,922.2 L 429.9,923.9 L 430.9,925.3 L 432.4,926.2 L 434.2,926.5 L 435.9,926.1 L 437.3,925.1 L 438.2,923.6 L 444.2,907.6 L 444.5,905.8 L 444.1,904.1 L 443.1,902.7 L 441.6,901.8 L 439.8,901.5 L 438.1,901.9 L 436.7,902.9 L 435.8,904.4 Z" data-label="Saphenopopliteal junction (left)"><title>Saphenopopliteal junction (left)</title></path>
    <path id="ssv-left" d="M 433.9,906.7 L 434.6,908.5 L 435.5,910.4 L 436.4,912.3 L 437.5,914.0 L 438.6,915.7 L 439.7,917.4 L 440.9,919.0 L 442.1,920.8 L 443.3,922.6 L 444.5,924.6 L 445.8,926.7 L 447.1,929.1 L 448.4,931.8 L 449.7,934.8 L 451.1,938.2 L 452.4,942.0 L 453.8,946.2 L 455.1,951.0 L 456.4,956.3 L 457.7,962.1 L 459.0,968.6 L 460.2,975.6 L 461.3,983.2 L 462.3,990.6 L 463.1,997.0 L 463.6,1001.9 L 464.0,1005.4 L 464.3,1008.4 L 464.5,1011.2 L 464.8,1014.1 L 465.0,1017.1 L 465.3,1020.1 L 465.6,1023.3 L 465.8,1026.6 L 466.1,1029.9 L 466.3,1033.3 L 466.6,1036.8 L 466.8,1040.4 L 467.1,1044.0 L 467.3,1047.7 L 467.6,1051.5 L 467.8,1055.4 L 468.1,1059.3 L 468.3,1063.3 L 468.6,1067.3 L 468.8,1071.4 L 469.1,1075.6 L 469.3,1079.8 L 469.6,1084.1 L 469.8,1088.4 L 470.0,1092.7 L 470.3,1097.1 L 470.5,1101.6 L 470.8,1106.1 L 471.0,1110.6 L 471.3,1115.2 L 471.5,1119.8 L 471.7,1124.4 L 472.0,1129.1 L 472.2,1133.8 L 472.4,1138.5 L 472.7,1143.2 L 472.9,1148.0 L 473.1,1152.8 L 473.4,1157.6 L 473.6,1162.4 L 473.8,1167.2 L 474.1,1172.0 L 474.3,1176.9 L 474.5,1181.7 L 474.7,1186.6 L 474.9,1191.4 L 475.2,1196.3 L 475.4,1201.1 L 475.6,1206.0 L 475.8,1210.8 L 476.0,1215.7 L 476.2,1220.5 L 476.4,1225.3 L 476.6,1230.1 L 476.9,1234.8 L 477.1,1239.6 L 477.3,1244.3 L 477.5,1249.0 L 477.7,1253.7 L 477.9,1258.4 L 478.1,1263.0 L 478.2,1267.6 L 478.4,1272.1 L 478.6,1276.6 L 478.8,1281.1 L 479.0,1285.5 L 479.2,1289.9 L 479.4,1294.2 L 479.5,1298.5 L 479.7,1302.8 L 479.9,1307.0 L 480.1,1311.1 L 480.2,1315.2 L 480.4,1319.2 L 480.6,1323.1 L 480.7,1327.0 L 480.9,1330.8 L 481.0,1334.6 L 481.2,1338.3 L 481.3,1341.9 L 481.5,1345.4 L 481.6,1348.9 L 481.8,1352.3 L 481.9,1355.6 L 482.1,1358.8 L 482.2,1361.9 L 482.3,1365.0 L 482.5,1367.9 L 482.6,1370.8 L 482.7,1373.6 L 482.8,1376.2 L 483.0,1378.8 L 483.1,1381.3 L 483.2,1383.6 L 483.3,1385.9 L 483.4,1388.1 L 483.5,1390.2 L 483.9,1391.9 L 485.0,1393.3 L 486.5,1394.2 L 488.2,1394.5 L 489.9,1394.1 L 491.3,1393.0 L 492.2,1391.5 L 492.5,1389.8 L 492.4,1387.7 L 492.3,1385.5 L 492.2,1383.2 L 492.1,1380.9 L 491.9,1378.4 L 491.8,1375.8 L 491.7,1373.2 L 491.6,1370.4 L 491.5,1367.5 L 491.3,1364.6 L 491.2,1361.5 L 491.1,1358.4 L 490.9,1355.2 L 490.8,1351.9 L 490.6,1348.5 L 490.5,1345.1 L 490.3,1341.5 L 490.2,1337.9 L 490.0,1334.2 L 489.9,1330.5 L 489.7,1326.6 L 489.5,1322.8 L 489.4,1318.8 L 489.2,1314.8 L 489.0,1310.7 L 488.9,1306.6 L 488.7,1302.4 L 488.5,1298.2 L 488.4,1293.9 L 488.2,1289.5 L 488.0,1285.1 L 487.8,1280.7 L 487.6,1276.2 L 487.4,1271.7 L 487.2,1267.2 L 487.0,1262.6 L 486.8,1258.0 L 486.7,1253.3 L 486.5,1248.6 L 486.3,1243.9 L 486.1,1239.2 L 485.8,1234.5 L 485.6,1229.7 L 485.4,1224.9 L 485.2,1220.1 L 485.0,1215.3 L 484.8,1210.4 L 484.6,1205.6 L 484.4,1200.7 L 484.2,1195.9 L 483.9,1191.0 L 483.7,1186.2 L 483.5,1181.3 L 483.3,1176.5 L 483.0,1171.6 L 482.8,1166.8 L 482.6,1161.9 L 482.4,1157.1 L 482.1,1152.3 L 481.9,1147.5 L 481.7,1142.8 L 481.4,1138.0 L 481.2,1133.3 L 481.0,1128.6 L 480.7,1123.9 L 480.5,1119.3 L 480.2,1114.7 L 480.0,1110.1 L 479.8,1105.6 L 479.5,1101.1 L 479.3,1096.6 L 479.0,1092.2 L 478.8,1087.9 L 478.5,1083.5 L 478.3,1079.3 L 478.0,1075.0 L 477.8,1070.9 L 477.6,1066.8 L 477.3,1062.7 L 477.1,1058.7 L 476.8,1054.8 L 476.5,1050.9 L 476.3,1047.1 L 476.0,1043.4 L 475.8,1039.8 L 475.5,1036.2 L 475.3,1032.7 L 475.0,1029.2 L 474.8,1025.9 L 474.5,1022.6 L 474.3,1019.4 L 474.0,1016.3 L 473.8,1013.3 L 473.5,1010.4 L 473.2,1007.5 L 473.0,1004.5 L 472.6,1000.9 L 472.0,996.0 L 471.2,989.4 L 470.2,981.9 L 469.1,974.2 L 467.8,967.0 L 466.5,960.3 L 465.2,954.2 L 463.8,948.7 L 462.4,943.7 L 460.9,939.1 L 459.5,935.0 L 458.0,931.3 L 456.5,928.0 L 455.1,925.0 L 453.6,922.3 L 452.2,919.9 L 450.8,917.7 L 449.5,915.7 L 448.3,913.9 L 447.1,912.3 L 446.1,910.7 L 445.1,909.3 L 444.3,907.9 L 443.5,906.5 L 442.8,904.9 L 442.1,903.3 L 441.2,901.8 L 439.7,900.8 L 438.0,900.5 L 436.3,900.9 L 434.8,901.8 L 433.8,903.3 L 433.5,905.0 L 433.9,906.7 Z" data-label="Small saphenous vein (left)"><title>Small saphenous vein (left)</title></path>
    <path id="pfv-left" d="M 399.5,391.3 L 400.4,393.6 L 401.7,396.6 L 403.2,400.3 L 404.7,403.9 L 406.1,407.0 L 407.4,409.7 L 408.7,412.2 L 410.0,414.8 L 411.4,417.4 L 412.9,420.2 L 414.4,423.2 L 415.9,426.3 L 417.5,429.6 L 419.1,433.2 L 420.7,436.9 L 422.3,441.0 L 423.9,445.3 L 425.5,449.9 L 427.1,454.9 L 428.6,460.0 L 430.0,465.2 L 431.2,469.9 L 432.2,473.9 L 432.9,477.3 L 433.6,480.5 L 434.3,483.9 L 435.0,487.4 L 435.7,491.0 L 436.4,494.8 L 437.1,498.7 L 437.8,502.7 L 438.5,506.8 L 439.3,511.0 L 440.0,515.4 L 440.7,519.8 L 441.5,524.2 L 442.2,528.8 L 442.9,533.3 L 443.7,538.0 L 444.4,542.6 L 445.1,547.3 L 445.9,552.0 L 446.6,556.7 L 447.3,561.3 L 448.0,566.0 L 448.7,570.6 L 449.4,575.2 L 450.1,579.8 L 450.8,584.3 L 451.4,588.7 L 452.1,593.1 L 452.7,597.3 L 453.3,601.5 L 453.9,605.6 L 454.5,609.5 L 455.1,613.4 L 455.6,617.1 L 456.2,620.6 L 456.7,624.0 L 457.2,627.3 L 457.6,630.3 L 458.1,633.2 L 458.5,635.9 L 458.9,638.4 L 459.2,640.8 L 459.6,643.0 L 460.5,645.4 L 462.2,647.3 L 464.5,648.3 L 467.0,648.4 L 469.4,647.5 L 471.3,645.8 L 472.3,643.5 L 472.4,641.0 L 472.1,638.8 L 471.7,636.4 L 471.3,634.0 L 470.9,631.3 L 470.5,628.4 L 470.0,625.3 L 469.5,622.1 L 469.0,618.7 L 468.5,615.2 L 467.9,611.5 L 467.4,607.6 L 466.8,603.7 L 466.2,599.6 L 465.6,595.4 L 464.9,591.2 L 464.3,586.8 L 463.6,582.4 L 463.0,577.9 L 462.3,573.3 L 461.6,568.7 L 460.9,564.0 L 460.2,559.4 L 459.4,554.7 L 458.7,550.0 L 458.0,545.3 L 457.3,540.6 L 456.5,535.9 L 455.8,531.3 L 455.0,526.7 L 454.3,522.1 L 453.5,517.6 L 452.8,513.2 L 452.1,508.9 L 451.3,504.6 L 450.6,500.4 L 449.9,496.4 L 449.2,492.4 L 448.4,488.6 L 447.7,484.9 L 447.0,481.3 L 446.3,477.9 L 445.6,474.5 L 444.8,470.9 L 443.8,466.7 L 442.6,461.9 L 441.1,456.5 L 439.5,451.0 L 437.8,445.8 L 436.1,440.9 L 434.4,436.3 L 432.7,432.0 L 431.0,428.0 L 429.3,424.2 L 427.6,420.7 L 426.0,417.4 L 424.4,414.3 L 422.9,411.4 L 421.5,408.7 L 420.2,406.2 L 419.0,403.9 L 417.9,401.5 L 416.6,398.7 L 415.2,395.3 L 413.7,391.7 L 412.5,388.7 L 411.6,386.4 Z" data-label="Profunda (deep femoral) vein (left)"><title>Profunda (deep femoral) vein (left)</title></path>
    <path id="per-left" d="M 429.7,892.9 L 430.6,894.0 L 432.4,896.2 L 435.2,899.6 L 438.1,903.0 L 440.6,905.9 L 442.7,908.2 L 444.8,910.4 L 447.1,912.7 L 449.5,915.1 L 452.0,917.7 L 454.7,920.3 L 457.4,923.0 L 460.2,925.8 L 463.1,928.7 L 466.1,931.7 L 469.2,934.7 L 472.2,937.8 L 475.3,941.0 L 478.4,944.3 L 481.5,947.6 L 484.6,951.0 L 487.7,954.4 L 490.7,957.9 L 493.6,961.4 L 496.5,965.0 L 499.3,968.5 L 502.0,972.2 L 504.6,975.8 L 507.1,979.4 L 509.4,983.1 L 511.6,986.7 L 513.6,990.4 L 515.4,994.0 L 517.1,997.6 L 518.5,1001.1 L 519.8,1004.5 L 520.9,1007.8 L 522.0,1011.1 L 522.9,1014.4 L 523.7,1017.7 L 524.5,1020.9 L 525.1,1024.2 L 525.7,1027.5 L 526.3,1030.7 L 526.7,1034.1 L 527.1,1037.4 L 527.4,1040.8 L 527.7,1044.2 L 527.9,1047.6 L 528.1,1051.1 L 528.2,1054.7 L 528.3,1058.3 L 528.4,1062.0 L 528.4,1065.7 L 528.3,1069.5 L 528.3,1073.5 L 528.2,1077.5 L 528.1,1081.6 L 528.0,1085.8 L 527.8,1090.1 L 527.7,1094.5 L 527.5,1099.0 L 527.4,1103.7 L 527.2,1108.5 L 527.1,1113.4 L 526.9,1118.4 L 526.8,1123.6 L 526.7,1128.9 L 526.6,1134.0 L 526.5,1138.6 L 526.5,1142.7 L 526.4,1146.3 L 526.3,1149.8 L 526.3,1153.2 L 526.2,1156.8 L 526.1,1160.4 L 526.0,1164.2 L 525.9,1168.0 L 525.8,1171.9 L 525.6,1176.0 L 525.5,1180.0 L 525.3,1184.2 L 525.2,1188.4 L 525.0,1192.7 L 524.8,1197.0 L 524.7,1201.5 L 524.5,1205.9 L 524.3,1210.4 L 524.1,1215.0 L 523.9,1219.6 L 523.7,1224.2 L 523.5,1228.8 L 523.2,1233.5 L 523.0,1238.2 L 522.8,1242.9 L 522.6,1247.7 L 522.3,1252.4 L 522.1,1257.2 L 521.9,1261.9 L 521.6,1266.7 L 521.4,1271.4 L 521.1,1276.2 L 520.9,1280.9 L 520.6,1285.6 L 520.4,1290.3 L 520.1,1295.0 L 519.9,1299.6 L 519.6,1304.2 L 519.4,1308.7 L 519.2,1313.2 L 518.9,1317.7 L 518.7,1322.1 L 518.4,1326.5 L 518.2,1330.8 L 518.0,1335.0 L 517.7,1339.1 L 517.5,1343.2 L 517.3,1347.2 L 517.1,1351.2 L 516.9,1355.0 L 516.7,1358.8 L 516.5,1362.4 L 516.3,1366.0 L 516.1,1369.5 L 515.9,1372.8 L 515.7,1376.1 L 515.6,1379.2 L 515.4,1382.2 L 515.2,1385.1 L 515.1,1387.9 L 515.0,1390.5 L 514.8,1393.0 L 514.7,1395.4 L 514.6,1397.6 L 514.5,1399.8 L 514.7,1401.2 L 515.4,1402.4 L 516.5,1403.2 L 517.8,1403.5 L 519.2,1403.3 L 520.4,1402.6 L 521.2,1401.5 L 521.5,1400.2 L 521.6,1398.0 L 521.7,1395.7 L 521.8,1393.4 L 522.0,1390.9 L 522.1,1388.2 L 522.2,1385.5 L 522.4,1382.6 L 522.5,1379.6 L 522.7,1376.4 L 522.9,1373.2 L 523.1,1369.8 L 523.3,1366.4 L 523.5,1362.8 L 523.7,1359.2 L 523.9,1355.4 L 524.1,1351.6 L 524.3,1347.6 L 524.5,1343.6 L 524.7,1339.5 L 525.0,1335.4 L 525.2,1331.1 L 525.4,1326.8 L 525.7,1322.5 L 525.9,1318.1 L 526.1,1313.6 L 526.4,1309.1 L 526.6,1304.6 L 526.9,1300.0 L 527.1,1295.3 L 527.4,1290.7 L 527.6,1286.0 L 527.9,1281.3 L 528.1,1276.5 L 528.4,1271.8 L 528.6,1267.1 L 528.8,1262.3 L 529.1,1257.5 L 529.3,1252.8 L 529.6,1248.0 L 529.8,1243.3 L 530.0,1238.6 L 530.2,1233.8 L 530.5,1229.2 L 530.7,1224.5 L 530.9,1219.9 L 531.1,1215.3 L 531.3,1210.7 L 531.5,1206.2 L 531.7,1201.7 L 531.8,1197.3 L 532.0,1193.0 L 532.2,1188.7 L 532.3,1184.4 L 532.5,1180.3 L 532.6,1176.2 L 532.8,1172.2 L 532.9,1168.2 L 533.0,1164.4 L 533.1,1160.6 L 533.2,1157.0 L 533.3,1153.4 L 533.3,1149.9 L 533.4,1146.5 L 533.5,1142.8 L 533.5,1138.7 L 533.6,1134.1 L 533.7,1129.0 L 533.8,1123.8 L 533.9,1118.6 L 534.1,1113.6 L 534.2,1108.7 L 534.4,1103.9 L 534.5,1099.3 L 534.7,1094.7 L 534.8,1090.3 L 535.0,1086.0 L 535.1,1081.8 L 535.2,1077.6 L 535.3,1073.6 L 535.3,1069.6 L 535.4,1065.7 L 535.4,1061.9 L 535.3,1058.2 L 535.2,1054.5 L 535.1,1050.8 L 534.9,1047.2 L 534.7,1043.7 L 534.4,1040.1 L 534.1,1036.6 L 533.7,1033.2 L 533.2,1029.7 L 532.6,1026.3 L 532.0,1022.9 L 531.3,1019.4 L 530.5,1016.0 L 529.6,1012.6 L 528.7,1009.2 L 527.6,1005.7 L 526.4,1002.2 L 525.0,998.5 L 523.5,994.8 L 521.7,991.0 L 519.8,987.1 L 517.7,983.2 L 515.4,979.4 L 512.9,975.6 L 510.4,971.8 L 507.7,968.0 L 504.9,964.3 L 502.0,960.6 L 499.0,957.0 L 496.0,953.4 L 492.9,949.8 L 489.8,946.3 L 486.7,942.9 L 483.5,939.5 L 480.4,936.2 L 477.2,932.9 L 474.1,929.8 L 471.1,926.7 L 468.1,923.7 L 465.2,920.8 L 462.3,918.0 L 459.6,915.3 L 456.9,912.7 L 454.4,910.2 L 452.1,907.8 L 449.9,905.6 L 447.8,903.4 L 445.8,901.2 L 443.4,898.5 L 440.5,895.1 L 437.8,891.8 L 436.0,889.5 L 435.1,888.5 Z" data-label="Peroneal vein (left)"><title>Peroneal vein (left)</title></path>
    <path id="gastroc-left" d="M 445.3,889.9 L 438.3,890.1 L 438.3,892.5 L 438.4,897.2 L 438.5,902.3 L 438.6,906.4 L 438.7,909.5 L 438.7,912.4 L 438.8,915.4 L 438.8,918.6 L 438.9,922.0 L 439.0,925.5 L 439.0,929.2 L 439.1,933.1 L 439.2,937.0 L 439.3,941.1 L 439.4,945.4 L 439.5,949.7 L 439.6,954.1 L 439.6,958.6 L 439.7,963.2 L 439.8,967.9 L 439.9,972.6 L 440.0,977.4 L 440.1,982.3 L 440.2,987.1 L 440.3,992.0 L 440.4,996.9 L 440.5,1001.8 L 440.6,1006.7 L 440.7,1011.6 L 440.8,1016.5 L 440.9,1021.3 L 441.0,1026.2 L 441.1,1030.9 L 441.2,1035.6 L 441.3,1040.2 L 441.4,1044.8 L 441.5,1049.3 L 441.6,1053.6 L 441.6,1057.9 L 441.7,1062.1 L 441.8,1066.1 L 441.9,1070.0 L 442.0,1073.8 L 442.0,1077.4 L 442.1,1080.9 L 442.2,1084.2 L 442.2,1087.3 L 442.3,1090.2 L 442.4,1092.9 L 442.4,1095.5 L 442.5,1097.8 L 442.5,1100.1 L 442.8,1101.4 L 443.6,1102.5 L 444.7,1103.3 L 446.1,1103.5 L 447.4,1103.2 L 448.5,1102.4 L 449.3,1101.3 L 449.5,1099.9 L 449.5,1097.7 L 449.4,1095.3 L 449.4,1092.8 L 449.3,1090.0 L 449.2,1087.1 L 449.2,1084.0 L 449.1,1080.7 L 449.0,1077.3 L 449.0,1073.7 L 448.9,1069.9 L 448.8,1066.0 L 448.7,1061.9 L 448.6,1057.8 L 448.6,1053.5 L 448.5,1049.1 L 448.4,1044.7 L 448.3,1040.1 L 448.2,1035.5 L 448.1,1030.8 L 448.0,1026.0 L 447.9,1021.2 L 447.8,1016.4 L 447.7,1011.5 L 447.6,1006.6 L 447.5,1001.7 L 447.4,996.8 L 447.3,991.9 L 447.2,987.0 L 447.1,982.1 L 447.0,977.3 L 446.9,972.5 L 446.8,967.8 L 446.7,963.1 L 446.6,958.5 L 446.6,954.0 L 446.5,949.6 L 446.4,945.2 L 446.3,941.0 L 446.2,936.9 L 446.1,932.9 L 446.0,929.1 L 446.0,925.4 L 445.9,921.9 L 445.8,918.5 L 445.8,915.3 L 445.7,912.2 L 445.6,909.4 L 445.6,906.2 L 445.5,902.2 L 445.4,897.1 L 445.3,892.3 L 445.3,889.9 L 438.3,890.1 Z" data-label="Gastrocnemius vein (left)"><title>Gastrocnemius vein (left)</title></path>
    <path id="sfj-right" d="M 197.1,403.4 L 200.0,403.9 L 203.3,404.4 L 206.9,404.9 L 210.6,405.6 L 214.3,406.4 L 217.7,407.6 L 220.6,409.2 L 222.9,411.0 L 224.6,412.9 L 233.4,406.2 L 230.4,402.9 L 226.5,399.9 L 222.1,397.5 L 217.4,395.9 L 212.8,394.8 L 208.6,394.1 L 204.9,393.5 L 201.7,393.0 L 198.9,392.6 L 196.7,392.6 L 194.8,393.5 L 193.3,395.1 L 192.6,397.1 L 192.6,399.3 L 193.5,401.2 L 195.1,402.7 L 197.1,403.4 Z" data-label="Saphenofemoral junction (right)"><title>Saphenofemoral junction (right)</title></path>
    <path id="gsv-prox-thigh-right" d="M 224.6,412.9 L 225.8,414.7 L 226.6,416.5 L 227.1,418.4 L 227.6,420.5 L 227.9,422.8 L 228.2,425.4 L 228.3,428.4 L 228.4,431.7 L 228.4,435.5 L 228.4,439.8 L 228.4,444.7 L 228.5,450.2 L 228.5,456.2 L 228.6,462.2 L 228.7,467.6 L 239.2,467.4 L 239.1,462.0 L 239.1,456.1 L 239.1,450.2 L 239.1,444.8 L 239.1,439.9 L 239.1,435.5 L 239.1,431.6 L 239.1,428.0 L 239.0,424.7 L 238.7,421.6 L 238.3,418.6 L 237.7,415.7 L 236.8,412.8 L 235.5,409.6 L 233.4,406.2 Z" data-label="Great saphenous vein (proximal thigh) (right)"><title>Great saphenous vein (proximal thigh) (right)</title></path>
    <path id="gsv-mid-thigh-right" d="M 228.7,467.6 L 228.8,472.1 L 228.9,475.6 L 229.0,478.7 L 229.2,481.7 L 229.3,484.8 L 229.4,488.0 L 229.5,491.2 L 229.6,494.6 L 229.7,498.0 L 229.9,501.5 L 230.0,505.1 L 230.1,508.7 L 230.3,512.5 L 230.4,516.2 L 230.5,520.1 L 230.6,524.0 L 230.8,527.9 L 230.9,531.9 L 231.0,536.0 L 231.1,540.1 L 231.3,544.2 L 231.4,548.4 L 231.5,552.7 L 231.6,556.9 L 231.7,561.2 L 231.8,565.6 L 231.9,569.9 L 232.0,574.3 L 232.1,578.7 L 232.2,583.1 L 232.2,587.6 L 232.3,592.0 L 232.3,596.5 L 232.4,601.0 L 232.4,605.4 L 232.5,609.9 L 232.5,614.4 L 232.5,618.9 L 232.5,623.3 L 232.5,627.8 L 232.4,632.3 L 232.4,636.7 L 232.4,641.1 L 232.3,645.4 L 232.2,649.5 L 241.7,649.7 L 241.8,645.5 L 241.9,641.2 L 242.0,636.8 L 242.0,632.3 L 242.1,627.9 L 242.1,623.4 L 242.1,618.9 L 242.1,614.4 L 242.2,609.9 L 242.1,605.4 L 242.1,600.9 L 242.1,596.4 L 242.1,591.9 L 242.0,587.4 L 242.0,583.0 L 241.9,578.5 L 241.9,574.1 L 241.8,569.7 L 241.7,565.4 L 241.6,561.0 L 241.6,556.7 L 241.5,552.4 L 241.4,548.2 L 241.3,544.0 L 241.2,539.8 L 241.1,535.7 L 241.0,531.6 L 240.9,527.6 L 240.8,523.7 L 240.7,519.8 L 240.6,515.9 L 240.5,512.1 L 240.4,508.4 L 240.2,504.8 L 240.1,501.2 L 240.0,497.7 L 239.9,494.3 L 239.8,490.9 L 239.7,487.6 L 239.6,484.5 L 239.6,481.4 L 239.5,478.4 L 239.4,475.3 L 239.3,471.8 L 239.2,467.4 Z" data-label="Great saphenous vein (mid thigh) (right)"><title>Great saphenous vein (mid thigh) (right)</title></path>
    <path id="gsv-dist-thigh-right" d="M 232.2,649.5 L 232.2,653.5 L 232.1,657.4 L 232.0,661.2 L 231.9,665.1 L 231.8,669.0 L 231.7,673.0 L 231.5,677.1 L 231.4,681.2 L 231.3,685.3 L 231.1,689.4 L 230.8,693.5 L 230.2,697.6 L 229.5,701.8 L 228.8,706.2 L 228.1,710.5 L 227.4,714.9 L 226.7,719.4 L 226.0,723.8 L 225.3,728.2 L 224.5,732.7 L 223.8,737.1 L 223.1,741.6 L 222.4,746.0 L 221.6,750.3 L 220.6,754.6 L 219.6,759.1 L 218.6,763.6 L 217.8,768.1 L 217.1,772.5 L 216.4,776.8 L 215.7,781.1 L 215.0,785.4 L 214.3,789.6 L 213.6,793.8 L 212.9,798.0 L 212.3,802.0 L 211.6,806.1 L 211.0,810.1 L 210.3,814.0 L 209.7,817.8 L 209.1,821.6 L 208.5,825.4 L 207.9,829.0 L 207.3,832.6 L 206.8,836.1 L 206.2,839.5 L 205.7,842.8 L 205.2,846.1 L 204.8,849.4 L 204.5,852.5 L 204.3,855.4 L 204.1,858.3 L 203.6,861.5 L 203.0,865.5 L 211.4,866.8 L 212.1,862.7 L 212.5,859.3 L 212.8,856.2 L 213.1,853.2 L 213.4,850.3 L 213.7,847.3 L 214.2,844.2 L 214.7,840.9 L 215.3,837.5 L 215.9,834.0 L 216.5,830.4 L 217.1,826.8 L 217.7,823.1 L 218.3,819.3 L 219.0,815.4 L 219.6,811.5 L 220.3,807.5 L 221.0,803.5 L 221.7,799.4 L 222.4,795.3 L 223.0,791.1 L 223.8,786.8 L 224.5,782.6 L 225.2,778.3 L 225.9,774.0 L 226.6,769.6 L 227.4,765.4 L 228.4,761.1 L 229.5,756.7 L 230.5,752.1 L 231.3,747.5 L 232.1,743.1 L 232.8,738.6 L 233.5,734.2 L 234.3,729.7 L 235.0,725.3 L 235.8,720.8 L 236.5,716.4 L 237.2,712.0 L 238.0,707.7 L 238.7,703.3 L 239.4,699.0 L 240.0,694.5 L 240.4,690.0 L 240.6,685.7 L 240.8,681.5 L 240.9,677.4 L 241.1,673.3 L 241.2,669.3 L 241.3,665.4 L 241.4,661.5 L 241.6,657.6 L 241.7,653.7 L 241.7,649.7 Z" data-label="Great saphenous vein (distal thigh) (right)"><title>Great saphenous vein (distal thigh) (right)</title></path>
    <path id="gsv-knee-right" d="M 203.0,865.5 L 202.4,870.0 L 201.9,874.2 L 201.7,877.2 L 201.6,878.7 L 209.3,881.5 L 209.9,879.4 L 209.9,878.9 L 201.8,878.2 L 201.7,878.5 L 201.6,880.4 L 201.3,884.2 L 200.9,890.4 L 200.6,899.0 L 201.0,909.0 L 202.2,918.2 L 210.1,916.8 L 209.0,908.3 L 208.7,899.0 L 209.0,890.8 L 209.4,884.8 L 209.8,881.1 L 209.9,879.1 L 210.0,878.2 L 201.7,877.9 L 201.7,878.5 L 202.2,877.1 L 209.9,879.3 L 210.0,877.9 L 210.3,875.1 L 210.8,871.1 L 211.4,866.8 Z" data-label="Great saphenous vein (at the knee) (right)"><title>Great saphenous vein (at the knee) (right)</title></path>
    <path id="gsv-calf-right" d="M 202.2,918.2 L 203.6,924.9 L 204.7,929.2 L 205.4,932.1 L 206.1,934.7 L 206.7,937.3 L 207.4,940.0 L 208.1,942.8 L 208.7,945.5 L 209.2,948.4 L 209.7,951.3 L 210.1,954.2 L 210.2,956.9 L 210.0,959.9 L 209.6,963.1 L 209.3,966.5 L 208.9,969.9 L 208.5,973.5 L 208.1,977.0 L 207.7,980.7 L 207.3,984.4 L 206.9,988.2 L 206.5,992.0 L 206.0,995.9 L 205.6,999.8 L 205.2,1003.8 L 204.7,1007.8 L 204.3,1011.9 L 203.8,1016.1 L 203.4,1020.3 L 202.9,1024.5 L 202.4,1028.8 L 202.0,1033.1 L 201.5,1037.5 L 201.0,1041.9 L 200.5,1046.3 L 200.0,1050.8 L 199.5,1055.3 L 199.0,1059.9 L 198.5,1064.5 L 198.0,1069.1 L 197.5,1073.7 L 197.0,1078.4 L 196.5,1083.1 L 196.0,1087.8 L 195.5,1092.5 L 194.9,1097.3 L 194.4,1102.1 L 193.9,1106.9 L 193.4,1111.7 L 192.8,1116.5 L 192.3,1121.4 L 191.8,1126.2 L 191.3,1131.1 L 190.7,1136.0 L 190.2,1140.8 L 189.7,1145.7 L 189.1,1150.6 L 188.6,1155.5 L 188.1,1160.4 L 187.5,1165.3 L 187.0,1170.2 L 186.5,1175.1 L 185.9,1180.0 L 185.4,1184.9 L 184.9,1189.7 L 184.3,1194.6 L 183.8,1199.4 L 183.3,1204.3 L 182.8,1209.1 L 182.2,1213.9 L 181.7,1218.7 L 181.2,1223.5 L 180.7,1228.2 L 180.2,1232.9 L 179.7,1237.6 L 179.1,1242.3 L 178.6,1246.9 L 178.1,1251.6 L 177.6,1256.2 L 177.1,1260.7 L 176.6,1265.2 L 176.2,1269.7 L 175.7,1274.2 L 175.2,1278.6 L 174.7,1283.0 L 174.2,1287.3 L 173.8,1291.6 L 173.3,1295.9 L 172.9,1300.1 L 172.4,1304.2 L 172.0,1308.3 L 171.5,1312.4 L 171.1,1316.4 L 170.6,1320.4 L 170.2,1324.3 L 169.8,1328.1 L 169.4,1331.9 L 169.0,1335.6 L 168.6,1339.3 L 168.2,1342.9 L 167.8,1346.4 L 167.4,1349.9 L 167.1,1353.3 L 166.6,1356.5 L 166.2,1359.8 L 165.7,1363.0 L 165.3,1366.3 L 165.0,1369.4 L 164.8,1372.3 L 164.5,1375.1 L 164.1,1377.8 L 163.7,1380.5 L 163.3,1383.1 L 162.8,1385.8 L 162.5,1388.4 L 162.2,1390.9 L 162.1,1393.2 L 161.9,1395.4 L 161.7,1397.6 L 161.5,1399.7 L 161.7,1401.2 L 162.4,1402.6 L 163.7,1403.6 L 165.2,1404.0 L 166.7,1403.8 L 168.1,1403.1 L 169.1,1401.8 L 169.5,1400.3 L 169.7,1398.2 L 169.8,1396.1 L 170.0,1393.9 L 170.2,1391.6 L 170.4,1389.3 L 170.7,1386.9 L 171.1,1384.4 L 171.6,1381.8 L 172.0,1379.0 L 172.5,1376.1 L 172.8,1373.1 L 173.0,1370.1 L 173.3,1367.1 L 173.6,1364.1 L 174.1,1361.0 L 174.6,1357.6 L 175.0,1354.2 L 175.4,1350.8 L 175.8,1347.3 L 176.1,1343.8 L 176.5,1340.2 L 176.9,1336.5 L 177.3,1332.8 L 177.8,1329.0 L 178.2,1325.1 L 178.6,1321.2 L 179.0,1317.3 L 179.5,1313.3 L 179.9,1309.2 L 180.4,1305.1 L 180.8,1300.9 L 181.3,1296.7 L 181.7,1292.5 L 182.2,1288.2 L 182.7,1283.9 L 183.1,1279.5 L 183.6,1275.1 L 184.1,1270.6 L 184.6,1266.1 L 185.1,1261.6 L 185.6,1257.0 L 186.1,1252.4 L 186.6,1247.8 L 187.1,1243.2 L 187.6,1238.5 L 188.1,1233.8 L 188.6,1229.1 L 189.1,1224.3 L 189.7,1219.5 L 190.2,1214.8 L 190.7,1210.0 L 191.2,1205.1 L 191.8,1200.3 L 192.3,1195.5 L 192.8,1190.6 L 193.3,1185.7 L 193.9,1180.8 L 194.4,1176.0 L 194.9,1171.1 L 195.5,1166.2 L 196.0,1161.3 L 196.5,1156.4 L 197.1,1151.5 L 197.6,1146.6 L 198.1,1141.7 L 198.7,1136.8 L 199.2,1132.0 L 199.7,1127.1 L 200.3,1122.2 L 200.8,1117.4 L 201.3,1112.6 L 201.8,1107.7 L 202.4,1102.9 L 202.9,1098.2 L 203.4,1093.4 L 203.9,1088.7 L 204.4,1083.9 L 205.0,1079.3 L 205.5,1074.6 L 206.0,1069.9 L 206.5,1065.3 L 207.0,1060.8 L 207.5,1056.2 L 208.0,1051.7 L 208.5,1047.2 L 208.9,1042.8 L 209.4,1038.4 L 209.9,1034.0 L 210.4,1029.7 L 210.8,1025.4 L 211.3,1021.1 L 211.8,1017.0 L 212.2,1012.8 L 212.7,1008.7 L 213.1,1004.7 L 213.6,1000.7 L 214.0,996.7 L 214.4,992.9 L 214.8,989.0 L 215.2,985.3 L 215.7,981.6 L 216.1,977.9 L 216.5,974.3 L 216.8,970.8 L 217.2,967.4 L 217.6,964.0 L 218.0,960.6 L 218.2,957.0 L 218.0,953.4 L 217.6,950.1 L 217.1,947.0 L 216.5,943.9 L 215.8,940.9 L 215.1,938.1 L 214.5,935.4 L 213.8,932.8 L 213.2,930.2 L 212.4,927.3 L 211.5,923.2 L 210.1,916.8 Z" data-label="Great saphenous vein (calf) (right)"><title>Great saphenous vein (calf) (right)</title></path>
    <path id="cfv-right" d="M 239.5,281.7 L 238.5,283.8 L 237.3,286.1 L 236.1,288.5 L 234.7,291.2 L 233.2,294.1 L 231.6,297.2 L 229.9,300.5 L 228.1,303.9 L 226.1,307.6 L 224.2,311.3 L 222.1,315.2 L 220.0,319.2 L 217.9,323.3 L 215.7,327.5 L 213.5,331.8 L 211.3,336.1 L 209.1,340.4 L 206.8,344.7 L 204.6,349.1 L 202.5,353.4 L 200.3,357.7 L 198.2,361.9 L 196.2,366.1 L 194.2,370.2 L 192.3,374.3 L 190.5,378.2 L 188.8,382.0 L 187.2,385.7 L 185.7,389.2 L 184.2,392.7 L 182.9,396.3 L 181.4,400.2 L 197.9,406.1 L 199.3,402.5 L 200.6,399.3 L 201.9,396.1 L 203.4,392.8 L 205.0,389.3 L 206.6,385.7 L 208.4,381.9 L 210.3,378.0 L 212.3,374.0 L 214.3,369.9 L 216.4,365.8 L 218.6,361.5 L 220.8,357.3 L 223.0,353.0 L 225.2,348.8 L 227.5,344.5 L 229.7,340.3 L 231.9,336.1 L 234.1,331.9 L 236.3,327.9 L 238.4,323.9 L 240.5,320.0 L 242.5,316.3 L 244.5,312.7 L 246.4,309.2 L 248.1,305.9 L 249.8,302.8 L 251.4,299.9 L 252.8,297.2 L 254.1,294.8 L 255.3,292.5 L 256.5,290.3 L 257.5,286.8 L 257.0,283.1 L 255.2,279.8 L 252.3,277.5 L 248.8,276.5 L 245.1,277.0 L 241.8,278.8 L 239.5,281.7 Z" data-label="Common femoral vein (right)"><title>Common femoral vein (right)</title></path>
    <path id="fv-prox-right" d="M 181.4,400.2 L 180.1,404.4 L 178.8,408.7 L 177.7,412.8 L 176.9,416.5 L 176.4,420.0 L 176.1,423.2 L 176.1,426.3 L 176.2,429.2 L 176.4,432.2 L 176.6,435.4 L 176.8,439.1 L 176.9,443.5 L 176.9,448.6 L 176.8,454.1 L 176.6,459.2 L 191.6,460.0 L 191.9,454.7 L 192.2,449.0 L 192.4,443.6 L 192.4,438.9 L 192.4,434.9 L 192.4,431.6 L 192.3,428.8 L 192.4,426.5 L 192.6,424.4 L 192.9,422.3 L 193.3,420.0 L 194.1,417.1 L 195.2,413.7 L 196.5,409.9 L 197.9,406.1 Z" data-label="Femoral vein (proximal) (right)"><title>Femoral vein (proximal) (right)</title></path>
    <path id="fv-mid-right" d="M 176.6,459.2 L 176.4,463.5 L 176.2,466.9 L 176.0,470.0 L 175.8,473.1 L 175.6,476.3 L 175.4,479.6 L 175.2,482.9 L 174.9,486.4 L 174.7,490.0 L 174.5,493.6 L 174.3,497.3 L 174.0,501.2 L 173.8,505.0 L 173.6,509.0 L 173.3,513.0 L 173.1,517.1 L 172.8,521.2 L 172.6,525.4 L 172.3,529.7 L 172.0,533.9 L 171.8,538.3 L 171.5,542.6 L 171.3,547.0 L 171.0,551.4 L 170.7,555.8 L 170.5,560.3 L 170.2,564.7 L 170.0,569.2 L 169.7,573.7 L 169.4,578.1 L 169.2,582.6 L 168.9,587.0 L 168.7,591.5 L 168.4,595.9 L 168.2,600.3 L 167.9,604.7 L 167.7,609.0 L 167.5,613.3 L 167.2,617.5 L 167.0,621.7 L 166.8,625.9 L 166.5,630.0 L 166.3,634.1 L 166.1,638.0 L 165.9,642.0 L 165.7,645.9 L 165.5,649.9 L 178.5,650.6 L 178.7,646.7 L 179.0,642.7 L 179.2,638.8 L 179.5,634.8 L 179.7,630.8 L 180.0,626.7 L 180.3,622.5 L 180.5,618.3 L 180.8,614.1 L 181.1,609.8 L 181.4,605.5 L 181.7,601.1 L 182.0,596.7 L 182.3,592.3 L 182.6,587.9 L 182.8,583.4 L 183.1,579.0 L 183.4,574.5 L 183.7,570.1 L 184.0,565.6 L 184.4,561.2 L 184.7,556.7 L 185.0,552.3 L 185.3,547.9 L 185.6,543.5 L 185.9,539.2 L 186.2,534.9 L 186.5,530.6 L 186.8,526.4 L 187.1,522.2 L 187.3,518.0 L 187.6,514.0 L 187.9,510.0 L 188.2,506.0 L 188.5,502.1 L 188.8,498.3 L 189.0,494.6 L 189.3,491.0 L 189.6,487.4 L 189.8,483.9 L 190.1,480.6 L 190.3,477.3 L 190.6,474.2 L 190.8,471.1 L 191.0,468.0 L 191.3,464.4 L 191.6,460.0 Z" data-label="Femoral vein (mid) (right)"><title>Femoral vein (mid) (right)</title></path>
    <path id="fv-dist-right" d="M 165.5,649.9 L 165.3,654.0 L 165.0,658.3 L 164.8,662.6 L 164.5,667.0 L 164.3,671.4 L 164.1,675.9 L 163.8,680.3 L 163.6,684.8 L 163.4,689.3 L 163.1,693.7 L 162.9,698.2 L 162.7,702.7 L 162.5,707.1 L 162.3,711.6 L 162.0,716.0 L 161.8,720.4 L 161.6,724.8 L 161.4,729.2 L 161.2,733.5 L 161.0,737.8 L 160.8,742.0 L 160.6,746.2 L 160.4,750.4 L 160.2,754.4 L 160.0,758.5 L 159.8,762.4 L 159.6,766.3 L 159.5,770.2 L 159.3,773.9 L 159.1,777.6 L 159.0,781.2 L 158.8,784.7 L 158.6,788.1 L 158.5,791.4 L 158.3,794.6 L 158.2,797.7 L 158.0,800.7 L 157.9,803.6 L 157.8,806.6 L 157.6,810.1 L 157.4,814.7 L 170.3,815.3 L 170.6,810.8 L 170.7,807.3 L 170.9,804.3 L 171.0,801.3 L 171.2,798.3 L 171.3,795.2 L 171.5,792.0 L 171.6,788.7 L 171.8,785.3 L 171.9,781.8 L 172.1,778.2 L 172.3,774.5 L 172.5,770.8 L 172.6,766.9 L 172.8,763.0 L 173.0,759.1 L 173.2,755.0 L 173.4,751.0 L 173.6,746.8 L 173.8,742.6 L 174.0,738.4 L 174.2,734.1 L 174.4,729.8 L 174.6,725.4 L 174.8,721.1 L 175.0,716.7 L 175.2,712.2 L 175.5,707.8 L 175.7,703.3 L 175.9,698.9 L 176.1,694.4 L 176.4,689.9 L 176.6,685.5 L 176.8,681.0 L 177.1,676.6 L 177.3,672.1 L 177.5,667.7 L 177.8,663.4 L 178.0,659.0 L 178.2,654.8 L 178.5,650.6 Z" data-label="Femoral vein (distal) (right)"><title>Femoral vein (distal) (right)</title></path>
    <path id="pop-ak-right" d="M 157.4,814.7 L 157.1,820.2 L 156.7,826.0 L 156.5,831.1 L 156.2,835.1 L 156.0,838.2 L 155.9,840.8 L 155.7,843.1 L 155.6,845.6 L 155.4,848.5 L 155.2,851.6 L 168.7,852.5 L 168.8,849.2 L 169.0,846.3 L 169.1,843.8 L 169.2,841.4 L 169.3,838.9 L 169.4,835.8 L 169.6,831.7 L 169.8,826.6 L 170.1,820.9 L 170.3,815.3 Z" data-label="Popliteal vein (above knee) (right)"><title>Popliteal vein (above knee) (right)</title></path>
    <path id="pop-bk-right" d="M 155.2,851.6 L 155.1,854.9 L 155.0,858.3 L 154.8,861.6 L 154.6,864.9 L 154.4,868.3 L 154.2,872.0 L 154.1,875.9 L 154.0,880.0 L 154.1,884.6 L 154.3,889.4 L 154.6,894.3 L 155.0,898.9 L 165.0,898.3 L 164.9,893.8 L 164.9,889.2 L 165.0,884.6 L 165.2,880.4 L 165.5,876.5 L 165.9,872.9 L 166.4,869.5 L 166.9,866.2 L 167.4,862.8 L 167.9,859.4 L 168.3,855.9 L 168.7,852.5 Z" data-label="Popliteal vein (below knee) (right)"><title>Popliteal vein (below knee) (right)</title></path>
    <path id="ptv-right" d="M 155.0,898.9 L 155.4,903.0 L 155.7,906.7 L 156.2,910.1 L 156.7,913.4 L 157.2,916.9 L 157.8,920.4 L 158.4,924.0 L 159.1,927.7 L 159.7,931.4 L 160.4,935.3 L 161.1,939.2 L 161.9,943.2 L 162.6,947.2 L 163.3,951.3 L 164.0,955.5 L 164.7,959.7 L 165.4,964.0 L 166.0,968.4 L 166.6,972.8 L 167.2,977.2 L 167.7,981.7 L 168.2,986.3 L 168.6,990.9 L 168.9,995.3 L 169.2,999.5 L 169.5,1003.4 L 169.7,1007.0 L 169.8,1010.4 L 170.0,1013.7 L 170.2,1017.0 L 170.3,1020.4 L 170.5,1023.7 L 170.6,1027.0 L 170.7,1030.4 L 170.8,1033.7 L 170.9,1037.1 L 171.0,1040.5 L 171.1,1044.0 L 171.1,1047.5 L 171.2,1051.0 L 171.2,1054.6 L 171.2,1058.2 L 171.2,1061.9 L 171.2,1065.7 L 171.2,1069.5 L 171.1,1073.4 L 171.0,1077.4 L 170.9,1081.5 L 170.8,1085.7 L 170.7,1090.0 L 170.5,1094.4 L 170.3,1098.9 L 170.1,1103.6 L 169.8,1108.3 L 169.5,1113.2 L 169.2,1118.2 L 168.9,1123.4 L 168.5,1128.6 L 168.2,1133.7 L 167.8,1138.4 L 167.5,1142.4 L 167.2,1146.0 L 166.9,1149.5 L 166.6,1152.9 L 166.3,1156.5 L 166.0,1160.1 L 165.6,1163.9 L 165.3,1167.7 L 164.9,1171.6 L 164.5,1175.6 L 164.1,1179.7 L 163.6,1183.9 L 163.2,1188.1 L 162.7,1192.4 L 162.3,1196.7 L 161.8,1201.1 L 161.3,1205.6 L 160.8,1210.1 L 160.3,1214.7 L 159.8,1219.2 L 159.3,1223.9 L 158.8,1228.5 L 158.3,1233.2 L 157.7,1237.9 L 157.2,1242.6 L 156.6,1247.4 L 156.1,1252.1 L 155.5,1256.9 L 155.0,1261.7 L 154.4,1266.4 L 153.9,1271.2 L 153.3,1275.9 L 152.7,1280.6 L 152.2,1285.3 L 151.6,1290.0 L 151.1,1294.7 L 150.5,1299.3 L 150.0,1303.9 L 149.4,1308.5 L 148.9,1313.0 L 148.3,1317.4 L 147.8,1321.8 L 147.3,1326.2 L 146.7,1330.5 L 146.2,1334.7 L 145.7,1338.9 L 145.2,1343.0 L 144.7,1347.0 L 144.3,1350.9 L 143.8,1354.8 L 143.4,1358.5 L 142.9,1362.2 L 142.5,1365.7 L 142.1,1369.2 L 141.7,1372.6 L 141.3,1375.8 L 140.9,1379.0 L 140.5,1382.0 L 140.2,1384.9 L 139.9,1387.6 L 139.6,1390.3 L 139.3,1392.8 L 139.0,1395.2 L 138.8,1397.4 L 138.5,1399.6 L 138.6,1401.0 L 139.3,1402.2 L 140.3,1403.1 L 141.6,1403.5 L 143.0,1403.4 L 144.2,1402.7 L 145.1,1401.7 L 145.5,1400.4 L 145.7,1398.2 L 146.0,1396.0 L 146.3,1393.6 L 146.6,1391.1 L 147.0,1388.5 L 147.3,1385.7 L 147.7,1382.8 L 148.0,1379.8 L 148.4,1376.7 L 148.9,1373.5 L 149.3,1370.1 L 149.7,1366.6 L 150.2,1363.1 L 150.6,1359.4 L 151.1,1355.7 L 151.6,1351.8 L 152.1,1347.9 L 152.6,1343.9 L 153.1,1339.8 L 153.7,1335.6 L 154.2,1331.4 L 154.7,1327.1 L 155.3,1322.8 L 155.8,1318.4 L 156.4,1313.9 L 157.0,1309.4 L 157.5,1304.8 L 158.1,1300.2 L 158.7,1295.6 L 159.3,1291.0 L 159.9,1286.3 L 160.4,1281.6 L 161.0,1276.8 L 161.6,1272.1 L 162.2,1267.3 L 162.8,1262.6 L 163.4,1257.8 L 163.9,1253.1 L 164.5,1248.3 L 165.1,1243.6 L 165.6,1238.8 L 166.2,1234.1 L 166.8,1229.5 L 167.3,1224.8 L 167.9,1220.2 L 168.4,1215.6 L 168.9,1211.0 L 169.4,1206.5 L 169.9,1202.0 L 170.4,1197.6 L 170.9,1193.3 L 171.4,1189.0 L 171.9,1184.8 L 172.3,1180.6 L 172.8,1176.5 L 173.2,1172.5 L 173.6,1168.5 L 174.0,1164.7 L 174.4,1160.9 L 174.7,1157.3 L 175.1,1153.7 L 175.4,1150.2 L 175.7,1146.8 L 176.0,1143.1 L 176.4,1139.0 L 176.7,1134.4 L 177.1,1129.2 L 177.5,1124.0 L 177.9,1118.8 L 178.2,1113.8 L 178.5,1108.8 L 178.8,1104.0 L 179.0,1099.4 L 179.3,1094.8 L 179.5,1090.4 L 179.6,1086.0 L 179.8,1081.8 L 179.9,1077.7 L 180.0,1073.6 L 180.1,1069.7 L 180.2,1065.8 L 180.2,1062.0 L 180.2,1058.2 L 180.2,1054.5 L 180.2,1050.9 L 180.2,1047.4 L 180.2,1043.8 L 180.1,1040.3 L 180.1,1036.9 L 180.0,1033.5 L 179.9,1030.1 L 179.8,1026.7 L 179.7,1023.4 L 179.6,1020.0 L 179.4,1016.6 L 179.3,1013.3 L 179.1,1009.9 L 179.0,1006.5 L 178.8,1002.9 L 178.6,999.0 L 178.4,994.7 L 178.0,990.1 L 177.6,985.4 L 177.2,980.7 L 176.6,976.1 L 176.1,971.5 L 175.5,967.0 L 174.9,962.6 L 174.2,958.2 L 173.5,953.9 L 172.8,949.7 L 172.1,945.5 L 171.4,941.5 L 170.7,937.5 L 170.0,933.6 L 169.4,929.7 L 168.7,926.0 L 168.1,922.4 L 167.5,918.8 L 167.0,915.4 L 166.5,912.0 L 166.0,908.8 L 165.6,905.5 L 165.3,902.1 L 165.0,898.3 Z" data-label="Posterior tibial vein (right)"><title>Posterior tibial vein (right)</title></path>
    <path id="sfj-left" d="M 401.1,392.6 L 398.3,393.0 L 395.1,393.5 L 391.4,394.1 L 387.2,394.8 L 382.6,395.9 L 377.9,397.5 L 373.5,399.9 L 369.6,402.9 L 366.6,406.2 L 375.4,412.9 L 377.1,411.0 L 379.4,409.2 L 382.3,407.6 L 385.7,406.4 L 389.4,405.6 L 393.1,404.9 L 396.7,404.4 L 400.0,403.9 L 402.9,403.4 L 404.9,402.7 L 406.5,401.2 L 407.4,399.3 L 407.4,397.1 L 406.7,395.1 L 405.2,393.5 L 403.3,392.6 L 401.1,392.6 Z" data-label="Saphenofemoral junction (left)"><title>Saphenofemoral junction (left)</title></path>
    <path id="gsv-prox-thigh-left" d="M 366.6,406.2 L 364.5,409.6 L 363.2,412.8 L 362.3,415.7 L 361.7,418.6 L 361.3,421.6 L 361.0,424.7 L 360.9,428.0 L 360.9,431.6 L 360.9,435.5 L 360.9,439.9 L 360.9,444.8 L 360.9,450.2 L 360.9,456.1 L 360.9,462.0 L 360.8,467.4 L 371.3,467.6 L 371.4,462.2 L 371.5,456.2 L 371.5,450.2 L 371.6,444.7 L 371.6,439.8 L 371.6,435.5 L 371.6,431.7 L 371.7,428.4 L 371.8,425.4 L 372.1,422.8 L 372.4,420.5 L 372.9,418.4 L 373.4,416.5 L 374.2,414.7 L 375.4,412.9 Z" data-label="Great saphenous vein (proximal thigh) (left)"><title>Great saphenous vein (proximal thigh) (left)</title></path>
    <path id="gsv-mid-thigh-left" d="M 360.8,467.4 L 360.7,471.8 L 360.6,475.3 L 360.5,478.4 L 360.4,481.4 L 360.4,484.5 L 360.3,487.6 L 360.2,490.9 L 360.1,494.3 L 360.0,497.7 L 359.9,501.2 L 359.8,504.8 L 359.6,508.4 L 359.5,512.1 L 359.4,515.9 L 359.3,519.8 L 359.2,523.7 L 359.1,527.6 L 359.0,531.6 L 358.9,535.7 L 358.8,539.8 L 358.7,544.0 L 358.6,548.2 L 358.5,552.4 L 358.4,556.7 L 358.4,561.0 L 358.3,565.4 L 358.2,569.7 L 358.1,574.1 L 358.1,578.5 L 358.0,583.0 L 358.0,587.4 L 357.9,591.9 L 357.9,596.4 L 357.9,600.9 L 357.9,605.4 L 357.8,609.9 L 357.9,614.4 L 357.9,618.9 L 357.9,623.4 L 357.9,627.9 L 358.0,632.3 L 358.0,636.8 L 358.1,641.2 L 358.2,645.5 L 358.3,649.7 L 367.8,649.5 L 367.7,645.4 L 367.6,641.1 L 367.6,636.7 L 367.6,632.3 L 367.5,627.8 L 367.5,623.3 L 367.5,618.9 L 367.5,614.4 L 367.5,609.9 L 367.6,605.4 L 367.6,601.0 L 367.7,596.5 L 367.7,592.0 L 367.8,587.6 L 367.8,583.1 L 367.9,578.7 L 368.0,574.3 L 368.1,569.9 L 368.2,565.6 L 368.3,561.2 L 368.4,556.9 L 368.5,552.7 L 368.6,548.4 L 368.7,544.2 L 368.9,540.1 L 369.0,536.0 L 369.1,531.9 L 369.2,527.9 L 369.4,524.0 L 369.5,520.1 L 369.6,516.2 L 369.7,512.5 L 369.9,508.7 L 370.0,505.1 L 370.1,501.5 L 370.3,498.0 L 370.4,494.6 L 370.5,491.2 L 370.6,488.0 L 370.7,484.8 L 370.8,481.7 L 371.0,478.7 L 371.1,475.6 L 371.2,472.1 L 371.3,467.6 Z" data-label="Great saphenous vein (mid thigh) (left)"><title>Great saphenous vein (mid thigh) (left)</title></path>
    <path id="gsv-dist-thigh-left" d="M 358.3,649.7 L 358.3,653.7 L 358.4,657.6 L 358.6,661.5 L 358.7,665.4 L 358.8,669.3 L 358.9,673.3 L 359.1,677.4 L 359.2,681.5 L 359.4,685.7 L 359.6,689.9 L 359.7,694.2 L 359.9,698.5 L 360.1,702.8 L 360.3,707.1 L 360.5,711.5 L 360.7,715.9 L 360.9,720.3 L 361.2,724.7 L 361.4,729.2 L 361.6,733.6 L 361.9,738.1 L 362.1,742.6 L 362.3,747.0 L 362.6,751.5 L 363.0,756.2 L 363.7,760.9 L 364.6,765.3 L 365.4,769.6 L 366.1,774.0 L 366.8,778.3 L 367.5,782.6 L 368.2,786.8 L 369.0,791.1 L 369.6,795.3 L 370.3,799.4 L 371.0,803.5 L 371.7,807.5 L 372.4,811.5 L 373.0,815.4 L 373.7,819.3 L 374.3,823.1 L 374.9,826.8 L 375.5,830.4 L 376.1,834.0 L 376.7,837.5 L 377.3,840.9 L 377.8,844.2 L 378.3,847.4 L 378.9,850.5 L 379.4,853.5 L 379.9,856.5 L 380.4,859.5 L 380.9,862.8 L 381.6,866.8 L 390.0,865.5 L 389.3,861.4 L 388.8,858.1 L 388.3,855.1 L 387.8,852.2 L 387.3,849.1 L 386.8,846.0 L 386.3,842.8 L 385.8,839.5 L 385.2,836.1 L 384.7,832.6 L 384.1,829.0 L 383.5,825.4 L 382.9,821.6 L 382.3,817.8 L 381.7,814.0 L 381.0,810.1 L 380.4,806.1 L 379.7,802.0 L 379.1,798.0 L 378.4,793.8 L 377.7,789.6 L 377.0,785.4 L 376.3,781.1 L 375.6,776.8 L 374.9,772.5 L 374.2,768.1 L 373.4,763.6 L 372.6,759.3 L 371.9,755.1 L 371.6,750.9 L 371.4,746.5 L 371.2,742.1 L 371.0,737.6 L 370.7,733.2 L 370.5,728.7 L 370.3,724.3 L 370.1,719.9 L 369.9,715.5 L 369.7,711.1 L 369.6,706.7 L 369.4,702.4 L 369.2,698.1 L 369.0,693.8 L 368.9,689.6 L 368.7,685.4 L 368.6,681.2 L 368.5,677.1 L 368.3,673.0 L 368.2,669.0 L 368.1,665.1 L 368.0,661.2 L 367.9,657.4 L 367.8,653.5 L 367.8,649.5 Z" data-label="Great saphenous vein (distal thigh) (left)"><title>Great saphenous vein (distal thigh) (left)</title></path>
    <path id="gsv-knee-left" d="M 381.6,866.8 L 382.2,871.1 L 382.7,875.1 L 383.0,877.9 L 383.1,879.3 L 390.8,877.1 L 391.3,878.5 L 391.3,877.9 L 383.0,878.2 L 383.1,879.1 L 383.2,881.1 L 383.6,884.8 L 383.9,890.7 L 384.0,898.8 L 383.2,908.2 L 382.0,916.9 L 389.9,918.1 L 391.2,909.1 L 392.0,899.2 L 392.0,890.5 L 391.7,884.3 L 391.4,880.4 L 391.3,878.5 L 391.2,878.2 L 383.1,878.9 L 383.1,879.4 L 383.7,881.5 L 391.4,878.7 L 391.3,877.2 L 391.1,874.2 L 390.6,870.0 L 390.0,865.5 Z" data-label="Great saphenous vein (at the knee) (left)"><title>Great saphenous vein (at the knee) (left)</title></path>
    <path id="gsv-calf-left" d="M 382.0,916.9 L 380.9,923.4 L 380.2,927.5 L 379.7,930.5 L 379.3,933.5 L 379.4,936.6 L 379.7,939.5 L 380.0,942.3 L 380.3,945.2 L 380.7,948.1 L 381.0,951.1 L 381.3,954.2 L 381.7,957.4 L 382.0,960.7 L 382.4,964.0 L 382.8,967.4 L 383.2,970.8 L 383.5,974.3 L 383.9,977.9 L 384.3,981.6 L 384.8,985.3 L 385.2,989.0 L 385.6,992.9 L 386.0,996.7 L 386.4,1000.7 L 386.9,1004.7 L 387.3,1008.7 L 387.8,1012.8 L 388.2,1017.0 L 388.7,1021.1 L 389.2,1025.4 L 389.6,1029.7 L 390.1,1034.0 L 390.6,1038.4 L 391.1,1042.8 L 391.5,1047.2 L 392.0,1051.7 L 392.5,1056.2 L 393.0,1060.8 L 393.5,1065.3 L 394.0,1069.9 L 394.5,1074.6 L 395.0,1079.3 L 395.6,1083.9 L 396.1,1088.7 L 396.6,1093.4 L 397.1,1098.2 L 397.6,1102.9 L 398.2,1107.7 L 398.7,1112.6 L 399.2,1117.4 L 399.7,1122.2 L 400.3,1127.1 L 400.8,1132.0 L 401.3,1136.8 L 401.9,1141.7 L 402.4,1146.6 L 402.9,1151.5 L 403.5,1156.4 L 404.0,1161.3 L 404.5,1166.2 L 405.1,1171.1 L 405.6,1176.0 L 406.1,1180.8 L 406.7,1185.7 L 407.2,1190.6 L 407.7,1195.5 L 408.2,1200.3 L 408.8,1205.1 L 409.3,1210.0 L 409.8,1214.8 L 410.3,1219.5 L 410.9,1224.3 L 411.4,1229.1 L 411.9,1233.8 L 412.4,1238.5 L 412.9,1243.2 L 413.4,1247.8 L 413.9,1252.4 L 414.4,1257.0 L 414.9,1261.6 L 415.4,1266.1 L 415.9,1270.6 L 416.4,1275.1 L 416.9,1279.5 L 417.3,1283.9 L 417.8,1288.2 L 418.3,1292.5 L 418.7,1296.7 L 419.2,1300.9 L 419.6,1305.1 L 420.1,1309.2 L 420.5,1313.3 L 421.0,1317.3 L 421.4,1321.2 L 421.8,1325.1 L 422.2,1329.0 L 422.7,1332.8 L 423.1,1336.5 L 423.5,1340.2 L 423.8,1343.8 L 424.2,1347.3 L 424.6,1350.8 L 425.0,1354.2 L 425.3,1357.5 L 425.7,1360.8 L 426.1,1364.0 L 426.4,1367.1 L 426.7,1370.2 L 427.0,1373.1 L 427.4,1376.0 L 427.7,1378.8 L 428.0,1381.6 L 428.3,1384.2 L 428.5,1386.8 L 428.8,1389.3 L 429.1,1391.7 L 429.3,1394.0 L 429.6,1396.2 L 429.8,1398.3 L 430.0,1400.4 L 430.5,1401.9 L 431.5,1403.1 L 432.9,1403.8 L 434.4,1404.0 L 435.9,1403.5 L 437.1,1402.5 L 437.8,1401.1 L 438.0,1399.6 L 437.7,1397.5 L 437.5,1395.3 L 437.3,1393.1 L 437.0,1390.8 L 436.8,1388.4 L 436.5,1385.9 L 436.2,1383.4 L 435.9,1380.7 L 435.6,1378.0 L 435.3,1375.2 L 435.0,1372.3 L 434.7,1369.3 L 434.3,1366.2 L 434.0,1363.1 L 433.7,1359.9 L 433.3,1356.7 L 432.9,1353.3 L 432.6,1349.9 L 432.2,1346.4 L 431.8,1342.9 L 431.4,1339.3 L 431.0,1335.6 L 430.6,1331.9 L 430.2,1328.1 L 429.8,1324.3 L 429.4,1320.4 L 428.9,1316.4 L 428.5,1312.4 L 428.0,1308.3 L 427.6,1304.2 L 427.1,1300.1 L 426.7,1295.9 L 426.2,1291.6 L 425.8,1287.3 L 425.3,1283.0 L 424.8,1278.6 L 424.3,1274.2 L 423.8,1269.7 L 423.4,1265.2 L 422.9,1260.7 L 422.4,1256.2 L 421.9,1251.6 L 421.4,1246.9 L 420.9,1242.3 L 420.3,1237.6 L 419.8,1232.9 L 419.3,1228.2 L 418.8,1223.5 L 418.3,1218.7 L 417.8,1213.9 L 417.2,1209.1 L 416.7,1204.3 L 416.2,1199.4 L 415.7,1194.6 L 415.1,1189.7 L 414.6,1184.9 L 414.1,1180.0 L 413.5,1175.1 L 413.0,1170.2 L 412.5,1165.3 L 411.9,1160.4 L 411.4,1155.5 L 410.9,1150.6 L 410.3,1145.7 L 409.8,1140.8 L 409.3,1136.0 L 408.7,1131.1 L 408.2,1126.2 L 407.7,1121.4 L 407.2,1116.5 L 406.6,1111.7 L 406.1,1106.9 L 405.6,1102.1 L 405.1,1097.3 L 404.5,1092.5 L 404.0,1087.8 L 403.5,1083.1 L 403.0,1078.4 L 402.5,1073.7 L 402.0,1069.1 L 401.5,1064.5 L 401.0,1059.9 L 400.5,1055.3 L 400.0,1050.8 L 399.5,1046.3 L 399.0,1041.9 L 398.5,1037.5 L 398.0,1033.1 L 397.6,1028.8 L 397.1,1024.5 L 396.6,1020.3 L 396.2,1016.1 L 395.7,1011.9 L 395.3,1007.8 L 394.8,1003.8 L 394.4,999.8 L 394.0,995.9 L 393.5,992.0 L 393.1,988.2 L 392.7,984.4 L 392.3,980.7 L 391.9,977.0 L 391.5,973.5 L 391.1,969.9 L 390.7,966.5 L 390.4,963.1 L 390.0,959.8 L 389.6,956.5 L 389.3,953.4 L 388.9,950.3 L 388.6,947.2 L 388.3,944.3 L 388.0,941.4 L 387.7,938.6 L 387.4,936.1 L 387.3,933.9 L 387.6,931.7 L 388.1,928.9 L 388.8,924.7 L 389.9,918.1 Z" data-label="Great saphenous vein (calf) (left)"><title>Great saphenous vein (calf) (left)</title></path>
    <path id="cfv-left" d="M 343.5,290.3 L 344.7,292.5 L 345.9,294.8 L 347.2,297.2 L 348.6,299.9 L 350.2,302.8 L 351.9,305.9 L 353.6,309.2 L 355.5,312.7 L 357.5,316.3 L 359.5,320.0 L 361.6,323.9 L 363.7,327.9 L 365.9,331.9 L 368.1,336.1 L 370.3,340.3 L 372.5,344.5 L 374.8,348.8 L 377.0,353.0 L 379.2,357.3 L 381.4,361.5 L 383.6,365.8 L 385.7,369.9 L 387.7,374.0 L 389.7,378.0 L 391.6,381.9 L 393.4,385.7 L 395.0,389.3 L 396.6,392.8 L 398.1,396.1 L 399.4,399.3 L 400.7,402.5 L 402.1,406.1 L 418.6,400.2 L 417.1,396.3 L 415.8,392.7 L 414.3,389.2 L 412.8,385.7 L 411.2,382.0 L 409.5,378.2 L 407.7,374.3 L 405.8,370.2 L 403.8,366.1 L 401.8,361.9 L 399.7,357.7 L 397.5,353.4 L 395.4,349.1 L 393.2,344.7 L 390.9,340.4 L 388.7,336.1 L 386.5,331.8 L 384.3,327.5 L 382.1,323.3 L 380.0,319.2 L 377.9,315.2 L 375.8,311.3 L 373.9,307.6 L 371.9,303.9 L 370.1,300.5 L 368.4,297.2 L 366.8,294.1 L 365.3,291.2 L 363.9,288.5 L 362.7,286.1 L 361.5,283.8 L 360.5,281.7 L 358.2,278.8 L 354.9,277.0 L 351.2,276.5 L 347.7,277.5 L 344.8,279.8 L 343.0,283.1 L 342.5,286.8 L 343.5,290.3 Z" data-label="Common femoral vein (left)"><title>Common femoral vein (left)</title></path>
    <path id="fv-prox-left" d="M 402.1,406.1 L 403.5,409.9 L 404.8,413.7 L 405.9,417.1 L 406.7,420.0 L 407.1,422.3 L 407.4,424.4 L 407.6,426.5 L 407.7,428.8 L 407.6,431.6 L 407.6,434.9 L 407.6,438.9 L 407.6,443.6 L 407.8,449.0 L 408.1,454.7 L 408.4,460.0 L 423.4,459.2 L 423.2,454.1 L 423.1,448.6 L 423.1,443.5 L 423.2,439.1 L 423.4,435.4 L 423.6,432.2 L 423.8,429.2 L 423.9,426.3 L 423.9,423.2 L 423.6,420.0 L 423.1,416.5 L 422.3,412.8 L 421.2,408.7 L 419.9,404.4 L 418.6,400.2 Z" data-label="Femoral vein (proximal) (left)"><title>Femoral vein (proximal) (left)</title></path>
    <path id="fv-mid-left" d="M 408.4,460.0 L 408.7,464.4 L 409.0,468.0 L 409.2,471.1 L 409.4,474.2 L 409.7,477.3 L 409.9,480.6 L 410.2,483.9 L 410.4,487.4 L 410.7,491.0 L 411.0,494.6 L 411.2,498.3 L 411.5,502.1 L 411.8,506.0 L 412.1,510.0 L 412.4,514.0 L 412.7,518.0 L 412.9,522.2 L 413.2,526.4 L 413.5,530.6 L 413.8,534.9 L 414.1,539.2 L 414.4,543.5 L 414.7,547.9 L 415.0,552.3 L 415.3,556.7 L 415.6,561.2 L 416.0,565.6 L 416.3,570.1 L 416.6,574.5 L 416.9,579.0 L 417.2,583.4 L 417.4,587.9 L 417.7,592.3 L 418.0,596.7 L 418.3,601.1 L 418.6,605.5 L 418.9,609.8 L 419.2,614.1 L 419.5,618.3 L 419.7,622.5 L 420.0,626.7 L 420.3,630.8 L 420.5,634.8 L 420.8,638.8 L 421.0,642.7 L 421.3,646.7 L 421.5,650.6 L 434.5,649.9 L 434.3,645.9 L 434.1,642.0 L 433.9,638.0 L 433.7,634.1 L 433.5,630.0 L 433.2,625.9 L 433.0,621.7 L 432.8,617.5 L 432.5,613.3 L 432.3,609.0 L 432.1,604.7 L 431.8,600.3 L 431.6,595.9 L 431.3,591.5 L 431.1,587.0 L 430.8,582.6 L 430.6,578.1 L 430.3,573.7 L 430.0,569.2 L 429.8,564.7 L 429.5,560.3 L 429.3,555.8 L 429.0,551.4 L 428.7,547.0 L 428.5,542.6 L 428.2,538.3 L 428.0,533.9 L 427.7,529.7 L 427.4,525.4 L 427.2,521.2 L 426.9,517.1 L 426.7,513.0 L 426.4,509.0 L 426.2,505.0 L 426.0,501.2 L 425.7,497.3 L 425.5,493.6 L 425.3,490.0 L 425.1,486.4 L 424.8,482.9 L 424.6,479.6 L 424.4,476.3 L 424.2,473.1 L 424.0,470.0 L 423.8,466.9 L 423.6,463.5 L 423.4,459.2 Z" data-label="Femoral vein (mid) (left)"><title>Femoral vein (mid) (left)</title></path>
    <path id="fv-dist-left" d="M 421.5,650.6 L 421.8,654.8 L 422.0,659.0 L 422.2,663.4 L 422.5,667.7 L 422.7,672.1 L 422.9,676.6 L 423.2,681.0 L 423.4,685.5 L 423.6,689.9 L 423.9,694.4 L 424.1,698.9 L 424.3,703.3 L 424.5,707.8 L 424.8,712.2 L 425.0,716.7 L 425.2,721.1 L 425.4,725.4 L 425.6,729.8 L 425.8,734.1 L 426.0,738.4 L 426.2,742.6 L 426.4,746.8 L 426.6,751.0 L 426.8,755.0 L 427.0,759.1 L 427.2,763.0 L 427.4,766.9 L 427.5,770.8 L 427.7,774.5 L 427.9,778.2 L 428.1,781.8 L 428.2,785.3 L 428.4,788.7 L 428.5,792.0 L 428.7,795.2 L 428.8,798.3 L 429.0,801.3 L 429.1,804.3 L 429.3,807.3 L 429.4,810.8 L 429.7,815.3 L 442.6,814.7 L 442.4,810.1 L 442.2,806.6 L 442.1,803.6 L 442.0,800.7 L 441.8,797.7 L 441.7,794.6 L 441.5,791.4 L 441.4,788.1 L 441.2,784.7 L 441.0,781.2 L 440.9,777.6 L 440.7,773.9 L 440.5,770.2 L 440.4,766.3 L 440.2,762.4 L 440.0,758.5 L 439.8,754.4 L 439.6,750.4 L 439.4,746.2 L 439.2,742.0 L 439.0,737.8 L 438.8,733.5 L 438.6,729.2 L 438.4,724.8 L 438.2,720.4 L 438.0,716.0 L 437.7,711.6 L 437.5,707.1 L 437.3,702.7 L 437.1,698.2 L 436.9,693.7 L 436.6,689.3 L 436.4,684.8 L 436.2,680.3 L 435.9,675.9 L 435.7,671.4 L 435.5,667.0 L 435.2,662.6 L 435.0,658.3 L 434.7,654.0 L 434.5,649.9 Z" data-label="Femoral vein (distal) (left)"><title>Femoral vein (distal) (left)</title></path>
    <path id="pop-ak-left" d="M 429.7,815.3 L 429.9,820.9 L 430.2,826.6 L 430.4,831.7 L 430.6,835.8 L 430.7,838.9 L 430.8,841.4 L 430.9,843.8 L 431.0,846.3 L 431.2,849.2 L 431.3,852.5 L 444.8,851.6 L 444.6,848.5 L 444.4,845.6 L 444.3,843.1 L 444.1,840.8 L 444.0,838.2 L 443.8,835.1 L 443.5,831.1 L 443.3,826.0 L 442.9,820.2 L 442.6,814.7 Z" data-label="Popliteal vein (above knee) (left)"><title>Popliteal vein (above knee) (left)</title></path>
    <path id="pop-bk-left" d="M 431.3,852.5 L 431.7,855.9 L 432.1,859.4 L 432.6,862.8 L 433.1,866.2 L 433.6,869.5 L 434.1,872.9 L 434.5,876.5 L 434.8,880.4 L 435.0,884.6 L 435.1,889.2 L 435.1,893.8 L 435.0,898.3 L 445.0,898.9 L 445.4,894.3 L 445.7,889.4 L 445.9,884.6 L 446.0,880.0 L 445.9,875.9 L 445.8,872.0 L 445.6,868.3 L 445.4,864.9 L 445.2,861.6 L 445.0,858.3 L 444.9,854.9 L 444.8,851.6 Z" data-label="Popliteal vein (below knee) (left)"><title>Popliteal vein (below knee) (left)</title></path>
    <path id="ptv-left" d="M 435.0,898.3 L 434.7,902.1 L 434.4,905.5 L 434.0,908.8 L 433.5,912.0 L 433.0,915.4 L 432.5,918.8 L 431.9,922.4 L 431.3,926.0 L 430.6,929.7 L 430.0,933.6 L 429.3,937.5 L 428.6,941.5 L 427.9,945.5 L 427.2,949.7 L 426.5,953.9 L 425.8,958.2 L 425.1,962.6 L 424.5,967.0 L 423.9,971.5 L 423.4,976.1 L 422.8,980.7 L 422.4,985.4 L 422.0,990.1 L 421.6,994.7 L 421.4,999.0 L 421.2,1002.9 L 421.0,1006.5 L 420.9,1009.9 L 420.7,1013.3 L 420.6,1016.6 L 420.4,1020.0 L 420.3,1023.4 L 420.2,1026.7 L 420.1,1030.1 L 420.0,1033.5 L 419.9,1036.9 L 419.9,1040.3 L 419.8,1043.8 L 419.8,1047.4 L 419.8,1050.9 L 419.8,1054.5 L 419.8,1058.2 L 419.8,1062.0 L 419.8,1065.8 L 419.9,1069.7 L 420.0,1073.6 L 420.1,1077.7 L 420.2,1081.8 L 420.4,1086.0 L 420.5,1090.4 L 420.7,1094.8 L 421.0,1099.4 L 421.2,1104.0 L 421.5,1108.8 L 421.8,1113.8 L 422.1,1118.8 L 422.5,1124.0 L 422.9,1129.2 L 423.3,1134.4 L 423.6,1139.0 L 424.0,1143.1 L 424.3,1146.8 L 424.6,1150.2 L 424.9,1153.7 L 425.3,1157.3 L 425.6,1160.9 L 426.0,1164.7 L 426.4,1168.5 L 426.8,1172.5 L 427.2,1176.5 L 427.7,1180.6 L 428.1,1184.8 L 428.6,1189.0 L 429.1,1193.3 L 429.6,1197.6 L 430.1,1202.0 L 430.6,1206.5 L 431.1,1211.0 L 431.6,1215.6 L 432.1,1220.2 L 432.7,1224.8 L 433.2,1229.5 L 433.8,1234.1 L 434.4,1238.8 L 434.9,1243.6 L 435.5,1248.3 L 436.1,1253.1 L 436.6,1257.8 L 437.2,1262.6 L 437.8,1267.3 L 438.4,1272.1 L 439.0,1276.8 L 439.6,1281.6 L 440.1,1286.3 L 440.7,1291.0 L 441.3,1295.6 L 441.9,1300.2 L 442.5,1304.8 L 443.0,1309.4 L 443.6,1313.9 L 444.2,1318.4 L 444.7,1322.8 L 445.3,1327.1 L 445.8,1331.4 L 446.3,1335.6 L 446.9,1339.8 L 447.4,1343.9 L 447.9,1347.9 L 448.4,1351.8 L 448.9,1355.7 L 449.4,1359.4 L 449.8,1363.1 L 450.3,1366.6 L 450.7,1370.1 L 451.1,1373.5 L 451.6,1376.7 L 452.0,1379.8 L 452.3,1382.8 L 452.7,1385.7 L 453.0,1388.5 L 453.4,1391.1 L 453.7,1393.6 L 454.0,1396.0 L 454.3,1398.2 L 454.5,1400.4 L 454.9,1401.7 L 455.8,1402.7 L 457.0,1403.4 L 458.4,1403.5 L 459.7,1403.1 L 460.7,1402.2 L 461.4,1401.0 L 461.5,1399.6 L 461.2,1397.4 L 461.0,1395.2 L 460.7,1392.8 L 460.4,1390.3 L 460.1,1387.6 L 459.8,1384.9 L 459.5,1382.0 L 459.1,1379.0 L 458.7,1375.8 L 458.3,1372.6 L 457.9,1369.2 L 457.5,1365.7 L 457.1,1362.2 L 456.6,1358.5 L 456.2,1354.8 L 455.7,1350.9 L 455.3,1347.0 L 454.8,1343.0 L 454.3,1338.9 L 453.8,1334.7 L 453.3,1330.5 L 452.7,1326.2 L 452.2,1321.8 L 451.7,1317.4 L 451.1,1313.0 L 450.6,1308.5 L 450.0,1303.9 L 449.5,1299.3 L 448.9,1294.7 L 448.4,1290.0 L 447.8,1285.3 L 447.3,1280.6 L 446.7,1275.9 L 446.1,1271.2 L 445.6,1266.4 L 445.0,1261.7 L 444.5,1256.9 L 443.9,1252.1 L 443.4,1247.4 L 442.8,1242.6 L 442.3,1237.9 L 441.7,1233.2 L 441.2,1228.5 L 440.7,1223.9 L 440.2,1219.2 L 439.7,1214.7 L 439.2,1210.1 L 438.7,1205.6 L 438.2,1201.1 L 437.7,1196.7 L 437.3,1192.4 L 436.8,1188.1 L 436.4,1183.9 L 435.9,1179.7 L 435.5,1175.6 L 435.1,1171.6 L 434.7,1167.7 L 434.4,1163.9 L 434.0,1160.1 L 433.7,1156.5 L 433.4,1152.9 L 433.1,1149.5 L 432.8,1146.0 L 432.5,1142.4 L 432.2,1138.4 L 431.8,1133.7 L 431.5,1128.6 L 431.1,1123.4 L 430.8,1118.2 L 430.5,1113.2 L 430.2,1108.3 L 429.9,1103.6 L 429.7,1098.9 L 429.5,1094.4 L 429.3,1090.0 L 429.2,1085.7 L 429.1,1081.5 L 429.0,1077.4 L 428.9,1073.4 L 428.8,1069.5 L 428.8,1065.7 L 428.8,1061.9 L 428.8,1058.2 L 428.8,1054.6 L 428.8,1051.0 L 428.9,1047.5 L 428.9,1044.0 L 429.0,1040.5 L 429.1,1037.1 L 429.2,1033.7 L 429.3,1030.4 L 429.4,1027.0 L 429.5,1023.7 L 429.7,1020.4 L 429.8,1017.0 L 430.0,1013.7 L 430.2,1010.4 L 430.3,1007.0 L 430.5,1003.4 L 430.8,999.5 L 431.1,995.3 L 431.4,990.9 L 431.8,986.3 L 432.3,981.7 L 432.8,977.2 L 433.4,972.8 L 434.0,968.4 L 434.6,964.0 L 435.3,959.7 L 436.0,955.5 L 436.7,951.3 L 437.4,947.2 L 438.1,943.2 L 438.9,939.2 L 439.6,935.3 L 440.3,931.4 L 440.9,927.7 L 441.6,924.0 L 442.2,920.4 L 442.8,916.9 L 443.3,913.4 L 443.8,910.1 L 444.3,906.7 L 444.6,903.0 L 445.0,898.9 Z" data-label="Posterior tibial vein (left)"><title>Posterior tibial vein (left)</title></path>
  </g>
  <g id="junction-dots" fill="#1a365d" stroke="none">
    <circle cx="190" cy="392" r="5" />
    <circle cx="410" cy="392" r="5" />
  </g>
</svg>
