<?xml version="1.0" encoding="UTF-8"?>
<svg xmlns="http://www.w3.org/2000/svg" viewBox="0 0 600 1453" role="img" aria-labelledby="title-le-arterial-anterior">
  <title id="title-le-arterial-anterior">Lower-extremity arterial system — anterior view</title>
  <desc>Pure-vector filled-vessel diagram of the anterior lower-extremity arterial tree on the shared traced leg silhouette. Vessels are smoothed per anatomical chain (iliac → femoral → popliteal → tibioperoneal run-off); each carries a canonical IAC/ESVS id and fills by stenosis severity.</desc>
  <defs>
    <clipPath id="leg-clip"><path d="M 80.261 25.250 C 80.541 28.138, 82.231 40.175, 84.016 52 C 86.472 68.274, 87.290 77.146, 87.380 88.500 L 87.500 103.500 82.138 116 C 66.671 152.060, 35.931 231.820, 26.394 260.639 C 17.409 287.786, 9.453 338.763, 3.315 408.500 C 0.724 437.945, 0.706 529.275, 3.287 549.500 C 15.404 644.443, 38.115 755.244, 56.462 808.925 C 59.994 819.259, 59.777 823, 55.078 832.717 C 40.618 862.617, 38.897 893.053, 49.772 926.500 C 54.443 940.865, 54.424 945.230, 49.650 954.707 C 37.933 977.961, 29.149 1008.425, 24.336 1042.500 C 21.493 1062.630, 21.773 1118.589, 24.845 1144 C 31.081 1195.595, 38.983 1241.002, 59.043 1340.500 C 70.973 1399.676, 78 1436.272, 78 1439.225 C 78 1439.651, 79.013 1440.018, 80.250 1440.041 C 81.952 1440.072, 83.067 1441.291, 84.826 1445.041 L 87.152 1450 128.576 1450 L 170 1450 170 1438.187 C 170 1417.388, 175.465 1368.153, 185.005 1303 C 196.921 1221.623, 197.902 1217.120, 214.566 1167.208 C 235.295 1105.121, 236.559 1098.835, 235.721 1062 C 234.864 1024.335, 228.035 979.517, 214.847 925 C 208.331 898.063, 209.528 886.679, 232.983 752.500 C 242.078 700.466, 248.444 667.332, 254.532 640.325 C 260.488 613.910, 263.116 598.926, 265.551 577.500 C 267.077 564.075, 267.717 561.617, 274.274 544 C 277.241 536.029, 277.167 522.813, 274.104 513.500 C 272.034 507.206, 271.814 504.759, 271.925 489.247 C 272.065 469.589, 271.282 471.855, 283.656 455.311 L 289.781 447.122 303.141 459.521 C 312.615 468.315, 316.862 472.968, 317.745 475.523 C 319.845 481.602, 319.661 506.275, 317.458 514 C 314.201 525.421, 314.919 537.148, 319.755 551.500 C 322.998 561.123, 324.227 566.967, 325.963 581 C 328.456 601.165, 331.392 616.929, 337.511 643 C 345.422 676.711, 357.225 739.716, 373.114 833.055 C 383.823 895.966, 383.918 898.920, 376.268 931 C 361.382 993.418, 355.313 1037.574, 356.293 1076.346 C 357.025 1105.299, 358.490 1111.433, 377.713 1166 C 391.237 1204.391, 394.482 1216.470, 399.876 1248.500 C 412.709 1324.704, 422.570 1400.820, 423.682 1432.250 L 424.310 1450 466.500 1450 C 513.413 1450, 510.564 1450.417, 513.085 1443.185 C 513.891 1440.874, 514.815 1440, 516.451 1440 C 518.545 1440, 518.832 1439.226, 520.446 1429.250 C 522.048 1419.346, 525.317 1403.238, 543.634 1315 C 568.590 1194.780, 578.179 1126.095, 576.653 1078.500 C 575.160 1031.929, 566.927 995.139, 549.902 958.957 C 542.938 944.158, 542.737 942.064, 547.061 929.438 C 558.977 894.643, 557.472 861.507, 542.713 833.695 C 537.110 823.138, 537.084 820.809, 542.388 804.486 C 564.645 735.980, 591.195 604.416, 596.972 534 C 602.472 466.971, 592.915 342.526, 577.403 279.166 C 572.331 258.447, 546.694 191.365, 519.996 128.956 C 515.163 117.657, 510.714 106.632, 510.109 104.456 C 507.704 95.793, 509.280 70.139, 513.946 42 C 514.994 35.675, 516.153 28.137, 516.520 25.250 L 517.188 20 298.470 20 L 79.752 20 80.261 25.250" /></clipPath>
  </defs>
  <g id="silhouette" fill="#f7fafc" stroke="transparent" stroke-width="2.5" stroke-linejoin="round" stroke-linecap="round">
    <path d="M 80.261 25.250 C 80.541 28.138, 82.231 40.175, 84.016 52 C 86.472 68.274, 87.290 77.146, 87.380 88.500 L 87.500 103.500 82.138 116 C 66.671 152.060, 35.931 231.820, 26.394 260.639 C 17.409 287.786, 9.453 338.763, 3.315 408.500 C 0.724 437.945, 0.706 529.275, 3.287 549.500 C 15.404 644.443, 38.115 755.244, 56.462 808.925 C 59.994 819.259, 59.777 823, 55.078 832.717 C 40.618 862.617, 38.897 893.053, 49.772 926.500 C 54.443 940.865, 54.424 945.230, 49.650 954.707 C 37.933 977.961, 29.149 1008.425, 24.336 1042.500 C 21.493 1062.630, 21.773 1118.589, 24.845 1144 C 31.081 1195.595, 38.983 1241.002, 59.043 1340.500 C 70.973 1399.676, 78 1436.272, 78 1439.225 C 78 1439.651, 79.013 1440.018, 80.250 1440.041 C 81.952 1440.072, 83.067 1441.291, 84.826 1445.041 L 87.152 1450 128.576 1450 L 170 1450 170 1438.187 C 170 1417.388, 175.465 1368.153, 185.005 1303 C 196.921 1221.623, 197.902 1217.120, 214.566 1167.208 C 235.295 1105.121, 236.559 1098.835, 235.721 1062 C 234.864 1024.335, 228.035 979.517, 214.847 925 C 208.331 898.063, 209.528 886.679, 232.983 752.500 C 242.078 700.466, 248.444 667.332, 254.532 640.325 C 260.488 613.910, 263.116 598.926, 265.551 577.500 C 267.077 564.075, 267.717 561.617, 274.274 544 C 277.241 536.029, 277.167 522.813, 274.104 513.500 C 272.034 507.206, 271.814 504.759, 271.925 489.247 C 272.065 469.589, 271.282 471.855, 283.656 455.311 L 289.781 447.122 303.141 459.521 C 312.615 468.315, 316.862 472.968, 317.745 475.523 C 319.845 481.602, 319.661 506.275, 317.458 514 C 314.201 525.421, 314.919 537.148, 319.755 551.500 C 322.998 561.123, 324.227 566.967, 325.963 581 C 328.456 601.165, 331.392 616.929, 337.511 643 C 345.422 676.711, 357.225 739.716, 373.114 833.055 C 383.823 895.966, 383.918 898.920, 376.268 931 C 361.382 993.418, 355.313 1037.574, 356.293 1076.346 C 357.025 1105.299, 358.490 1111.433, 377.713 1166 C 391.237 1204.391, 394.482 1216.470, 399.876 1248.500 C 412.709 1324.704, 422.570 1400.820, 423.682 1432.250 L 424.310 1450 466.500 1450 C 513.413 1450, 510.564 1450.417, 513.085 1443.185 C 513.891 1440.874, 514.815 1440, 516.451 1440 C 518.545 1440, 518.832 1439.226, 520.446 1429.250 C 522.048 1419.346, 525.317 1403.238, 543.634 1315 C 568.590 1194.780, 578.179 1126.095, 576.653 1078.500 C 575.160 1031.929, 566.927 995.139, 549.902 958.957 C 542.938 944.158, 542.737 942.064, 547.061 929.438 C 558.977 894.643, 557.472 861.507, 542.713 833.695 C 537.110 823.138, 537.084 820.809, 542.388 804.486 C 564.645 735.980, 591.195 604.416, 596.972 534 C 602.472 466.971, 592.915 342.526, 577.403 279.166 C 572.331 258.447, 546.694 191.365, 519.996 128.956 C 515.163 117.657, 510.714 106.632, 510.109 104.456 C 507.704 95.793, 509.280 70.139, 513.946 42 C 514.994 35.675, 516.153 28.137, 516.520 25.250 L 517.188 20 298.470 20 L 79.752 20 80.261 25.250" />
  </g>
  <g id="pelvis-hint" fill="none" stroke="transparent" stroke-width="2" stroke-linecap="round" stroke-linejoin="round"></g>
  <g id="side-labels" font-family="system-ui, -apple-system, Segoe UI, Roboto, sans-serif" font-size="34" font-weight="600" fill="#4a5568" text-anchor="middle">
    <text x="150" y="180">R</text>
    <text x="450" y="180">L</text>
  </g>
  <g id="segments" clip-path="url(#leg-clip)" fill="transparent" stroke="transparent" stroke-linejoin="round" stroke-linecap="round" pointer-events="all">
    <path d="M 290.5,150.0 L 290.5,154.0 L 290.5,158.0 L 290.5,162.0 L 290.5,166.0 L 290.5,170.0 L 290.5,174.0 L 290.5,178.0 L 290.5,182.0 L 290.5,186.0 L 290.5,190.0 L 290.5,194.0 L 290.5,198.0 L 290.5,202.0 L 290.5,206.0 L 291.2,209.6 L 293.3,212.7 L 296.4,214.8 L 300.0,215.5 L 303.6,214.8 L 306.7,212.7 L 308.8,209.6 L 309.5,206.0 L 309.5,202.0 L 309.5,198.0 L 309.5,194.0 L 309.5,190.0 L 309.5,186.0 L 309.5,182.0 L 309.5,178.0 L 309.5,174.0 L 309.5,170.0 L 309.5,166.0 L 309.5,162.0 L 309.5,158.0 L 309.5,154.0 L 309.5,150.0 L 308.8,146.4 L 306.7,143.3 L 303.6,141.2 L 300.0,140.5 L 296.4,141.2 L 293.3,143.3 L 291.2,146.4 L 290.5,150.0 Z" fill="#94a3b8" stroke="#475569" stroke-width="2" />
    <path id="dp-right" d="M 129.6,1408.7 L 130.6,1412.0 L 131.8,1415.6 L 133.1,1419.5 L 134.7,1423.6 L 136.7,1427.7 L 139.6,1431.5 L 143.1,1434.7 L 147.0,1437.2 L 150.9,1439.2 L 151.8,1439.5 L 152.8,1439.4 L 153.6,1438.9 L 154.2,1438.1 L 154.5,1437.2 L 154.4,1436.2 L 153.9,1435.4 L 153.1,1434.8 L 149.5,1432.9 L 146.1,1430.7 L 143.3,1428.2 L 141.0,1425.1 L 139.2,1421.6 L 137.8,1417.8 L 136.5,1414.0 L 135.4,1410.5 L 134.4,1407.3 L 133.9,1406.4 L 133.2,1405.8 L 132.2,1405.5 L 131.3,1405.6 L 130.4,1406.1 L 129.8,1406.8 L 129.5,1407.8 L 129.6,1408.7 Z" data-label="Dorsalis pedis artery (right)"><title>Dorsalis pedis artery (right)</title></path>
    <path id="pfa-right" d="M 202.5,406.9 L 201.8,409.0 L 200.8,412.1 L 199.5,416.0 L 198.3,419.8 L 197.1,423.1 L 196.1,426.0 L 195.1,429.1 L 194.0,432.2 L 192.8,435.6 L 191.5,439.2 L 190.2,442.9 L 188.9,446.8 L 187.5,450.7 L 186.1,454.8 L 184.7,459.0 L 183.2,463.3 L 181.8,467.7 L 180.4,472.1 L 179.0,476.5 L 177.7,480.9 L 176.4,485.4 L 175.1,489.8 L 173.9,494.1 L 172.8,498.2 L 171.8,502.2 L 170.8,506.1 L 169.9,509.9 L 169.0,513.8 L 168.1,517.7 L 167.2,521.7 L 166.3,525.7 L 165.4,529.7 L 164.5,533.8 L 163.6,537.9 L 162.8,542.1 L 161.9,546.2 L 161.1,550.4 L 160.3,554.6 L 159.5,558.7 L 158.7,562.9 L 157.9,567.0 L 157.2,571.2 L 156.4,575.3 L 155.7,579.4 L 155.1,583.4 L 154.4,587.4 L 153.8,591.4 L 153.2,595.4 L 152.6,599.4 L 152.0,603.6 L 151.4,607.9 L 150.9,612.3 L 150.4,616.8 L 149.9,621.4 L 149.4,625.9 L 149.0,630.5 L 148.6,635.1 L 148.2,639.6 L 147.8,644.1 L 147.5,648.6 L 147.1,652.9 L 146.8,657.1 L 146.5,661.2 L 146.2,665.2 L 146.0,669.0 L 145.7,672.6 L 145.5,676.0 L 145.3,679.2 L 145.1,682.1 L 144.9,684.8 L 144.7,687.2 L 144.5,689.6 L 144.8,691.7 L 145.8,693.6 L 147.5,694.9 L 149.6,695.5 L 151.7,695.2 L 153.6,694.2 L 154.9,692.5 L 155.5,690.4 L 155.7,688.1 L 155.9,685.6 L 156.1,682.9 L 156.3,680.0 L 156.5,676.8 L 156.7,673.4 L 157.0,669.7 L 157.2,666.0 L 157.5,662.0 L 157.8,657.9 L 158.1,653.7 L 158.4,649.4 L 158.8,645.0 L 159.1,640.6 L 159.5,636.1 L 159.9,631.5 L 160.4,627.0 L 160.8,622.5 L 161.3,618.0 L 161.8,613.6 L 162.3,609.3 L 162.9,605.1 L 163.4,601.0 L 164.0,597.0 L 164.6,593.1 L 165.3,589.2 L 165.9,585.2 L 166.6,581.2 L 167.3,577.2 L 168.0,573.1 L 168.7,569.0 L 169.5,564.9 L 170.3,560.8 L 171.1,556.7 L 171.9,552.5 L 172.7,548.4 L 173.5,544.3 L 174.4,540.2 L 175.2,536.1 L 176.1,532.1 L 177.0,528.1 L 177.9,524.1 L 178.8,520.2 L 179.7,516.3 L 180.6,512.5 L 181.5,508.7 L 182.5,504.9 L 183.5,501.0 L 184.5,497.0 L 185.7,492.8 L 186.9,488.4 L 188.2,484.1 L 189.5,479.7 L 190.9,475.4 L 192.3,471.1 L 193.7,466.8 L 195.1,462.5 L 196.5,458.4 L 197.9,454.3 L 199.3,450.4 L 200.6,446.5 L 201.9,442.8 L 203.2,439.3 L 204.3,435.9 L 205.5,432.7 L 206.5,429.6 L 207.6,426.6 L 208.7,423.3 L 210.0,419.4 L 211.2,415.5 L 212.2,412.5 L 212.9,410.3 Z" data-label="Profunda femoris artery (right)"><title>Profunda femoris artery (right)</title></path>
    <path id="ata-right" d="M 158.5,937.5 L 157.9,939.2 L 156.9,942.1 L 155.6,946.0 L 154.2,950.0 L 153.1,953.2 L 152.0,956.0 L 151.0,958.7 L 149.8,961.5 L 148.6,964.5 L 147.3,967.7 L 145.9,970.9 L 144.5,974.4 L 143.1,977.9 L 141.6,981.6 L 140.0,985.4 L 138.5,989.3 L 137.0,993.3 L 135.4,997.4 L 133.9,1001.6 L 132.4,1005.9 L 130.9,1010.2 L 129.5,1014.6 L 128.1,1019.1 L 126.8,1023.6 L 125.6,1028.2 L 124.4,1032.8 L 123.3,1037.4 L 122.3,1042.0 L 121.5,1046.5 L 120.7,1050.8 L 120.1,1054.7 L 119.6,1058.3 L 119.2,1061.8 L 118.7,1065.3 L 118.4,1068.9 L 118.0,1072.4 L 117.7,1076.0 L 117.4,1079.6 L 117.1,1083.2 L 116.9,1086.9 L 116.6,1090.6 L 116.4,1094.3 L 116.3,1098.1 L 116.1,1101.9 L 116.0,1105.7 L 115.9,1109.6 L 115.8,1113.4 L 115.7,1117.4 L 115.6,1121.3 L 115.6,1125.4 L 115.5,1129.4 L 115.5,1133.5 L 115.5,1137.6 L 115.5,1141.8 L 115.6,1146.0 L 115.6,1150.2 L 115.6,1154.5 L 115.7,1158.9 L 115.8,1163.3 L 115.8,1167.7 L 115.9,1172.2 L 116.0,1176.7 L 116.1,1181.3 L 116.2,1185.9 L 116.3,1190.6 L 116.4,1195.1 L 116.5,1199.4 L 116.6,1203.4 L 116.7,1207.2 L 116.8,1211.0 L 116.9,1214.8 L 117.1,1218.7 L 117.2,1222.7 L 117.4,1226.8 L 117.6,1231.0 L 117.8,1235.3 L 118.0,1239.6 L 118.2,1244.0 L 118.4,1248.4 L 118.7,1252.9 L 118.9,1257.4 L 119.2,1262.0 L 119.4,1266.6 L 119.7,1271.3 L 120.0,1275.9 L 120.2,1280.6 L 120.5,1285.3 L 120.8,1290.0 L 121.1,1294.7 L 121.4,1299.4 L 121.7,1304.1 L 122.0,1308.8 L 122.3,1313.4 L 122.6,1318.1 L 122.9,1322.7 L 123.2,1327.2 L 123.4,1331.7 L 123.7,1336.2 L 124.0,1340.6 L 124.3,1344.9 L 124.6,1349.2 L 124.9,1353.4 L 125.2,1357.5 L 125.4,1361.6 L 125.7,1365.5 L 126.0,1369.4 L 126.2,1373.1 L 126.5,1376.7 L 126.7,1380.3 L 126.9,1383.7 L 127.2,1387.0 L 127.4,1390.1 L 127.6,1393.1 L 127.7,1396.0 L 127.9,1398.7 L 128.1,1401.3 L 128.2,1403.7 L 128.4,1406.0 L 128.5,1408.2 L 128.9,1409.5 L 129.7,1410.6 L 130.9,1411.3 L 132.2,1411.5 L 133.5,1411.1 L 134.6,1410.3 L 135.3,1409.1 L 135.5,1407.8 L 135.4,1405.6 L 135.2,1403.3 L 135.1,1400.9 L 134.9,1398.3 L 134.7,1395.5 L 134.5,1392.7 L 134.3,1389.6 L 134.1,1386.5 L 133.9,1383.2 L 133.7,1379.8 L 133.5,1376.3 L 133.2,1372.6 L 133.0,1368.9 L 132.7,1365.0 L 132.4,1361.1 L 132.2,1357.1 L 131.9,1352.9 L 131.6,1348.7 L 131.3,1344.5 L 131.0,1340.1 L 130.7,1335.7 L 130.4,1331.3 L 130.1,1326.8 L 129.8,1322.2 L 129.5,1317.6 L 129.2,1313.0 L 128.9,1308.3 L 128.7,1303.7 L 128.4,1299.0 L 128.1,1294.3 L 127.8,1289.6 L 127.5,1284.9 L 127.2,1280.2 L 126.9,1275.5 L 126.7,1270.9 L 126.4,1266.2 L 126.2,1261.6 L 125.9,1257.0 L 125.7,1252.5 L 125.4,1248.0 L 125.2,1243.6 L 125.0,1239.2 L 124.8,1234.9 L 124.6,1230.7 L 124.4,1226.5 L 124.2,1222.5 L 124.1,1218.5 L 123.9,1214.6 L 123.8,1210.8 L 123.7,1207.0 L 123.6,1203.2 L 123.5,1199.2 L 123.4,1194.9 L 123.3,1190.4 L 123.2,1185.8 L 123.1,1181.2 L 123.0,1176.6 L 122.9,1172.1 L 122.8,1167.6 L 122.8,1163.2 L 122.7,1158.8 L 122.6,1154.5 L 122.6,1150.2 L 122.6,1145.9 L 122.5,1141.8 L 122.5,1137.6 L 122.5,1133.5 L 122.5,1129.4 L 122.6,1125.4 L 122.6,1121.4 L 122.7,1117.5 L 122.8,1113.6 L 122.8,1109.7 L 123.0,1105.9 L 123.1,1102.1 L 123.3,1098.4 L 123.4,1094.7 L 123.6,1091.0 L 123.9,1087.3 L 124.1,1083.7 L 124.4,1080.2 L 124.7,1076.6 L 125.0,1073.1 L 125.3,1069.6 L 125.7,1066.1 L 126.1,1062.7 L 126.5,1059.2 L 127.0,1055.7 L 127.6,1051.9 L 128.3,1047.8 L 129.2,1043.4 L 130.1,1038.9 L 131.2,1034.4 L 132.3,1029.9 L 133.6,1025.5 L 134.8,1021.1 L 136.2,1016.7 L 137.6,1012.4 L 139.0,1008.1 L 140.5,1004.0 L 142.0,999.8 L 143.5,995.8 L 145.0,991.8 L 146.6,988.0 L 148.1,984.2 L 149.5,980.6 L 151.0,977.0 L 152.4,973.6 L 153.8,970.3 L 155.1,967.2 L 156.3,964.1 L 157.5,961.3 L 158.6,958.5 L 159.6,955.6 L 160.9,952.3 L 162.2,948.3 L 163.6,944.3 L 164.5,941.4 L 165.1,939.7 Z" data-label="Anterior tibial artery (right)"><title>Anterior tibial artery (right)</title></path>
    <path id="per-right" d="M 161.6,940.0 L 160.7,941.5 L 159.0,944.0 L 156.7,947.5 L 154.3,951.0 L 152.3,953.9 L 150.5,956.3 L 148.6,958.7 L 146.6,961.3 L 144.4,963.9 L 142.1,966.7 L 139.7,969.7 L 137.2,972.7 L 134.6,975.9 L 131.9,979.2 L 129.3,982.6 L 126.5,986.1 L 123.8,989.7 L 121.1,993.3 L 118.4,997.1 L 115.7,1001.0 L 113.1,1004.9 L 110.6,1008.9 L 108.1,1013.0 L 105.8,1017.1 L 103.6,1021.3 L 101.5,1025.6 L 99.5,1029.9 L 97.8,1034.2 L 96.3,1038.4 L 94.9,1042.5 L 93.9,1046.2 L 92.9,1049.8 L 92.1,1053.3 L 91.4,1056.8 L 90.8,1060.2 L 90.2,1063.7 L 89.7,1067.3 L 89.2,1070.8 L 88.8,1074.4 L 88.4,1078.0 L 88.1,1081.6 L 87.9,1085.3 L 87.7,1089.0 L 87.5,1092.8 L 87.3,1096.6 L 87.2,1100.4 L 87.2,1104.3 L 87.1,1108.2 L 87.1,1112.2 L 87.1,1116.2 L 87.2,1120.3 L 87.2,1124.5 L 87.3,1128.6 L 87.4,1132.9 L 87.5,1137.2 L 87.6,1141.6 L 87.7,1146.0 L 87.8,1150.5 L 87.9,1155.1 L 88.0,1159.7 L 88.1,1164.5 L 88.3,1169.3 L 88.3,1174.1 L 88.4,1178.8 L 88.5,1183.2 L 88.6,1187.2 L 88.6,1190.9 L 88.7,1194.6 L 88.8,1198.3 L 88.9,1202.1 L 89.0,1206.0 L 89.1,1210.0 L 89.2,1214.1 L 89.4,1218.3 L 89.5,1222.5 L 89.7,1226.9 L 89.8,1231.2 L 90.0,1235.7 L 90.2,1240.2 L 90.4,1244.7 L 90.6,1249.3 L 90.8,1253.9 L 91.0,1258.6 L 91.2,1263.2 L 91.5,1267.9 L 91.7,1272.6 L 91.9,1277.4 L 92.2,1282.1 L 92.4,1286.8 L 92.6,1291.5 L 92.9,1296.2 L 93.1,1300.9 L 93.4,1305.6 L 93.6,1310.2 L 93.9,1314.8 L 94.1,1319.3 L 94.4,1323.9 L 94.6,1328.3 L 94.8,1332.7 L 95.1,1337.0 L 95.3,1341.3 L 95.5,1345.5 L 95.8,1349.6 L 96.0,1353.6 L 96.2,1357.6 L 96.4,1361.4 L 96.6,1365.1 L 96.8,1368.8 L 97.0,1372.3 L 97.2,1375.7 L 97.4,1379.0 L 97.6,1382.1 L 97.7,1385.1 L 97.9,1388.0 L 98.0,1390.7 L 98.2,1393.3 L 98.3,1395.7 L 98.4,1398.0 L 98.5,1400.2 L 98.8,1401.5 L 99.6,1402.6 L 100.8,1403.3 L 102.2,1403.5 L 103.5,1403.2 L 104.6,1402.4 L 105.3,1401.2 L 105.5,1399.8 L 105.4,1397.6 L 105.3,1395.3 L 105.2,1392.9 L 105.0,1390.3 L 104.9,1387.6 L 104.7,1384.7 L 104.6,1381.7 L 104.4,1378.6 L 104.2,1375.3 L 104.0,1371.9 L 103.8,1368.4 L 103.6,1364.8 L 103.4,1361.0 L 103.2,1357.2 L 103.0,1353.2 L 102.8,1349.2 L 102.5,1345.1 L 102.3,1340.9 L 102.1,1336.7 L 101.8,1332.3 L 101.6,1327.9 L 101.3,1323.5 L 101.1,1319.0 L 100.9,1314.4 L 100.6,1309.8 L 100.4,1305.2 L 100.1,1300.5 L 99.9,1295.9 L 99.6,1291.2 L 99.4,1286.5 L 99.2,1281.7 L 98.9,1277.0 L 98.7,1272.3 L 98.5,1267.6 L 98.2,1262.9 L 98.0,1258.2 L 97.8,1253.6 L 97.6,1249.0 L 97.4,1244.4 L 97.2,1239.9 L 97.0,1235.4 L 96.8,1231.0 L 96.7,1226.6 L 96.5,1222.3 L 96.4,1218.1 L 96.2,1213.9 L 96.1,1209.8 L 96.0,1205.8 L 95.9,1201.9 L 95.8,1198.2 L 95.7,1194.5 L 95.6,1190.8 L 95.5,1187.1 L 95.5,1183.1 L 95.4,1178.7 L 95.3,1173.9 L 95.2,1169.1 L 95.1,1164.3 L 95.0,1159.6 L 94.9,1154.9 L 94.8,1150.4 L 94.7,1145.8 L 94.6,1141.4 L 94.5,1137.0 L 94.4,1132.7 L 94.3,1128.5 L 94.2,1124.3 L 94.2,1120.2 L 94.1,1116.2 L 94.1,1112.2 L 94.1,1108.3 L 94.2,1104.4 L 94.2,1100.6 L 94.3,1096.8 L 94.5,1093.1 L 94.7,1089.4 L 94.9,1085.8 L 95.1,1082.2 L 95.4,1078.6 L 95.8,1075.1 L 96.2,1071.7 L 96.6,1068.2 L 97.1,1064.8 L 97.7,1061.5 L 98.3,1058.1 L 99.0,1054.8 L 99.7,1051.5 L 100.6,1048.1 L 101.6,1044.5 L 102.9,1040.7 L 104.3,1036.7 L 106.0,1032.6 L 107.8,1028.6 L 109.8,1024.5 L 111.9,1020.5 L 114.2,1016.5 L 116.5,1012.6 L 119.0,1008.7 L 121.5,1004.9 L 124.1,1001.1 L 126.8,997.5 L 129.4,993.9 L 132.1,990.3 L 134.8,986.9 L 137.4,983.5 L 140.0,980.3 L 142.6,977.1 L 145.1,974.1 L 147.5,971.2 L 149.8,968.4 L 152.0,965.7 L 154.1,963.1 L 156.0,960.6 L 157.9,958.0 L 160.1,955.0 L 162.5,951.4 L 164.8,947.9 L 166.5,945.3 L 167.5,943.9 Z" data-label="Peroneal artery (right)"><title>Peroneal artery (right)</title></path>
    <path id="dp-left" d="M 465.6,1407.3 L 464.6,1410.5 L 463.5,1414.0 L 462.2,1417.8 L 460.8,1421.6 L 459.0,1425.1 L 456.7,1428.2 L 453.9,1430.7 L 450.5,1432.9 L 446.9,1434.8 L 446.1,1435.4 L 445.6,1436.2 L 445.5,1437.2 L 445.8,1438.1 L 446.4,1438.9 L 447.2,1439.4 L 448.2,1439.5 L 449.1,1439.2 L 453.0,1437.2 L 456.9,1434.7 L 460.4,1431.5 L 463.3,1427.7 L 465.3,1423.6 L 466.9,1419.5 L 468.2,1415.6 L 469.4,1412.0 L 470.4,1408.7 L 470.5,1407.8 L 470.2,1406.8 L 469.6,1406.1 L 468.7,1405.6 L 467.8,1405.5 L 466.8,1405.8 L 466.1,1406.4 L 465.6,1407.3 Z" data-label="Dorsalis pedis artery (left)"><title>Dorsalis pedis artery (left)</title></path>
    <path id="pfa-left" d="M 387.1,410.3 L 387.8,412.5 L 388.8,415.5 L 390.0,419.4 L 391.3,423.3 L 392.4,426.6 L 393.5,429.6 L 394.5,432.7 L 395.7,435.9 L 396.8,439.3 L 398.1,442.8 L 399.4,446.5 L 400.7,450.4 L 402.1,454.3 L 403.5,458.4 L 404.9,462.5 L 406.3,466.8 L 407.7,471.1 L 409.1,475.4 L 410.5,479.7 L 411.8,484.1 L 413.1,488.4 L 414.3,492.8 L 415.5,497.0 L 416.5,501.0 L 417.5,504.9 L 418.5,508.7 L 419.4,512.5 L 420.3,516.3 L 421.2,520.2 L 422.1,524.1 L 423.0,528.1 L 423.9,532.1 L 424.8,536.1 L 425.6,540.2 L 426.5,544.3 L 427.3,548.4 L 428.1,552.5 L 428.9,556.7 L 429.7,560.8 L 430.5,564.9 L 431.3,569.0 L 432.0,573.1 L 432.7,577.2 L 433.4,581.2 L 434.1,585.2 L 434.7,589.2 L 435.4,593.1 L 436.0,597.0 L 436.6,601.0 L 437.1,605.1 L 437.7,609.3 L 438.2,613.6 L 438.7,618.0 L 439.2,622.5 L 439.6,627.0 L 440.1,631.5 L 440.5,636.1 L 440.9,640.6 L 441.2,645.0 L 441.6,649.4 L 441.9,653.7 L 442.2,657.9 L 442.5,662.0 L 442.8,666.0 L 443.0,669.7 L 443.3,673.4 L 443.5,676.8 L 443.7,680.0 L 443.9,682.9 L 444.1,685.6 L 444.3,688.1 L 444.5,690.4 L 445.1,692.5 L 446.4,694.2 L 448.3,695.2 L 450.4,695.5 L 452.5,694.9 L 454.2,693.6 L 455.2,691.7 L 455.5,689.6 L 455.3,687.2 L 455.1,684.8 L 454.9,682.1 L 454.7,679.2 L 454.5,676.0 L 454.3,672.6 L 454.0,669.0 L 453.8,665.2 L 453.5,661.2 L 453.2,657.1 L 452.9,652.9 L 452.5,648.6 L 452.2,644.1 L 451.8,639.6 L 451.4,635.1 L 451.0,630.5 L 450.6,625.9 L 450.1,621.4 L 449.6,616.8 L 449.1,612.3 L 448.6,607.9 L 448.0,603.6 L 447.4,599.4 L 446.8,595.4 L 446.2,591.4 L 445.6,587.4 L 444.9,583.4 L 444.3,579.4 L 443.6,575.3 L 442.8,571.2 L 442.1,567.0 L 441.3,562.9 L 440.5,558.7 L 439.7,554.6 L 438.9,550.4 L 438.1,546.2 L 437.2,542.1 L 436.4,537.9 L 435.5,533.8 L 434.6,529.7 L 433.7,525.7 L 432.8,521.7 L 431.9,517.7 L 431.0,513.8 L 430.1,509.9 L 429.2,506.1 L 428.2,502.2 L 427.2,498.2 L 426.1,494.1 L 424.9,489.8 L 423.6,485.4 L 422.3,480.9 L 421.0,476.5 L 419.6,472.1 L 418.2,467.7 L 416.8,463.3 L 415.3,459.0 L 413.9,454.8 L 412.5,450.7 L 411.1,446.8 L 409.8,442.9 L 408.5,439.2 L 407.2,435.6 L 406.0,432.2 L 404.9,429.1 L 403.9,426.0 L 402.9,423.1 L 401.7,419.8 L 400.5,416.0 L 399.2,412.1 L 398.2,409.0 L 397.5,406.9 Z" data-label="Profunda femoris artery (left)"><title>Profunda femoris artery (left)</title></path>
    <path id="ata-left" d="M 434.9,939.7 L 435.5,941.4 L 436.4,944.3 L 437.8,948.3 L 439.1,952.3 L 440.4,955.6 L 441.4,958.5 L 442.5,961.3 L 443.7,964.1 L 444.9,967.2 L 446.2,970.3 L 447.6,973.6 L 449.0,977.0 L 450.5,980.6 L 451.9,984.2 L 453.4,988.0 L 455.0,991.8 L 456.5,995.8 L 458.0,999.8 L 459.5,1004.0 L 461.0,1008.1 L 462.4,1012.4 L 463.8,1016.7 L 465.2,1021.1 L 466.4,1025.5 L 467.7,1029.9 L 468.8,1034.4 L 469.9,1038.9 L 470.8,1043.4 L 471.7,1047.8 L 472.4,1051.9 L 473.0,1055.7 L 473.5,1059.2 L 473.9,1062.7 L 474.3,1066.1 L 474.7,1069.6 L 475.0,1073.1 L 475.3,1076.6 L 475.6,1080.2 L 475.9,1083.7 L 476.1,1087.3 L 476.4,1091.0 L 476.6,1094.7 L 476.7,1098.4 L 476.9,1102.1 L 477.0,1105.9 L 477.2,1109.7 L 477.2,1113.6 L 477.3,1117.5 L 477.4,1121.4 L 477.4,1125.4 L 477.5,1129.4 L 477.5,1133.5 L 477.5,1137.6 L 477.5,1141.8 L 477.4,1145.9 L 477.4,1150.2 L 477.4,1154.5 L 477.3,1158.8 L 477.2,1163.2 L 477.2,1167.6 L 477.1,1172.1 L 477.0,1176.6 L 476.9,1181.2 L 476.8,1185.8 L 476.7,1190.4 L 476.6,1194.9 L 476.5,1199.2 L 476.4,1203.2 L 476.3,1207.0 L 476.2,1210.8 L 476.1,1214.6 L 475.9,1218.5 L 475.8,1222.5 L 475.6,1226.5 L 475.4,1230.7 L 475.2,1234.9 L 475.0,1239.2 L 474.8,1243.6 L 474.6,1248.0 L 474.3,1252.5 L 474.1,1257.0 L 473.8,1261.6 L 473.6,1266.2 L 473.3,1270.9 L 473.1,1275.5 L 472.8,1280.2 L 472.5,1284.9 L 472.2,1289.6 L 471.9,1294.3 L 471.6,1299.0 L 471.3,1303.7 L 471.1,1308.3 L 470.8,1313.0 L 470.5,1317.6 L 470.2,1322.2 L 469.9,1326.8 L 469.6,1331.3 L 469.3,1335.7 L 469.0,1340.1 L 468.7,1344.5 L 468.4,1348.7 L 468.1,1352.9 L 467.8,1357.1 L 467.6,1361.1 L 467.3,1365.0 L 467.0,1368.9 L 466.8,1372.6 L 466.5,1376.3 L 466.3,1379.8 L 466.1,1383.2 L 465.9,1386.5 L 465.7,1389.6 L 465.5,1392.7 L 465.3,1395.5 L 465.1,1398.3 L 464.9,1400.9 L 464.8,1403.3 L 464.6,1405.6 L 464.5,1407.8 L 464.7,1409.1 L 465.4,1410.3 L 466.5,1411.1 L 467.8,1411.5 L 469.1,1411.3 L 470.3,1410.6 L 471.1,1409.5 L 471.5,1408.2 L 471.6,1406.0 L 471.8,1403.7 L 471.9,1401.3 L 472.1,1398.7 L 472.3,1396.0 L 472.4,1393.1 L 472.6,1390.1 L 472.8,1387.0 L 473.1,1383.7 L 473.3,1380.3 L 473.5,1376.7 L 473.8,1373.1 L 474.0,1369.4 L 474.3,1365.5 L 474.6,1361.6 L 474.8,1357.5 L 475.1,1353.4 L 475.4,1349.2 L 475.7,1344.9 L 476.0,1340.6 L 476.3,1336.2 L 476.6,1331.7 L 476.8,1327.2 L 477.1,1322.7 L 477.4,1318.1 L 477.7,1313.4 L 478.0,1308.8 L 478.3,1304.1 L 478.6,1299.4 L 478.9,1294.7 L 479.2,1290.0 L 479.5,1285.3 L 479.8,1280.6 L 480.0,1275.9 L 480.3,1271.3 L 480.6,1266.6 L 480.8,1262.0 L 481.1,1257.4 L 481.3,1252.9 L 481.6,1248.4 L 481.8,1244.0 L 482.0,1239.6 L 482.2,1235.3 L 482.4,1231.0 L 482.6,1226.8 L 482.8,1222.7 L 482.9,1218.7 L 483.1,1214.8 L 483.2,1211.0 L 483.3,1207.2 L 483.4,1203.4 L 483.5,1199.4 L 483.6,1195.1 L 483.7,1190.6 L 483.8,1185.9 L 483.9,1181.3 L 484.0,1176.7 L 484.1,1172.2 L 484.2,1167.7 L 484.2,1163.3 L 484.3,1158.9 L 484.4,1154.5 L 484.4,1150.2 L 484.4,1146.0 L 484.5,1141.8 L 484.5,1137.6 L 484.5,1133.5 L 484.5,1129.4 L 484.4,1125.4 L 484.4,1121.3 L 484.3,1117.4 L 484.2,1113.4 L 484.1,1109.6 L 484.0,1105.7 L 483.9,1101.9 L 483.7,1098.1 L 483.6,1094.3 L 483.4,1090.6 L 483.1,1086.9 L 482.9,1083.2 L 482.6,1079.6 L 482.3,1076.0 L 482.0,1072.4 L 481.6,1068.9 L 481.3,1065.3 L 480.8,1061.8 L 480.4,1058.3 L 479.9,1054.7 L 479.3,1050.8 L 478.5,1046.5 L 477.7,1042.0 L 476.7,1037.4 L 475.6,1032.8 L 474.4,1028.2 L 473.2,1023.6 L 471.9,1019.1 L 470.5,1014.6 L 469.1,1010.2 L 467.6,1005.9 L 466.1,1001.6 L 464.6,997.4 L 463.0,993.3 L 461.5,989.3 L 460.0,985.4 L 458.4,981.6 L 456.9,977.9 L 455.5,974.4 L 454.1,970.9 L 452.7,967.7 L 451.4,964.5 L 450.2,961.5 L 449.0,958.7 L 448.0,956.0 L 446.9,953.2 L 445.8,950.0 L 444.4,946.0 L 443.1,942.1 L 442.1,939.2 L 441.5,937.5 Z" data-label="Anterior tibial artery (left)"><title>Anterior tibial artery (left)</title></path>
    <path id="per-left" d="M 432.5,943.9 L 433.5,945.3 L 435.2,947.9 L 437.5,951.4 L 439.9,955.0 L 442.1,958.0 L 444.0,960.6 L 445.9,963.1 L 448.0,965.7 L 450.2,968.4 L 452.5,971.2 L 454.9,974.1 L 457.4,977.1 L 460.0,980.3 L 462.6,983.5 L 465.2,986.9 L 467.9,990.3 L 470.6,993.9 L 473.2,997.5 L 475.9,1001.1 L 478.5,1004.9 L 481.0,1008.7 L 483.5,1012.6 L 485.8,1016.5 L 488.1,1020.5 L 490.2,1024.5 L 492.2,1028.6 L 494.0,1032.6 L 495.7,1036.7 L 497.1,1040.7 L 498.4,1044.5 L 499.4,1048.1 L 500.3,1051.5 L 501.0,1054.8 L 501.7,1058.1 L 502.3,1061.5 L 502.9,1064.8 L 503.4,1068.2 L 503.8,1071.7 L 504.2,1075.1 L 504.6,1078.6 L 504.9,1082.2 L 505.1,1085.8 L 505.3,1089.4 L 505.5,1093.1 L 505.7,1096.8 L 505.8,1100.6 L 505.8,1104.4 L 505.9,1108.3 L 505.9,1112.2 L 505.9,1116.2 L 505.8,1120.2 L 505.8,1124.3 L 505.7,1128.5 L 505.6,1132.7 L 505.5,1137.0 L 505.4,1141.4 L 505.3,1145.8 L 505.2,1150.4 L 505.1,1154.9 L 505.0,1159.6 L 504.9,1164.3 L 504.8,1169.1 L 504.7,1173.9 L 504.6,1178.7 L 504.5,1183.1 L 504.5,1187.1 L 504.4,1190.8 L 504.3,1194.5 L 504.2,1198.2 L 504.1,1201.9 L 504.0,1205.8 L 503.9,1209.8 L 503.8,1213.9 L 503.6,1218.1 L 503.5,1222.3 L 503.3,1226.6 L 503.2,1231.0 L 503.0,1235.4 L 502.8,1239.9 L 502.6,1244.4 L 502.4,1249.0 L 502.2,1253.6 L 502.0,1258.2 L 501.8,1262.9 L 501.5,1267.6 L 501.3,1272.3 L 501.1,1277.0 L 500.8,1281.7 L 500.6,1286.5 L 500.4,1291.2 L 500.1,1295.9 L 499.9,1300.5 L 499.6,1305.2 L 499.4,1309.8 L 499.1,1314.4 L 498.9,1319.0 L 498.7,1323.5 L 498.4,1327.9 L 498.2,1332.3 L 497.9,1336.7 L 497.7,1340.9 L 497.5,1345.1 L 497.2,1349.2 L 497.0,1353.2 L 496.8,1357.2 L 496.6,1361.0 L 496.4,1364.8 L 496.2,1368.4 L 496.0,1371.9 L 495.8,1375.3 L 495.6,1378.6 L 495.4,1381.7 L 495.3,1384.7 L 495.1,1387.6 L 495.0,1390.3 L 494.8,1392.9 L 494.7,1395.3 L 494.6,1397.6 L 494.5,1399.8 L 494.7,1401.2 L 495.4,1402.4 L 496.5,1403.2 L 497.8,1403.5 L 499.2,1403.3 L 500.4,1402.6 L 501.2,1401.5 L 501.5,1400.2 L 501.6,1398.0 L 501.7,1395.7 L 501.8,1393.3 L 502.0,1390.7 L 502.1,1388.0 L 502.3,1385.1 L 502.4,1382.1 L 502.6,1379.0 L 502.8,1375.7 L 503.0,1372.3 L 503.2,1368.8 L 503.4,1365.1 L 503.6,1361.4 L 503.8,1357.6 L 504.0,1353.6 L 504.2,1349.6 L 504.5,1345.5 L 504.7,1341.3 L 504.9,1337.0 L 505.2,1332.7 L 505.4,1328.3 L 505.6,1323.9 L 505.9,1319.3 L 506.1,1314.8 L 506.4,1310.2 L 506.6,1305.6 L 506.9,1300.9 L 507.1,1296.2 L 507.4,1291.5 L 507.6,1286.8 L 507.8,1282.1 L 508.1,1277.4 L 508.3,1272.6 L 508.5,1267.9 L 508.8,1263.2 L 509.0,1258.6 L 509.2,1253.9 L 509.4,1249.3 L 509.6,1244.7 L 509.8,1240.2 L 510.0,1235.7 L 510.2,1231.2 L 510.3,1226.9 L 510.5,1222.5 L 510.6,1218.3 L 510.8,1214.1 L 510.9,1210.0 L 511.0,1206.0 L 511.1,1202.1 L 511.2,1198.3 L 511.3,1194.6 L 511.4,1190.9 L 511.4,1187.2 L 511.5,1183.2 L 511.6,1178.8 L 511.7,1174.1 L 511.7,1169.3 L 511.9,1164.5 L 512.0,1159.7 L 512.1,1155.1 L 512.2,1150.5 L 512.3,1146.0 L 512.4,1141.6 L 512.5,1137.2 L 512.6,1132.9 L 512.7,1128.6 L 512.8,1124.5 L 512.8,1120.3 L 512.9,1116.2 L 512.9,1112.2 L 512.9,1108.2 L 512.8,1104.3 L 512.8,1100.4 L 512.7,1096.6 L 512.5,1092.8 L 512.3,1089.0 L 512.1,1085.3 L 511.9,1081.6 L 511.6,1078.0 L 511.2,1074.4 L 510.8,1070.8 L 510.3,1067.3 L 509.8,1063.7 L 509.2,1060.2 L 508.6,1056.8 L 507.9,1053.3 L 507.1,1049.8 L 506.1,1046.2 L 505.1,1042.5 L 503.7,1038.4 L 502.2,1034.2 L 500.5,1029.9 L 498.5,1025.6 L 496.4,1021.3 L 494.2,1017.1 L 491.9,1013.0 L 489.4,1008.9 L 486.9,1004.9 L 484.3,1001.0 L 481.6,997.1 L 478.9,993.3 L 476.2,989.7 L 473.5,986.1 L 470.7,982.6 L 468.1,979.2 L 465.4,975.9 L 462.8,972.7 L 460.3,969.7 L 457.9,966.7 L 455.6,963.9 L 453.4,961.3 L 451.4,958.7 L 449.5,956.3 L 447.7,953.9 L 445.7,951.0 L 443.3,947.5 L 441.0,944.0 L 439.3,941.5 L 438.4,940.0 Z" data-label="Peroneal artery (left)"><title>Peroneal artery (left)</title></path>
    <path id="cia-right" d="M 288.3,201.4 L 287.1,203.4 L 285.9,205.5 L 284.5,207.8 L 283.0,210.2 L 281.4,212.9 L 279.7,215.8 L 277.8,218.8 L 275.8,222.0 L 273.8,225.4 L 271.6,228.9 L 269.4,232.5 L 267.2,236.3 L 264.9,240.1 L 262.6,244.1 L 260.3,248.2 L 258.0,252.3 L 255.7,256.5 L 253.4,260.8 L 251.1,265.1 L 248.9,269.4 L 246.7,273.7 L 244.7,278.0 L 242.8,282.0 L 257.8,289.0 L 259.6,285.1 L 261.6,281.1 L 263.7,277.0 L 265.9,272.9 L 268.2,268.8 L 270.4,264.7 L 272.7,260.7 L 275.0,256.7 L 277.4,252.8 L 279.7,248.9 L 282.0,245.2 L 284.2,241.5 L 286.4,238.0 L 288.6,234.6 L 290.7,231.3 L 292.7,228.1 L 294.6,225.1 L 296.4,222.3 L 298.1,219.6 L 299.7,217.1 L 301.1,214.8 L 302.5,212.6 L 303.7,210.6 L 304.9,207.3 L 304.7,203.8 L 303.2,200.6 L 300.6,198.3 L 297.3,197.1 L 293.8,197.3 L 290.6,198.8 L 288.3,201.4 Z" data-label="Common iliac artery (right)"><title>Common iliac artery (right)</title></path>
    <path id="eia-right" d="M 242.8,282.0 L 241.1,285.7 L 239.5,289.3 L 238.0,292.9 L 236.4,296.6 L 234.8,300.3 L 233.2,304.1 L 231.6,308.0 L 230.0,312.0 L 228.4,316.0 L 226.8,320.1 L 225.2,324.3 L 223.6,328.4 L 222.0,332.6 L 220.4,336.8 L 218.8,341.0 L 217.3,345.1 L 215.7,349.3 L 214.2,353.4 L 212.7,357.5 L 211.3,361.5 L 209.9,365.5 L 208.5,369.4 L 207.2,373.2 L 205.9,376.9 L 204.7,380.5 L 203.6,384.0 L 202.4,387.4 L 201.4,390.7 L 200.4,394.0 L 199.3,397.4 L 198.2,401.4 L 213.1,405.6 L 214.2,401.9 L 215.2,398.6 L 216.2,395.5 L 217.3,392.3 L 218.4,389.0 L 219.6,385.6 L 220.8,382.0 L 222.1,378.4 L 223.4,374.6 L 224.8,370.8 L 226.2,366.9 L 227.7,362.9 L 229.2,358.9 L 230.7,354.8 L 232.2,350.7 L 233.8,346.6 L 235.4,342.5 L 237.0,338.4 L 238.6,334.3 L 240.2,330.2 L 241.8,326.1 L 243.5,322.1 L 245.1,318.1 L 246.7,314.2 L 248.3,310.4 L 249.9,306.7 L 251.5,303.0 L 253.0,299.5 L 254.5,296.0 L 256.1,292.5 L 257.8,289.0 Z" data-label="External iliac artery (right)"><title>External iliac artery (right)</title></path>
    <path id="cfa-right" d="M 198.2,401.4 L 197.0,405.9 L 195.8,410.6 L 194.9,415.2 L 194.2,419.4 L 193.7,423.2 L 193.4,426.7 L 193.3,429.9 L 193.3,433.0 L 193.3,436.1 L 193.3,439.4 L 193.2,443.0 L 193.0,446.8 L 192.8,450.7 L 207.2,451.8 L 207.6,447.8 L 207.8,443.7 L 208.0,439.8 L 208.1,436.3 L 208.2,433.2 L 208.3,430.4 L 208.4,427.7 L 208.7,424.8 L 209.2,421.7 L 209.8,418.2 L 210.8,414.2 L 211.9,409.8 L 213.1,405.6 Z" data-label="Common femoral artery (right)"><title>Common femoral artery (right)</title></path>
    <path id="sfa-prox-right" d="M 192.8,450.7 L 192.5,454.3 L 192.2,457.8 L 191.9,461.3 L 191.7,464.8 L 191.4,468.4 L 191.1,472.1 L 190.8,475.9 L 190.5,479.7 L 190.2,483.7 L 189.8,487.7 L 189.5,491.7 L 189.2,495.8 L 188.9,500.0 L 188.5,504.2 L 188.2,508.5 L 187.9,512.8 L 187.5,517.2 L 187.2,521.6 L 186.8,526.0 L 186.5,530.4 L 186.2,534.8 L 185.8,538.9 L 198.3,540.0 L 198.7,535.9 L 199.1,531.6 L 199.6,527.2 L 200.0,522.7 L 200.4,518.4 L 200.9,514.0 L 201.3,509.7 L 201.7,505.4 L 202.1,501.2 L 202.6,497.0 L 203.0,492.9 L 203.4,488.9 L 203.8,484.9 L 204.2,481.0 L 204.6,477.1 L 205.0,473.4 L 205.3,469.7 L 205.7,466.1 L 206.1,462.7 L 206.5,459.2 L 206.9,455.6 L 207.2,451.8 Z" data-label="Superficial femoral artery — proximal (right)"><title>Superficial femoral artery — proximal (right)</title></path>
    <path id="sfa-mid-right" d="M 185.8,538.9 L 185.5,542.8 L 185.2,546.5 L 184.9,550.0 L 184.6,553.6 L 184.3,557.1 L 184.0,560.7 L 183.7,564.2 L 183.4,567.8 L 183.1,571.4 L 182.9,575.0 L 182.6,578.7 L 182.3,582.4 L 182.0,586.1 L 181.6,589.9 L 181.3,593.7 L 181.0,597.6 L 180.7,601.5 L 180.3,605.5 L 180.0,609.6 L 179.6,613.7 L 179.2,617.9 L 178.9,622.1 L 178.5,626.5 L 178.1,630.9 L 177.6,635.4 L 177.2,640.0 L 176.8,644.4 L 176.3,648.7 L 187.8,649.9 L 188.2,645.6 L 188.7,641.1 L 189.2,636.5 L 189.6,632.0 L 190.1,627.6 L 190.5,623.2 L 190.9,619.0 L 191.4,614.8 L 191.8,610.6 L 192.1,606.6 L 192.5,602.6 L 192.9,598.6 L 193.2,594.8 L 193.6,590.9 L 193.9,587.2 L 194.3,583.4 L 194.6,579.7 L 195.0,576.1 L 195.3,572.5 L 195.6,568.9 L 195.9,565.3 L 196.3,561.7 L 196.6,558.2 L 196.9,554.6 L 197.2,551.1 L 197.6,547.6 L 197.9,543.9 L 198.3,540.0 Z" data-label="Superficial femoral artery — mid (right)"><title>Superficial femoral artery — mid (right)</title></path>
    <path id="sfa-dist-right" d="M 176.3,648.7 L 175.9,652.6 L 175.6,656.3 L 175.2,660.0 L 174.8,663.8 L 174.3,667.6 L 173.9,671.5 L 173.5,675.5 L 173.0,679.6 L 172.6,683.8 L 172.1,688.0 L 171.6,692.4 L 171.1,696.7 L 170.6,701.1 L 170.1,705.5 L 169.6,710.0 L 169.1,714.5 L 168.6,719.0 L 168.1,723.5 L 167.6,728.0 L 167.0,732.5 L 166.5,736.9 L 166.0,741.4 L 165.5,745.8 L 165.0,750.2 L 164.5,754.5 L 164.0,758.8 L 163.6,763.0 L 163.1,767.1 L 162.6,771.2 L 162.2,775.2 L 161.8,779.1 L 161.3,782.9 L 160.9,786.6 L 160.5,790.1 L 160.2,793.6 L 159.8,796.9 L 159.5,800.1 L 159.1,803.1 L 158.8,806.2 L 158.5,809.8 L 158.0,814.4 L 169.5,815.5 L 169.9,811.0 L 170.3,807.4 L 170.6,804.3 L 170.9,801.3 L 171.2,798.1 L 171.6,794.8 L 172.0,791.4 L 172.4,787.8 L 172.8,784.1 L 173.2,780.4 L 173.6,776.5 L 174.1,772.5 L 174.5,768.4 L 175.0,764.3 L 175.5,760.1 L 176.0,755.8 L 176.4,751.5 L 176.9,747.1 L 177.5,742.7 L 178.0,738.2 L 178.5,733.8 L 179.0,729.3 L 179.5,724.8 L 180.0,720.3 L 180.5,715.8 L 181.0,711.3 L 181.5,706.8 L 182.0,702.4 L 182.5,698.0 L 183.0,693.6 L 183.5,689.3 L 184.0,685.1 L 184.5,680.9 L 184.9,676.8 L 185.3,672.8 L 185.8,668.8 L 186.2,665.0 L 186.6,661.2 L 187.0,657.6 L 187.4,653.8 L 187.8,649.9 Z" data-label="Superficial femoral artery — distal (right)"><title>Superficial femoral artery — distal (right)</title></path>
    <path id="pop-ak-right" d="M 158.0,814.4 L 157.5,820.0 L 157.0,825.9 L 156.7,831.0 L 156.4,835.2 L 156.3,838.4 L 156.3,841.1 L 156.3,843.5 L 156.3,845.9 L 156.3,848.8 L 156.2,852.0 L 167.7,852.4 L 167.8,849.0 L 167.8,846.0 L 167.8,843.4 L 167.8,841.1 L 167.8,838.7 L 167.9,835.7 L 168.1,831.8 L 168.5,826.7 L 169.0,821.0 L 169.5,815.5 Z" data-label="Popliteal artery — above knee (right)"><title>Popliteal artery — above knee (right)</title></path>
    <path id="pop-bk-right" d="M 156.2,852.0 L 156.1,855.6 L 156.0,859.4 L 155.9,863.3 L 155.8,867.2 L 155.7,871.2 L 155.6,875.3 L 155.5,879.4 L 155.4,883.5 L 155.3,887.6 L 155.2,891.7 L 155.1,895.6 L 155.0,899.5 L 164.9,900.1 L 165.2,896.1 L 165.5,892.1 L 165.7,888.0 L 165.9,883.9 L 166.1,879.8 L 166.4,875.7 L 166.6,871.7 L 166.8,867.7 L 167.1,863.7 L 167.3,859.9 L 167.5,856.0 L 167.7,852.4 Z" data-label="Popliteal artery — below knee (right)"><title>Popliteal artery — below knee (right)</title></path>
    <path id="tpt-right" d="M 155.0,899.5 L 154.8,903.2 L 154.6,906.6 L 154.4,909.9 L 154.1,913.1 L 153.8,916.4 L 153.6,919.8 L 153.4,923.5 L 153.3,927.6 L 153.3,932.0 L 153.4,936.9 L 153.6,941.9 L 154.0,946.6 L 162.0,946.1 L 161.8,941.5 L 161.7,936.7 L 161.8,932.1 L 161.9,927.8 L 162.2,924.1 L 162.5,920.6 L 162.9,917.3 L 163.4,914.1 L 163.8,910.9 L 164.2,907.5 L 164.6,903.9 L 164.9,900.1 Z" data-label="Tibioperoneal trunk (right)"><title>Tibioperoneal trunk (right)</title></path>
    <path id="pta-right" d="M 154.0,946.6 L 154.3,950.8 L 154.6,954.3 L 155.0,957.7 L 155.4,961.0 L 155.8,964.4 L 156.3,967.9 L 156.9,971.5 L 157.4,975.2 L 158.0,979.0 L 158.6,982.8 L 159.2,986.7 L 159.8,990.7 L 160.5,994.8 L 161.1,998.9 L 161.7,1003.1 L 162.4,1007.3 L 163.0,1011.6 L 163.6,1015.9 L 164.2,1020.2 L 164.8,1024.6 L 165.3,1029.0 L 165.9,1033.4 L 166.3,1037.9 L 166.8,1042.3 L 167.2,1046.8 L 167.5,1051.2 L 167.8,1055.6 L 168.1,1059.7 L 168.3,1063.6 L 168.4,1067.3 L 168.6,1070.9 L 168.7,1074.5 L 168.9,1078.1 L 169.0,1081.6 L 169.1,1085.2 L 169.2,1088.8 L 169.3,1092.4 L 169.4,1096.0 L 169.5,1099.6 L 169.5,1103.3 L 169.5,1107.0 L 169.6,1110.7 L 169.6,1114.4 L 169.6,1118.2 L 169.6,1122.0 L 169.5,1125.8 L 169.5,1129.7 L 169.4,1133.6 L 169.3,1137.6 L 169.3,1141.6 L 169.1,1145.7 L 169.0,1149.8 L 168.9,1154.0 L 168.7,1158.3 L 168.5,1162.6 L 168.3,1167.0 L 168.1,1171.4 L 167.8,1175.9 L 167.5,1180.6 L 167.3,1185.2 L 167.0,1189.9 L 166.6,1194.6 L 166.3,1198.9 L 166.0,1202.9 L 165.7,1206.6 L 165.4,1210.2 L 165.1,1213.9 L 164.8,1217.7 L 164.4,1221.6 L 164.0,1225.6 L 163.6,1229.6 L 163.2,1233.8 L 162.8,1238.0 L 162.4,1242.3 L 161.9,1246.6 L 161.4,1251.0 L 161.0,1255.5 L 160.5,1260.0 L 160.0,1264.6 L 159.5,1269.1 L 158.9,1273.7 L 158.4,1278.4 L 157.9,1283.0 L 157.3,1287.7 L 156.8,1292.4 L 156.2,1297.0 L 155.7,1301.7 L 155.1,1306.3 L 154.6,1311.0 L 154.0,1315.6 L 153.5,1320.2 L 152.9,1324.7 L 152.4,1329.3 L 151.8,1333.7 L 151.3,1338.1 L 150.7,1342.5 L 150.2,1346.8 L 149.7,1351.0 L 149.2,1355.2 L 148.6,1359.3 L 148.2,1363.3 L 147.7,1367.2 L 147.2,1371.0 L 146.7,1374.7 L 146.3,1378.4 L 145.9,1381.9 L 145.4,1385.2 L 145.0,1388.5 L 144.7,1391.6 L 144.3,1394.6 L 143.9,1397.5 L 143.6,1400.2 L 143.3,1402.7 L 143.0,1405.1 L 142.8,1407.4 L 142.5,1409.6 L 142.6,1411.0 L 143.3,1412.2 L 144.3,1413.1 L 145.6,1413.5 L 147.0,1413.4 L 148.2,1412.7 L 149.1,1411.7 L 149.5,1410.4 L 149.7,1408.2 L 150.0,1406.0 L 150.3,1403.6 L 150.6,1401.0 L 150.9,1398.3 L 151.3,1395.5 L 151.7,1392.5 L 152.1,1389.4 L 152.5,1386.1 L 152.9,1382.7 L 153.3,1379.2 L 153.8,1375.6 L 154.3,1371.9 L 154.7,1368.1 L 155.2,1364.2 L 155.7,1360.2 L 156.2,1356.1 L 156.8,1351.9 L 157.3,1347.7 L 157.8,1343.4 L 158.4,1339.0 L 158.9,1334.6 L 159.5,1330.1 L 160.1,1325.6 L 160.6,1321.1 L 161.2,1316.5 L 161.7,1311.8 L 162.3,1307.2 L 162.9,1302.6 L 163.4,1297.9 L 164.0,1293.2 L 164.6,1288.5 L 165.1,1283.9 L 165.6,1279.2 L 166.2,1274.6 L 166.7,1270.0 L 167.2,1265.4 L 167.7,1260.8 L 168.3,1256.3 L 168.7,1251.8 L 169.2,1247.4 L 169.7,1243.1 L 170.1,1238.8 L 170.6,1234.5 L 171.0,1230.4 L 171.4,1226.3 L 171.8,1222.3 L 172.2,1218.4 L 172.5,1214.6 L 172.8,1210.9 L 173.2,1207.2 L 173.5,1203.5 L 173.8,1199.5 L 174.1,1195.1 L 174.4,1190.5 L 174.7,1185.7 L 175.0,1181.0 L 175.3,1176.4 L 175.6,1171.8 L 175.8,1167.3 L 176.0,1162.9 L 176.2,1158.6 L 176.4,1154.3 L 176.6,1150.1 L 176.7,1145.9 L 176.8,1141.8 L 176.9,1137.8 L 177.0,1133.8 L 177.1,1129.8 L 177.1,1125.9 L 177.2,1122.0 L 177.2,1118.2 L 177.2,1114.4 L 177.2,1110.6 L 177.2,1106.9 L 177.2,1103.2 L 177.1,1099.5 L 177.1,1095.9 L 177.0,1092.2 L 176.9,1088.6 L 176.8,1085.0 L 176.7,1081.4 L 176.6,1077.8 L 176.5,1074.2 L 176.3,1070.6 L 176.2,1067.0 L 176.0,1063.2 L 175.8,1059.3 L 175.6,1055.1 L 175.3,1050.7 L 174.9,1046.2 L 174.5,1041.6 L 174.1,1037.1 L 173.6,1032.6 L 173.1,1028.1 L 172.6,1023.6 L 172.0,1019.2 L 171.4,1014.8 L 170.8,1010.5 L 170.2,1006.2 L 169.5,1001.9 L 168.9,997.7 L 168.3,993.6 L 167.6,989.5 L 167.0,985.5 L 166.4,981.6 L 165.8,977.8 L 165.2,974.0 L 164.7,970.4 L 164.2,966.8 L 163.7,963.4 L 163.3,960.0 L 162.9,956.8 L 162.6,953.6 L 162.3,950.1 L 162.0,946.1 Z" data-label="Posterior tibial artery (right)"><title>Posterior tibial artery (right)</title></path>
    <path id="cia-left" d="M 296.3,210.6 L 297.5,212.6 L 298.9,214.8 L 300.3,217.1 L 301.9,219.6 L 303.6,222.3 L 305.4,225.1 L 307.3,228.1 L 309.3,231.3 L 311.4,234.6 L 313.6,238.0 L 315.8,241.5 L 318.0,245.2 L 320.3,248.9 L 322.6,252.8 L 325.0,256.7 L 327.3,260.7 L 329.6,264.7 L 331.8,268.8 L 334.1,272.9 L 336.3,277.0 L 338.4,281.1 L 340.4,285.1 L 342.2,289.0 L 357.2,282.0 L 355.3,278.0 L 353.3,273.7 L 351.1,269.4 L 348.9,265.1 L 346.6,260.8 L 344.3,256.5 L 342.0,252.3 L 339.7,248.2 L 337.4,244.1 L 335.1,240.1 L 332.8,236.3 L 330.6,232.5 L 328.4,228.9 L 326.2,225.4 L 324.2,222.0 L 322.2,218.8 L 320.3,215.8 L 318.6,212.9 L 317.0,210.2 L 315.5,207.8 L 314.1,205.5 L 312.9,203.4 L 311.7,201.4 L 309.4,198.8 L 306.2,197.3 L 302.7,197.1 L 299.4,198.3 L 296.8,200.6 L 295.3,203.8 L 295.1,207.3 L 296.3,210.6 Z" data-label="Common iliac artery (left)"><title>Common iliac artery (left)</title></path>
    <path id="eia-left" d="M 342.2,289.0 L 343.9,292.5 L 345.5,296.0 L 347.0,299.5 L 348.5,303.0 L 350.1,306.7 L 351.7,310.4 L 353.3,314.2 L 354.9,318.1 L 356.5,322.1 L 358.2,326.1 L 359.8,330.2 L 361.4,334.3 L 363.0,338.4 L 364.6,342.5 L 366.2,346.6 L 367.8,350.7 L 369.3,354.8 L 370.8,358.9 L 372.3,362.9 L 373.8,366.9 L 375.2,370.8 L 376.6,374.6 L 377.9,378.4 L 379.2,382.0 L 380.4,385.6 L 381.6,389.0 L 382.7,392.3 L 383.8,395.5 L 384.8,398.6 L 385.8,401.9 L 386.9,405.6 L 401.8,401.4 L 400.7,397.4 L 399.6,394.0 L 398.6,390.7 L 397.6,387.4 L 396.4,384.0 L 395.3,380.5 L 394.1,376.9 L 392.8,373.2 L 391.5,369.4 L 390.1,365.5 L 388.7,361.5 L 387.3,357.5 L 385.8,353.4 L 384.3,349.3 L 382.7,345.1 L 381.2,341.0 L 379.6,336.8 L 378.0,332.6 L 376.4,328.4 L 374.8,324.3 L 373.2,320.1 L 371.6,316.0 L 370.0,312.0 L 368.4,308.0 L 366.8,304.1 L 365.2,300.3 L 363.6,296.6 L 362.0,292.9 L 360.5,289.3 L 358.9,285.7 L 357.2,282.0 Z" data-label="External iliac artery (left)"><title>External iliac artery (left)</title></path>
    <path id="cfa-left" d="M 386.9,405.6 L 388.1,409.8 L 389.2,414.2 L 390.2,418.2 L 390.8,421.7 L 391.3,424.8 L 391.6,427.7 L 391.7,430.4 L 391.8,433.2 L 391.9,436.3 L 392.0,439.8 L 392.2,443.7 L 392.4,447.8 L 392.8,451.8 L 407.2,450.7 L 407.0,446.8 L 406.8,443.0 L 406.7,439.4 L 406.7,436.1 L 406.7,433.0 L 406.7,429.9 L 406.6,426.7 L 406.3,423.2 L 405.8,419.4 L 405.1,415.2 L 404.2,410.6 L 403.0,405.9 L 401.8,401.4 Z" data-label="Common femoral artery (left)"><title>Common femoral artery (left)</title></path>
    <path id="sfa-prox-left" d="M 392.8,451.8 L 393.1,455.6 L 393.5,459.2 L 393.9,462.7 L 394.3,466.1 L 394.7,469.7 L 395.0,473.4 L 395.4,477.1 L 395.8,481.0 L 396.2,484.9 L 396.6,488.9 L 397.0,492.9 L 397.4,497.0 L 397.9,501.2 L 398.3,505.4 L 398.7,509.7 L 399.1,514.0 L 399.6,518.4 L 400.0,522.7 L 400.4,527.2 L 400.9,531.6 L 401.3,535.9 L 401.7,540.0 L 414.2,538.9 L 413.8,534.8 L 413.5,530.4 L 413.2,526.0 L 412.8,521.6 L 412.5,517.2 L 412.1,512.8 L 411.8,508.5 L 411.5,504.2 L 411.1,500.0 L 410.8,495.8 L 410.5,491.7 L 410.2,487.7 L 409.8,483.7 L 409.5,479.7 L 409.2,475.9 L 408.9,472.1 L 408.6,468.4 L 408.3,464.8 L 408.1,461.3 L 407.8,457.8 L 407.5,454.3 L 407.2,450.7 Z" data-label="Superficial femoral artery — proximal (left)"><title>Superficial femoral artery — proximal (left)</title></path>
    <path id="sfa-mid-left" d="M 401.7,540.0 L 402.1,543.9 L 402.4,547.6 L 402.8,551.1 L 403.1,554.6 L 403.4,558.2 L 403.7,561.7 L 404.1,565.3 L 404.4,568.9 L 404.7,572.5 L 405.0,576.1 L 405.4,579.7 L 405.7,583.4 L 406.1,587.2 L 406.4,590.9 L 406.8,594.8 L 407.1,598.6 L 407.5,602.6 L 407.9,606.6 L 408.2,610.6 L 408.6,614.8 L 409.1,619.0 L 409.5,623.2 L 409.9,627.6 L 410.4,632.0 L 410.8,636.5 L 411.3,641.1 L 411.8,645.6 L 412.2,649.9 L 423.7,648.7 L 423.2,644.4 L 422.8,640.0 L 422.4,635.4 L 421.9,630.9 L 421.5,626.5 L 421.1,622.1 L 420.8,617.9 L 420.4,613.7 L 420.0,609.6 L 419.7,605.5 L 419.3,601.5 L 419.0,597.6 L 418.7,593.7 L 418.4,589.9 L 418.0,586.1 L 417.7,582.4 L 417.4,578.7 L 417.1,575.0 L 416.9,571.4 L 416.6,567.8 L 416.3,564.2 L 416.0,560.7 L 415.7,557.1 L 415.4,553.6 L 415.1,550.0 L 414.8,546.5 L 414.5,542.8 L 414.2,538.9 Z" data-label="Superficial femoral artery — mid (left)"><title>Superficial femoral artery — mid (left)</title></path>
    <path id="sfa-dist-left" d="M 412.2,649.9 L 412.6,653.8 L 413.0,657.6 L 413.4,661.2 L 413.8,665.0 L 414.2,668.8 L 414.7,672.8 L 415.1,676.8 L 415.5,680.9 L 416.0,685.1 L 416.5,689.3 L 417.0,693.6 L 417.5,698.0 L 418.0,702.4 L 418.5,706.8 L 419.0,711.3 L 419.5,715.8 L 420.0,720.3 L 420.5,724.8 L 421.0,729.3 L 421.5,733.8 L 422.0,738.2 L 422.5,742.7 L 423.1,747.1 L 423.6,751.5 L 424.0,755.8 L 424.5,760.1 L 425.0,764.3 L 425.5,768.4 L 425.9,772.5 L 426.4,776.5 L 426.8,780.4 L 427.2,784.1 L 427.6,787.8 L 428.0,791.4 L 428.4,794.8 L 428.8,798.1 L 429.1,801.3 L 429.4,804.3 L 429.7,807.4 L 430.1,811.0 L 430.5,815.5 L 442.0,814.4 L 441.5,809.8 L 441.2,806.2 L 440.9,803.1 L 440.5,800.1 L 440.2,796.9 L 439.8,793.6 L 439.5,790.1 L 439.1,786.6 L 438.7,782.9 L 438.2,779.1 L 437.8,775.2 L 437.4,771.2 L 436.9,767.1 L 436.4,763.0 L 436.0,758.8 L 435.5,754.5 L 435.0,750.2 L 434.5,745.8 L 434.0,741.4 L 433.5,736.9 L 433.0,732.5 L 432.4,728.0 L 431.9,723.5 L 431.4,719.0 L 430.9,714.5 L 430.4,710.0 L 429.9,705.5 L 429.4,701.1 L 428.9,696.7 L 428.4,692.4 L 427.9,688.0 L 427.4,683.8 L 427.0,679.6 L 426.5,675.5 L 426.1,671.5 L 425.7,667.6 L 425.2,663.8 L 424.8,660.0 L 424.4,656.3 L 424.1,652.6 L 423.7,648.7 Z" data-label="Superficial femoral artery — distal (left)"><title>Superficial femoral artery — distal (left)</title></path>
    <path id="pop-ak-left" d="M 430.5,815.5 L 431.0,821.0 L 431.5,826.7 L 431.9,831.8 L 432.1,835.7 L 432.2,838.7 L 432.2,841.1 L 432.2,843.4 L 432.2,846.0 L 432.2,849.0 L 432.3,852.4 L 443.8,852.0 L 443.7,848.8 L 443.7,845.9 L 443.7,843.5 L 443.7,841.1 L 443.7,838.4 L 443.6,835.2 L 443.3,831.0 L 443.0,825.9 L 442.5,820.0 L 442.0,814.4 Z" data-label="Popliteal artery — above knee (left)"><title>Popliteal artery — above knee (left)</title></path>
    <path id="pop-bk-left" d="M 432.3,852.4 L 432.5,856.0 L 432.7,859.9 L 432.9,863.7 L 433.2,867.7 L 433.4,871.7 L 433.6,875.7 L 433.9,879.8 L 434.1,883.9 L 434.3,888.0 L 434.5,892.1 L 434.8,896.1 L 435.1,900.1 L 445.0,899.5 L 444.9,895.6 L 444.8,891.7 L 444.7,887.6 L 444.6,883.5 L 444.5,879.4 L 444.4,875.3 L 444.3,871.2 L 444.2,867.2 L 444.1,863.3 L 444.0,859.4 L 443.9,855.6 L 443.8,852.0 Z" data-label="Popliteal artery — below knee (left)"><title>Popliteal artery — below knee (left)</title></path>
    <path id="tpt-left" d="M 435.1,900.1 L 435.4,903.9 L 435.8,907.5 L 436.2,910.9 L 436.6,914.1 L 437.1,917.3 L 437.5,920.6 L 437.8,924.1 L 438.1,927.8 L 438.2,932.1 L 438.3,936.7 L 438.2,941.5 L 438.0,946.1 L 446.0,946.6 L 446.4,941.9 L 446.6,936.9 L 446.7,932.0 L 446.7,927.6 L 446.6,923.5 L 446.4,919.8 L 446.2,916.4 L 445.9,913.1 L 445.6,909.9 L 445.4,906.6 L 445.2,903.2 L 445.0,899.5 Z" data-label="Tibioperoneal trunk (left)"><title>Tibioperoneal trunk (left)</title></path>
    <path id="pta-left" d="M 438.0,946.1 L 437.7,950.1 L 437.4,953.6 L 437.1,956.8 L 436.7,960.0 L 436.3,963.4 L 435.8,966.8 L 435.3,970.4 L 434.8,974.0 L 434.2,977.8 L 433.6,981.6 L 433.0,985.5 L 432.4,989.5 L 431.7,993.6 L 431.1,997.7 L 430.5,1001.9 L 429.8,1006.2 L 429.2,1010.5 L 428.6,1014.8 L 428.0,1019.2 L 427.4,1023.6 L 426.9,1028.1 L 426.4,1032.6 L 425.9,1037.1 L 425.5,1041.6 L 425.1,1046.2 L 424.7,1050.7 L 424.4,1055.1 L 424.2,1059.3 L 424.0,1063.2 L 423.8,1067.0 L 423.7,1070.6 L 423.5,1074.2 L 423.4,1077.8 L 423.3,1081.4 L 423.2,1085.0 L 423.1,1088.6 L 423.0,1092.2 L 422.9,1095.9 L 422.9,1099.5 L 422.8,1103.2 L 422.8,1106.9 L 422.8,1110.6 L 422.8,1114.4 L 422.8,1118.2 L 422.8,1122.0 L 422.9,1125.9 L 422.9,1129.8 L 423.0,1133.8 L 423.1,1137.8 L 423.2,1141.8 L 423.3,1145.9 L 423.4,1150.1 L 423.6,1154.3 L 423.8,1158.6 L 424.0,1162.9 L 424.2,1167.3 L 424.4,1171.8 L 424.7,1176.4 L 425.0,1181.0 L 425.3,1185.7 L 425.6,1190.5 L 425.9,1195.1 L 426.2,1199.5 L 426.5,1203.5 L 426.8,1207.2 L 427.2,1210.9 L 427.5,1214.6 L 427.8,1218.4 L 428.2,1222.3 L 428.6,1226.3 L 429.0,1230.4 L 429.4,1234.5 L 429.9,1238.8 L 430.3,1243.1 L 430.8,1247.4 L 431.3,1251.8 L 431.7,1256.3 L 432.3,1260.8 L 432.8,1265.4 L 433.3,1270.0 L 433.8,1274.6 L 434.4,1279.2 L 434.9,1283.9 L 435.4,1288.5 L 436.0,1293.2 L 436.6,1297.9 L 437.1,1302.6 L 437.7,1307.2 L 438.3,1311.8 L 438.8,1316.5 L 439.4,1321.1 L 439.9,1325.6 L 440.5,1330.1 L 441.1,1334.6 L 441.6,1339.0 L 442.2,1343.4 L 442.7,1347.7 L 443.2,1351.9 L 443.8,1356.1 L 444.3,1360.2 L 444.8,1364.2 L 445.3,1368.1 L 445.7,1371.9 L 446.2,1375.6 L 446.7,1379.2 L 447.1,1382.7 L 447.5,1386.1 L 447.9,1389.4 L 448.3,1392.5 L 448.7,1395.5 L 449.1,1398.3 L 449.4,1401.0 L 449.7,1403.6 L 450.0,1406.0 L 450.3,1408.2 L 450.5,1410.4 L 450.9,1411.7 L 451.8,1412.7 L 453.0,1413.4 L 454.4,1413.5 L 455.7,1413.1 L 456.7,1412.2 L 457.4,1411.0 L 457.5,1409.6 L 457.2,1407.4 L 457.0,1405.1 L 456.7,1402.7 L 456.4,1400.2 L 456.1,1397.5 L 455.7,1394.6 L 455.3,1391.6 L 455.0,1388.5 L 454.6,1385.2 L 454.1,1381.9 L 453.7,1378.4 L 453.3,1374.7 L 452.8,1371.0 L 452.3,1367.2 L 451.8,1363.3 L 451.4,1359.3 L 450.8,1355.2 L 450.3,1351.0 L 449.8,1346.8 L 449.3,1342.5 L 448.7,1338.1 L 448.2,1333.7 L 447.6,1329.3 L 447.1,1324.7 L 446.5,1320.2 L 446.0,1315.6 L 445.4,1311.0 L 444.9,1306.3 L 444.3,1301.7 L 443.8,1297.0 L 443.2,1292.4 L 442.7,1287.7 L 442.1,1283.0 L 441.6,1278.4 L 441.1,1273.7 L 440.5,1269.1 L 440.0,1264.6 L 439.5,1260.0 L 439.0,1255.5 L 438.6,1251.0 L 438.1,1246.6 L 437.6,1242.3 L 437.2,1238.0 L 436.8,1233.8 L 436.4,1229.6 L 436.0,1225.6 L 435.6,1221.6 L 435.2,1217.7 L 434.9,1213.9 L 434.6,1210.2 L 434.3,1206.6 L 434.0,1202.9 L 433.7,1198.9 L 433.4,1194.6 L 433.0,1189.9 L 432.7,1185.2 L 432.5,1180.6 L 432.2,1175.9 L 431.9,1171.4 L 431.7,1167.0 L 431.5,1162.6 L 431.3,1158.3 L 431.1,1154.0 L 431.0,1149.8 L 430.9,1145.7 L 430.7,1141.6 L 430.7,1137.6 L 430.6,1133.6 L 430.5,1129.7 L 430.5,1125.8 L 430.4,1122.0 L 430.4,1118.2 L 430.4,1114.4 L 430.4,1110.7 L 430.5,1107.0 L 430.5,1103.3 L 430.5,1099.6 L 430.6,1096.0 L 430.7,1092.4 L 430.8,1088.8 L 430.9,1085.2 L 431.0,1081.6 L 431.1,1078.1 L 431.3,1074.5 L 431.4,1070.9 L 431.6,1067.3 L 431.7,1063.6 L 431.9,1059.7 L 432.2,1055.6 L 432.5,1051.2 L 432.8,1046.8 L 433.2,1042.3 L 433.7,1037.9 L 434.1,1033.4 L 434.7,1029.0 L 435.2,1024.6 L 435.8,1020.2 L 436.4,1015.9 L 437.0,1011.6 L 437.6,1007.3 L 438.3,1003.1 L 438.9,998.9 L 439.5,994.8 L 440.2,990.7 L 440.8,986.7 L 441.4,982.8 L 442.0,979.0 L 442.6,975.2 L 443.1,971.5 L 443.7,967.9 L 444.2,964.4 L 444.6,961.0 L 445.0,957.7 L 445.4,954.3 L 445.7,950.8 L 446.0,946.6 Z" data-label="Posterior tibial artery (left)"><title>Posterior tibial artery (left)</title></path>
  </g>
  <g id="junction-dots" fill="#1a365d" stroke="none">
    <circle cx="206" cy="402" r="5" />
    <circle cx="394" cy="402" r="5" />
    <circle cx="160" cy="900" r="5" />
    <circle cx="440" cy="900" r="5" />
  </g>
</svg>
