<?xml version="1.0" encoding="UTF-8"?>
<svg xmlns="http://www.w3.org/2000/svg" viewBox="0 0 771 910" role="img" aria-labelledby="title-neck-carotid">
  <title id="title-neck-carotid">Extracranial arteries — anterior view</title>
  <desc>Smooth (potrace) segmented vector of the extracranial arterial tree, traced from the source diagram. Each of the 26 segments carries a canonical SRU/ESVS id and is filled by stenosis severity. Vertebral arteries are layered behind the common carotids.</desc>
  <g id="silhouette" stroke="transparent"></g>
  <g id="pelvis-hint" stroke="transparent"></g>
  <g id="side-labels" font-family="system-ui, -apple-system, Segoe UI, Roboto, sans-serif" font-size="34" font-weight="600" fill="#4a5568" text-anchor="middle">
    <text x="116" y="56">R</text>
    <text x="655" y="56">L</text>
  </g>
  <g id="segments" stroke-linejoin="round" stroke-linecap="round">
    <path id="aorta" d="M478.0,893.9 C475.0,893.4 469.5,893.1 465.9,893.2 C457.4,893.5 455.7,892.3 456.5,886.6 C457.8,877.0 459.0,800.6 458.0,794.6 C457.4,791.3 456.5,785.6 455.9,782.0 C451.9,758.6 443.5,743.8 428.3,733.7 C418.8,727.4 412.5,725.8 399.8,726.3 C386.4,726.8 376.1,729.8 368.3,735.6 C366.6,736.9 364.8,738.0 364.3,738.0 C363.2,738.0 349.0,752.6 346.2,756.7 C345.0,758.5 343.1,762.1 342.1,764.7 C341.1,767.3 338.9,772.4 337.2,776.0 C334.0,783.0 331.0,798.6 331.2,807.8 C331.3,816.1 329.9,816.8 321.5,812.5 C308.9,806.2 289.3,803.7 271.4,806.0 C263.4,807.0 258.7,808.9 251.9,813.7 C244.5,819.0 242.7,817.8 244.1,808.5 C244.7,805.2 246.2,795.8 247.5,787.5 C249.7,773.6 250.3,769.7 251.4,761.4 C252.2,755.3 259.3,735.5 263.3,728.0 C269.8,715.9 283.8,695.3 290.2,688.4 C293.5,685.0 299.5,679.6 303.6,676.4 C307.6,673.3 311.0,670.3 311.0,669.8 C311.0,667.9 308.6,664.6 301.0,656.3 C295.0,649.7 293.4,647.3 294.2,646.3 C295.0,645.3 300.7,645.0 318.3,645.0 C341.4,645.0 341.4,645.0 344.0,647.5 C346.7,650.0 346.7,650.0 353.3,647.5 C360.0,645.0 360.0,645.0 422.8,645.0 C468.6,645.0 485.9,645.3 486.7,646.1 C487.6,647.0 487.2,648.7 485.1,652.9 C480.3,662.5 480.3,662.5 485.7,666.2 C496.4,673.5 508.4,687.0 514.0,698.0 C514.7,699.4 517.9,704.1 521.1,708.5 C530.2,721.3 541.6,748.3 544.9,765.0 C549.1,785.8 549.4,790.1 548.2,804.2 C547.6,811.5 547.3,822.6 547.5,828.9 C547.9,838.2 547.7,840.8 546.4,842.7 C545.3,844.5 545.1,845.5 546.0,846.5 C546.8,847.5 546.8,853.3 546.1,868.0 C545.6,879.1 545.4,888.8 545.7,889.6 C546.0,890.4 545.4,892.0 544.5,893.0 C542.8,894.9 541.3,895.0 513.1,894.9 C496.8,894.8 481.0,894.4 478.0,893.9 Z" data-label="Aortic arch"><title>Aortic arch &amp; ascending aorta</title></path>
    <path id="subclav-prox-right" d="M 134.2,523.3 L 131.5,523.0 L 128.8,523.1 L 126.2,523.7 L 123.7,524.6 L 121.4,526.0 L 119.3,527.6 L 117.5,529.6 L 116.1,531.8 L 115.0,534.3 L 114.3,536.8 L 114.0,539.5 L 114.1,542.2 L 114.7,544.8 L 115.6,547.3 L 117.0,549.6 L 118.6,551.7 L 120.6,553.5 L 122.8,554.9 L 125.3,556.0 L 127.8,556.7 L 217.8,573.7 L 220.5,574.0 L 223.2,573.9 L 225.8,573.3 L 228.3,572.4 L 230.6,571.0 L 232.7,569.4 L 234.5,567.4 L 235.9,565.2 L 237.0,562.7 L 237.7,560.2 L 238.0,557.5 L 237.9,554.8 L 237.3,552.2 L 236.4,549.7 L 235.0,547.4 L 233.4,545.3 L 231.4,543.5 L 229.2,542.1 L 226.7,541.0 L 224.2,540.3 L 134.2,523.3 Z" data-label="Subclavian artery — proximal (right)"><title>Subclavian artery — proximal (right)</title></path>
    <path id="subclav-dist-right" d="M 27.5,532.1 L 24.9,532.5 L 22.3,533.4 L 20.0,534.6 L 17.8,536.2 L 16.0,538.1 L 14.4,540.3 L 13.2,542.6 L 12.4,545.2 L 12.0,547.8 L 12.1,550.5 L 12.5,553.1 L 13.4,555.7 L 14.6,558.0 L 16.2,560.2 L 18.1,562.0 L 20.3,563.6 L 22.6,564.8 L 25.2,565.6 L 27.8,566.0 L 30.5,565.9 L 132.5,556.9 L 135.1,556.5 L 137.7,555.6 L 140.0,554.4 L 142.2,552.8 L 144.0,550.9 L 145.6,548.7 L 146.8,546.4 L 147.6,543.8 L 148.0,541.2 L 147.9,538.5 L 147.5,535.9 L 146.6,533.3 L 145.4,531.0 L 143.8,528.8 L 141.9,527.0 L 139.7,525.4 L 137.4,524.2 L 134.8,523.4 L 132.2,523.0 L 129.5,523.1 L 27.5,532.1 Z" data-label="Subclavian artery — distal (right)"><title>Subclavian artery — distal (right)</title></path>
    <path id="subclav-prox-left" d="M 508.9,594.1 L 552.3,576.8 L 554.7,575.6 L 556.9,574.1 L 558.8,572.2 L 560.4,570.1 L 561.6,567.7 L 562.5,565.2 L 562.9,562.5 L 563.0,559.9 L 562.6,557.2 L 561.8,554.7 L 560.6,552.3 L 559.1,550.1 L 557.2,548.2 L 555.1,546.6 L 552.7,545.4 L 550.2,544.5 L 547.5,544.1 L 544.9,544.0 L 542.2,544.4 L 539.7,545.2 L 489.7,565.2 L 487.3,566.4 L 485.1,568.0 L 483.1,569.9 L 481.5,572.1 L 480.3,574.5 L 455.3,634.5 L 454.5,637.0 L 454.1,639.6 L 454.0,642.3 L 454.5,644.9 L 455.3,647.5 L 456.5,649.9 L 458.1,652.0 L 459.9,653.9 L 462.1,655.5 L 464.5,656.7 L 467.0,657.5 L 469.6,657.9 L 472.3,658.0 L 474.9,657.5 L 477.5,656.7 L 479.9,655.5 L 482.0,653.9 L 483.9,652.1 L 485.5,649.9 L 486.7,647.5 L 508.9,594.1 Z" data-label="Subclavian artery — proximal (left)"><title>Subclavian artery — proximal (left)</title></path>
    <path id="subclav-dist-left" d="M 641.8,563.1 L 725.0,568.0 L 727.7,567.9 L 730.3,567.4 L 732.8,566.6 L 735.2,565.3 L 737.3,563.7 L 739.1,561.8 L 740.7,559.6 L 741.8,557.2 L 742.6,554.6 L 743.0,552.0 L 742.9,549.3 L 742.4,546.7 L 741.6,544.2 L 740.3,541.8 L 738.7,539.7 L 736.8,537.9 L 734.6,536.3 L 732.2,535.2 L 729.6,534.4 L 727.0,534.0 L 642.0,529.0 L 638.3,529.2 L 543.3,544.2 L 540.8,544.8 L 538.3,545.8 L 536.0,547.2 L 534.0,549.0 L 532.3,551.0 L 530.9,553.3 L 529.8,555.7 L 529.2,558.3 L 529.0,561.0 L 529.2,563.7 L 529.8,566.2 L 530.8,568.7 L 532.2,571.0 L 534.0,573.0 L 536.0,574.7 L 538.3,576.1 L 540.7,577.2 L 543.3,577.8 L 546.0,578.0 L 548.7,577.8 L 641.8,563.1 Z" data-label="Subclavian artery — distal (left)"><title>Subclavian artery — distal (left)</title></path>
    <path id="vert-v1-right" d="M 216.0,445.3 L 140.5,524.8 L 139.6,525.9 L 138.9,527.1 L 138.4,528.4 L 138.1,529.8 L 138.0,531.2 L 138.1,532.6 L 138.5,534.0 L 139.1,535.3 L 139.9,536.5 L 140.8,537.5 L 141.9,538.4 L 143.1,539.1 L 144.4,539.6 L 145.8,539.9 L 147.2,540.0 L 148.6,539.9 L 150.0,539.5 L 151.3,538.9 L 152.5,538.1 L 153.5,537.2 L 229.5,457.2 L 230.3,456.2 L 260.3,414.2 L 261.1,413.0 L 261.6,411.7 L 261.9,410.3 L 262.0,408.9 L 261.9,407.5 L 261.5,406.1 L 261.0,404.8 L 260.2,403.7 L 259.3,402.6 L 258.2,401.7 L 257.0,400.9 L 255.7,400.4 L 254.3,400.1 L 252.9,400.0 L 251.5,400.1 L 250.1,400.5 L 248.8,401.0 L 247.7,401.8 L 246.6,402.7 L 245.7,403.8 L 216.0,445.3 Z" data-label="Vertebral artery V1 (right)"><title>Vertebral artery V1 (right)</title></path>
    <path id="vert-v2-right" d="M 285.1,326.7 L 285.0,326.9 L 245.0,404.9 L 244.4,406.2 L 244.1,407.6 L 244.0,409.0 L 244.1,410.4 L 244.4,411.8 L 245.0,413.1 L 245.7,414.3 L 246.6,415.3 L 247.7,416.3 L 248.9,417.0 L 250.2,417.6 L 251.6,417.9 L 253.0,418.0 L 254.4,417.9 L 255.8,417.6 L 257.1,417.0 L 258.3,416.3 L 259.3,415.4 L 260.3,414.3 L 261.0,413.1 L 300.9,335.2 L 343.9,257.3 L 344.5,256.1 L 344.8,254.7 L 345.0,253.3 L 344.9,251.9 L 344.6,250.5 L 344.1,249.2 L 343.4,247.9 L 342.6,246.8 L 341.5,245.9 L 340.3,245.1 L 339.1,244.5 L 337.7,244.2 L 336.3,244.0 L 334.9,244.1 L 333.5,244.4 L 332.2,244.9 L 330.9,245.6 L 329.8,246.4 L 328.9,247.5 L 328.1,248.7 L 285.1,326.7 Z" data-label="Vertebral artery V2 (right)"><title>Vertebral artery V2 (right)</title></path>
    <path id="vert-v3-right" d="M 354.0,92.4 L 337.1,191.5 L 337.1,191.5 L 327.1,251.5 L 327.0,252.9 L 327.1,254.3 L 327.4,255.7 L 327.9,257.0 L 328.7,258.2 L 329.6,259.3 L 330.7,260.2 L 331.8,261.0 L 333.1,261.5 L 334.5,261.9 L 335.9,262.0 L 337.3,261.9 L 338.7,261.6 L 340.0,261.1 L 341.2,260.3 L 342.3,259.4 L 343.2,258.3 L 344.0,257.2 L 344.5,255.9 L 344.9,254.5 L 354.9,194.5 L 371.9,94.5 L 372.0,92.7 L 370.0,24.7 L 369.8,23.3 L 369.5,22.0 L 368.9,20.7 L 368.1,19.5 L 367.2,18.5 L 366.1,17.6 L 364.8,16.9 L 363.5,16.4 L 362.1,16.1 L 360.7,16.0 L 359.3,16.2 L 358.0,16.5 L 356.7,17.1 L 355.5,17.9 L 354.5,18.8 L 353.6,19.9 L 352.9,21.2 L 352.4,22.5 L 352.1,23.9 L 352.0,25.3 L 354.0,92.4 Z" data-label="Vertebral artery V3 (right)"><title>Vertebral artery V3 (right)</title></path>
    <path id="vert-v1-left" d="M 505.7,456.2 L 506.5,457.2 L 544.3,497.1 L 579.2,536.9 L 580.2,537.9 L 581.4,538.7 L 582.7,539.4 L 584.0,539.8 L 585.4,540.0 L 586.8,540.0 L 588.2,539.7 L 589.5,539.3 L 590.8,538.6 L 591.9,537.8 L 592.9,536.8 L 593.7,535.6 L 594.4,534.3 L 594.8,533.0 L 595.0,531.6 L 595.0,530.2 L 594.7,528.8 L 594.3,527.5 L 593.6,526.2 L 592.8,525.1 L 557.8,485.1 L 557.5,484.8 L 520.0,445.3 L 490.3,403.8 L 489.4,402.7 L 488.3,401.8 L 487.2,401.0 L 485.9,400.5 L 484.5,400.1 L 483.1,400.0 L 481.7,400.1 L 480.3,400.4 L 479.0,400.9 L 477.8,401.7 L 476.7,402.6 L 475.8,403.7 L 475.0,404.8 L 474.5,406.1 L 474.1,407.5 L 474.0,408.9 L 474.1,410.3 L 474.4,411.7 L 474.9,413.0 L 475.7,414.2 L 505.7,456.2 Z" data-label="Vertebral artery V1 (left)"><title>Vertebral artery V1 (left)</title></path>
    <path id="vert-v2-left" d="M 475.1,413.3 L 475.9,414.5 L 476.8,415.6 L 477.9,416.4 L 479.2,417.1 L 480.5,417.6 L 481.9,417.9 L 483.3,418.0 L 484.7,417.8 L 486.1,417.5 L 487.3,416.9 L 488.5,416.1 L 489.6,415.2 L 490.4,414.1 L 491.1,412.8 L 491.6,411.5 L 491.9,410.1 L 492.0,408.7 L 491.8,407.3 L 491.5,405.9 L 490.9,404.7 L 404.9,248.7 L 404.1,247.5 L 403.2,246.4 L 402.1,245.6 L 400.8,244.9 L 399.5,244.4 L 398.1,244.1 L 396.7,244.0 L 395.3,244.2 L 393.9,244.5 L 392.7,245.1 L 391.5,245.9 L 390.4,246.8 L 389.6,247.9 L 388.9,249.2 L 388.4,250.5 L 388.1,251.9 L 388.0,253.3 L 388.2,254.7 L 388.5,256.1 L 389.1,257.3 L 475.1,413.3 Z" data-label="Vertebral artery V2 (left)"><title>Vertebral artery V2 (left)</title></path>
    <path id="vert-v3-left" d="M 361.0,92.7 L 361.1,94.5 L 378.1,194.5 L 388.1,254.5 L 388.5,255.9 L 389.0,257.2 L 389.8,258.3 L 390.7,259.4 L 391.8,260.3 L 393.0,261.1 L 394.3,261.6 L 395.7,261.9 L 397.1,262.0 L 398.5,261.9 L 399.9,261.5 L 401.2,261.0 L 402.3,260.2 L 403.4,259.3 L 404.3,258.2 L 405.1,257.0 L 405.6,255.7 L 405.9,254.3 L 406.0,252.9 L 405.9,251.5 L 395.9,191.5 L 395.9,191.5 L 379.0,92.4 L 381.0,25.3 L 380.9,23.9 L 380.6,22.5 L 380.1,21.2 L 379.4,19.9 L 378.5,18.8 L 377.5,17.9 L 376.3,17.1 L 375.0,16.5 L 373.7,16.2 L 372.3,16.0 L 370.9,16.1 L 369.5,16.4 L 368.2,16.9 L 366.9,17.6 L 365.8,18.5 L 364.9,19.5 L 364.1,20.7 L 363.5,22.0 L 363.2,23.3 L 363.0,24.7 L 361.0,92.7 Z" data-label="Vertebral artery V3 (left)"><title>Vertebral artery V3 (left)</title></path>
    <path id="eca-right" d="M226.7,243.2 C225.8,242.2 225.0,241.0 225.0,240.6 C225.0,238.2 215.6,221.5 213.8,220.6 C212.6,220.0 210.5,217.2 209.0,214.4 C207.6,211.6 204.3,206.4 201.7,202.7 C199.1,199.1 196.6,195.0 196.1,193.6 C195.5,192.3 193.1,188.2 190.6,184.7 C188.1,181.2 185.1,175.4 184.0,171.9 C182.8,168.4 181.4,164.7 180.8,163.7 C180.3,162.7 179.6,159.3 179.4,156.2 C179.1,153.0 178.5,146.9 178.0,142.5 C177.4,138.1 177.1,128.8 177.2,121.9 C177.3,109.8 177.2,109.2 174.8,105.9 C173.4,104.0 170.9,100.1 169.4,97.1 C167.8,94.2 165.9,90.7 165.2,89.4 C164.1,87.4 154.7,77.9 143.1,67.2 C141.3,65.5 139.3,64.3 138.8,64.6 C138.3,64.9 136.1,64.0 134.0,62.6 C131.8,61.2 128.9,60.0 127.5,60.0 C123.9,60.0 116.2,54.5 115.4,51.4 C114.5,48.0 115.6,42.0 117.4,40.1 C119.8,37.8 125.3,40.0 150.5,53.2 C152.3,54.1 157.3,58.1 161.6,62.0 C166.0,65.9 170.9,70.3 172.5,71.8 C174.2,73.3 176.3,75.6 177.2,77.0 C179.8,80.9 180.2,61.0 178.1,33.7 C176.7,15.7 176.5,16.0 186.5,16.0 C195.3,16.0 196.0,16.6 199.9,28.1 C202.6,36.0 202.8,37.8 203.4,59.9 C203.8,72.8 204.5,84.1 205.1,85.2 C205.8,86.5 205.9,95.4 205.4,112.4 C204.9,130.3 205.0,138.2 205.8,139.7 C206.5,140.8 207.4,145.5 207.9,150.1 C208.5,154.7 209.8,160.4 210.9,162.7 C212.1,165.0 213.0,168.4 213.0,170.3 C213.0,174.0 215.4,179.4 220.6,187.7 C222.6,190.7 224.8,194.7 225.6,196.6 C226.4,198.5 228.7,202.4 230.7,205.2 C234.0,209.7 234.4,210.0 235.1,208.2 C236.1,205.5 237.6,204.7 238.8,206.3 C239.9,207.7 244.6,222.1 245.3,226.5 C245.6,228.2 246.2,230.3 246.5,231.2 C247.3,233.3 243.2,237.5 236.7,241.3 C230.4,245.0 228.6,245.3 226.7,243.2 Z" data-label="External carotid artery (right)"><title>External carotid artery (right)</title></path>
    <path id="eca-left" d="M518.0,239.3 C512.8,236.6 508.4,234.0 508.3,233.5 C508.0,232.4 517.7,215.8 524.8,205.1 C535.8,188.8 537.0,180.5 537.2,122.8 C537.3,90.7 536.9,73.0 536.0,65.1 C534.7,53.7 534.7,53.7 538.9,49.7 C542.4,46.5 543.6,45.9 545.8,46.4 C547.3,46.8 550.2,47.5 552.4,47.9 C560.3,49.7 560.2,49.2 560.3,80.8 C560.5,108.8 560.5,108.8 563.1,104.7 C572.4,89.7 606.4,69.2 622.1,69.0 C625.8,69.0 630.0,72.2 630.0,75.0 C630.0,75.8 631.0,77.4 632.2,78.7 C634.2,80.9 634.3,81.1 632.6,82.9 C631.6,84.0 629.4,85.2 627.6,85.5 C623.4,86.4 605.8,94.1 598.4,98.3 C580.6,108.3 574.4,115.7 566.4,136.0 C565.4,138.5 563.9,141.3 563.1,142.3 C561.9,143.7 561.6,146.9 561.7,157.8 C561.9,174.8 559.2,194.1 555.4,203.7 C553.4,208.6 550.6,212.9 545.1,219.2 C534.9,230.9 533.0,233.5 533.0,235.7 C533.0,236.7 531.8,239.0 530.2,240.8 C527.5,244.0 527.5,244.0 518.0,239.3 Z M494.3,234.9 C493.4,234.0 493.9,232.8 496.1,230.0 C497.8,228.0 499.0,225.9 498.8,225.4 C498.4,224.1 501.1,214.8 502.3,213.2 C504.0,211.0 506.0,213.9 506.0,218.8 C506.0,221.3 506.5,224.8 507.2,226.6 C508.5,230.3 506.9,233.6 504.3,232.5 C503.5,232.2 501.7,232.9 500.3,234.0 C497.4,236.3 495.9,236.5 494.3,234.9 Z" data-label="External carotid artery (left)"><title>External carotid artery (left)</title></path>
    <path id="cca-prox-right" d="M 291.1,587.9 L 270.0,560.3 L 278.8,508.0 L 279.0,505.5 L 278.9,503.0 L 271.9,439.0 L 271.4,436.3 L 270.4,433.6 L 269.1,431.1 L 267.3,428.9 L 265.3,427.0 L 262.9,425.4 L 260.4,424.2 L 257.7,423.4 L 254.9,423.0 L 252.0,423.1 L 249.3,423.6 L 246.6,424.6 L 244.1,425.9 L 241.9,427.7 L 240.0,429.7 L 238.4,432.1 L 237.2,434.6 L 236.4,437.3 L 236.0,440.1 L 236.1,443.0 L 242.8,504.5 L 233.2,562.0 L 233.0,565.0 L 233.2,567.9 L 233.9,570.8 L 235.1,573.5 L 236.7,575.9 L 262.7,609.9 L 263.0,610.3 L 297.0,652.3 L 299.0,654.4 L 301.2,656.1 L 303.7,657.4 L 306.3,658.4 L 309.1,658.9 L 311.9,659.0 L 314.7,658.6 L 317.4,657.8 L 320.0,656.6 L 322.3,655.0 L 324.4,653.0 L 326.1,650.8 L 327.4,648.3 L 328.4,645.7 L 328.9,642.9 L 329.0,640.1 L 328.6,637.3 L 327.8,634.6 L 326.6,632.0 L 325.0,629.7 L 291.1,587.9 Z" data-label="Common carotid artery — proximal (right)"><title>Common carotid artery — proximal (right)</title></path>
    <path id="cca-mid-right" d="M 269.0,344.4 L 268.7,341.6 L 267.9,338.9 L 266.8,336.3 L 265.2,334.0 L 263.3,331.9 L 261.1,330.1 L 258.7,328.7 L 256.0,327.7 L 253.3,327.1 L 250.4,327.0 L 247.6,327.3 L 244.9,328.1 L 242.3,329.2 L 240.0,330.8 L 237.9,332.7 L 236.1,334.9 L 234.7,337.3 L 233.7,340.0 L 233.1,342.7 L 233.0,345.6 L 236.0,441.6 L 236.3,444.4 L 237.1,447.1 L 238.2,449.7 L 239.8,452.0 L 241.7,454.1 L 243.9,455.9 L 246.3,457.3 L 249.0,458.3 L 251.7,458.9 L 254.6,459.0 L 257.4,458.7 L 260.1,457.9 L 262.7,456.8 L 265.0,455.2 L 267.1,453.3 L 268.9,451.1 L 270.3,448.7 L 271.3,446.0 L 271.9,443.3 L 272.0,440.4 L 269.0,344.4 Z" data-label="Common carotid artery — mid (right)"><title>Common carotid artery — mid (right)</title></path>
    <path id="cca-dist-right" d="M 267.0,252.6 L 266.7,249.8 L 266.0,247.1 L 264.9,244.5 L 263.3,242.1 L 261.4,240.0 L 259.3,238.2 L 256.8,236.8 L 254.2,235.8 L 251.4,235.2 L 248.6,235.0 L 245.8,235.3 L 243.1,236.0 L 240.5,237.1 L 238.1,238.7 L 236.0,240.6 L 234.2,242.7 L 232.8,245.2 L 231.8,247.8 L 231.2,250.6 L 231.0,253.4 L 233.0,345.4 L 233.3,348.2 L 234.0,350.9 L 235.1,353.5 L 236.7,355.9 L 238.6,358.0 L 240.7,359.8 L 243.2,361.2 L 245.8,362.2 L 248.6,362.8 L 251.4,363.0 L 254.2,362.7 L 256.9,362.0 L 259.5,360.9 L 261.9,359.3 L 264.0,357.4 L 265.8,355.3 L 267.2,352.8 L 268.2,350.2 L 268.8,347.4 L 269.0,344.6 L 267.0,252.6 Z" data-label="Common carotid artery — distal (right)"><title>Common carotid artery — distal (right)</title></path>
    <path id="cca-prox-left" d="M 430.4,597.7 L 445.7,554.6 L 469.4,500.5 L 494.2,448.8 L 495.2,446.2 L 495.8,443.4 L 496.0,440.6 L 495.7,437.8 L 495.0,435.0 L 493.8,432.5 L 492.3,430.1 L 490.4,428.0 L 488.2,426.2 L 485.8,424.8 L 483.2,423.8 L 480.4,423.2 L 477.6,423.0 L 474.8,423.3 L 472.0,424.0 L 469.5,425.2 L 467.1,426.7 L 465.0,428.6 L 463.2,430.8 L 461.8,433.2 L 436.8,485.2 L 436.5,485.8 L 412.5,540.8 L 412.0,542.0 L 396.0,587.0 L 395.3,589.7 L 386.3,637.7 L 386.0,640.5 L 386.1,643.3 L 386.7,646.1 L 387.7,648.7 L 389.1,651.2 L 390.9,653.4 L 393.0,655.3 L 395.4,656.8 L 398.0,658.0 L 400.7,658.7 L 403.5,659.0 L 406.3,658.9 L 409.1,658.3 L 411.7,657.3 L 414.2,655.9 L 416.4,654.1 L 418.3,652.0 L 419.8,649.6 L 421.0,647.0 L 421.7,644.3 L 430.4,597.7 Z" data-label="Common carotid artery — proximal (left)"><title>Common carotid artery — proximal (left)</title></path>
    <path id="cca-mid-left" d="M 512.7,348.1 L 513.0,345.3 L 512.8,342.5 L 512.2,339.7 L 511.2,337.1 L 509.8,334.7 L 508.0,332.5 L 505.8,330.6 L 503.5,329.1 L 500.9,328.0 L 498.1,327.3 L 495.3,327.0 L 492.5,327.2 L 489.7,327.8 L 487.1,328.8 L 484.7,330.2 L 482.5,332.0 L 480.6,334.2 L 479.1,336.5 L 478.0,339.1 L 477.3,341.9 L 460.3,437.9 L 460.0,440.7 L 460.2,443.5 L 460.8,446.3 L 461.8,448.9 L 463.2,451.3 L 465.0,453.5 L 467.2,455.4 L 469.5,456.9 L 472.1,458.0 L 474.9,458.7 L 477.7,459.0 L 480.5,458.8 L 483.3,458.2 L 485.9,457.2 L 488.3,455.8 L 490.5,454.0 L 492.4,451.8 L 493.9,449.5 L 495.0,446.9 L 495.7,444.1 L 512.7,348.1 Z" data-label="Common carotid artery — mid (left)"><title>Common carotid artery — mid (left)</title></path>
    <path id="cca-dist-left" d="M 514.0,253.2 L 513.8,250.4 L 513.2,247.6 L 512.1,245.0 L 510.7,242.6 L 508.9,240.4 L 506.7,238.6 L 504.3,237.1 L 501.7,235.9 L 499.0,235.3 L 496.2,235.0 L 493.4,235.2 L 490.6,235.8 L 488.0,236.9 L 485.6,238.3 L 483.4,240.1 L 481.6,242.3 L 480.1,244.7 L 478.9,247.3 L 478.3,250.0 L 478.0,252.8 L 477.0,344.8 L 477.2,347.6 L 477.8,350.4 L 478.9,353.0 L 480.3,355.4 L 482.1,357.6 L 484.3,359.4 L 486.7,360.9 L 489.3,362.1 L 492.0,362.7 L 494.8,363.0 L 497.6,362.8 L 500.4,362.2 L 503.0,361.1 L 505.4,359.7 L 507.6,357.9 L 509.4,355.7 L 510.9,353.3 L 512.1,350.7 L 512.7,348.0 L 513.0,345.2 L 514.0,253.2 Z" data-label="Common carotid artery — distal (left)"><title>Common carotid artery — distal (left)</title></path>
    <path id="bulb-right" d="M232.2,256.8 C231.0,255.5 230.0,253.9 230.0,253.3 C230.0,252.8 229.1,251.5 228.1,250.6 C227.0,249.6 225.7,247.5 225.1,246.0 C223.9,242.5 225.7,240.7 234.3,236.5 C241.3,233.0 241.3,233.1 239.9,229.0 C238.8,226.1 239.0,225.6 241.4,223.2 C244.0,220.6 244.0,220.6 247.9,224.4 C251.9,228.3 256.4,229.9 264.1,230.0 C269.4,230.0 272.0,233.2 272.0,240.1 C272.1,243.1 272.5,247.4 272.9,249.7 C274.3,257.0 272.8,257.7 252.0,258.5 C234.5,259.2 234.5,259.2 232.2,256.8 Z" data-label="Carotid bulb (right)"><title>Carotid bulb (right)</title></path>
    <path id="bulb-left" d="M499.5,258.8 C478.4,257.7 478.4,257.8 478.9,246.2 C479.2,236.6 481.0,234.4 490.4,231.6 C495.7,230.0 496.7,229.3 495.8,228.2 C494.9,227.2 495.3,226.2 497.7,223.9 C500.7,220.8 500.7,220.8 504.5,225.4 C506.5,227.9 508.8,230.0 509.5,230.0 C511.8,230.0 526.4,237.3 529.1,239.7 C531.8,242.1 531.8,242.1 528.5,247.8 C524.0,255.5 520.1,260.0 518.2,259.9 C517.2,259.8 508.9,259.3 499.5,258.8 Z" data-label="Carotid bulb (left)"><title>Carotid bulb (left)</title></path>
    <path id="ica-prox-right" d="M254.2,236.8 C249.6,236.0 248.4,235.2 244.2,230.4 C237.4,222.5 233.2,209.7 234.2,200.2 C235.1,191.7 235.2,175.2 234.4,163.2 C233.4,149.8 233.9,149.4 251.6,148.5 C270.4,147.5 269.7,146.6 269.9,169.0 C269.9,178.2 270.4,190.0 271.0,195.2 C271.5,200.3 272.0,211.1 272.0,219.1 C272.0,233.0 271.9,233.7 269.7,235.8 C267.1,238.2 263.3,238.5 254.2,236.8 Z" data-label="Internal carotid artery — proximal (right)"><title>Internal carotid artery — proximal (right)</title></path>
    <path id="ica-mid-right" d="M236.2,154.8 C234.0,152.4 234.0,152.4 234.2,118.6 C234.6,77.7 232.9,81.4 251.0,80.4 C268.0,79.5 267.8,79.3 270.0,102.4 C270.5,107.8 270.6,112.8 270.3,113.4 C269.9,113.9 269.7,122.8 269.9,133.0 C270.2,156.7 271.2,155.5 252.0,156.5 C238.6,157.2 238.5,157.2 236.2,154.8 Z" data-label="Internal carotid artery — mid (right)"><title>Internal carotid artery — mid (right)</title></path>
    <path id="ica-dist-right" d="M236.3,86.8 C233.8,84.1 232.1,74.5 231.4,59.5 C231.1,54.0 230.5,46.4 230.0,42.5 C229.5,38.6 229.1,31.6 229.1,26.9 C229.0,14.3 229.4,14.0 248.1,14.0 C267.5,14.0 266.9,13.4 267.7,33.3 C268.2,44.5 268.0,48.3 267.0,49.5 C266.0,50.7 266.0,54.0 267.0,67.1 C268.7,88.0 269.1,87.5 251.0,88.5 C238.8,89.1 238.4,89.1 236.3,86.8 Z" data-label="Internal carotid artery — distal (right)"><title>Internal carotid artery — distal (right)</title></path>
    <path id="ica-prox-left" d="M481.2,239.6 C478.8,237.1 477.5,221.1 476.0,179.5 C474.8,147.3 473.8,149.6 490.8,148.5 C502.4,147.8 502.4,147.8 505.1,150.8 C507.7,153.7 507.8,154.2 507.9,167.2 C508.4,214.6 508.5,211.8 505.5,221.0 C501.7,232.6 496.5,238.1 486.8,240.8 C483.6,241.7 482.9,241.5 481.2,239.6 Z" data-label="Internal carotid artery — proximal (left)"><title>Internal carotid artery — proximal (left)</title></path>
    <path id="ica-mid-left" d="M476.8,154.2 C473.8,150.7 473.4,146.3 472.6,107.9 C472.0,82.0 471.1,83.5 488.5,82.5 C500.5,81.8 500.5,81.8 503.0,84.4 C505.4,87.0 505.4,87.5 505.5,103.3 C505.6,112.2 506.0,126.7 506.4,135.5 C507.5,156.0 507.8,155.5 490.9,156.5 C479.4,157.2 479.4,157.2 476.8,154.2 Z" data-label="Internal carotid artery — mid (left)"><title>Internal carotid artery — mid (left)</title></path>
    <path id="ica-dist-left" d="M474.2,88.7 C471.0,85.3 470.2,78.0 469.7,45.3 C469.1,11.5 467.8,14.0 486.1,14.0 C498.5,14.0 498.7,14.0 501.2,16.8 C503.8,19.5 503.8,19.5 503.7,39.0 C503.7,49.7 504.0,64.6 504.5,72.0 C505.5,89.7 505.6,89.5 488.5,90.5 C476.6,91.2 476.5,91.2 474.2,88.7 Z" data-label="Internal carotid artery — distal (left)"><title>Internal carotid artery — distal (left)</title></path>
  </g>
</svg>
